<?xml version="1.0" encoding="utf-8"?>
<!DOCTYPE svg PUBLIC "-//W3C//DTD SVG 1.1//EN" "http://www.w3.org/Graphics/SVG/1.1/DTD/svg11.dtd">
<svg version="1.1" id="Laag_1" xmlns="http://www.w3.org/2000/svg" xmlns:xlink="http://www.w3.org/1999/xlink" x="0px" y="0px"
	 width="404.213px" height="566.688px" viewBox="0 0 404.213 566.688" enable-background="new 0 0 404.213 566.688"
	 xml:space="preserve">
<g>
	<path d="M338.605,145.217c-20.591-1.244-41.182-2.456-61.771-3.746c-14.856-0.932-29.632-0.842-44.143,3.051
		c-17.866,4.791-25.197,14.763-22.858,33.189c3.306,26.039,12.624,50.549,20.533,75.396c10.028,31.512,22.906,62.106,30.723,94.314
		c3.558,14.662,6.37,29.509,3.07,44.772c-1.887,8.736-5.383,16.269-14.493,19c-9.344,2.807-17.815,0.195-24.881-6.481
		c-9.86-9.313-14.429-21.514-18.289-34.086c-6.562-21.34-6.562-43.535-8.639-65.461c-1.258-13.282-2.291-26.61-6.834-39.314
		c-0.973-2.722-1.965-5.491-3.396-7.979c-5.042-8.758-11.351-8.976-16.265-0.254c-8.937,15.864-13.046,33.474-17.148,50.977
		c-11.142,47.527-18.619,95.691-24.557,144.12c-0.699,5.701-2.326,11.429-4.43,16.788c-7.433,18.947-25.949,22.577-40.344,7.994
		c-9.442-9.564-12.646-21.861-14.446-34.701c-4.322-30.86,3.529-59.899,13.336-88.608c15.334-44.884,37.412-86.795,57.357-129.646
		c4.522-9.719,9.243-19.389,12.159-29.764c5.354-19.054-1.145-30.407-20.438-34.795c-15.791-3.591-31.812-2.11-47.724-0.701
		c-21.177,1.875-41.653,7.488-62.282,12.257c-7.822,1.808-15.921,3.381-21.28-4.71c-3.638-5.493-0.634-16.56,5.841-23.079
		c13.327-13.417,30.883-15.155,48.282-16.44c20.066-1.482,40.045,1.868,60.095,2.192c19.425,0.314,38.285-1.703,54.664-13.794
		c6.034-4.455,10.15-10.162,13.454-16.776c4.226-8.459,3.021-15.745-3.961-21.974c-19.517-17.414-18.485-29.742-6.739-52.698
		c10.026-19.599,28.418-27.84,47.706-22.82c6.431,1.674,11.626,5.176,15.957,10.046c14.742,16.579,13.022,45.719-3.615,60.179
		c-3.723,3.235-7.812,6.04-11.695,9.091c-6.028,4.731-12.318,9.303-9.271,18.624c2.927,8.951,10.364,15.21,19.974,15.627
		c18.317,0.797,36.562-0.296,54.766-2.619c25.585-3.266,50.727-10.021,76.771-9.736c9.094,0.099,17.938,1.497,26.445,4.643
		c6.669,2.464,13.349,5.462,13.935,13.797c0.617,8.79-5.915,12.763-12.558,16.043c-9.783,4.836-20.474,6.43-31.189,7.256
		c-7.223,0.557-14.524,0.106-21.79,0.106C338.623,144.736,338.614,144.977,338.605,145.217z"/>
	<path d="M338.841,457.762c4.779,6.152,8.724,9.401,15.838,4.781c-1.852,5.727-4.738,7.069-8.483,6.469
		C341.256,468.219,339.02,464.993,338.841,457.762z"/>
	<path d="M345.907,447.904c-3.678,2.993-6.561,1.955-9.179-0.121c-0.149-0.117,0.691-2.164,1.482-2.677
		C342.1,442.596,342.506,448.755,345.907,447.904z"/>
	<g>
		<path d="M349.539,429.645c-11.398-0.7-10.991-6.68-10.418-14.49c0.298-4.051,0.095-8.141,0.037-12.211
			c-0.124-8.935-3.063-12.02-11.921-12.08c-14.538-0.102-29.093,0.379-43.607-0.2c-7.229-0.289-10.495,1.886-12.808,8.996
			c-6.854,21.097-28.337,28.166-46.968,16.233c-7.318-4.687-12.877-11.068-16.436-18.771c-2.368-5.122-5.405-6.482-10.712-6.322
			c-12.202,0.368-24.422,0.088-36.636,0.082c-13.181-0.005-12.596,0.1-14.736,12.838c-3.502,20.846-3.499,42.179-9.154,62.719
			c-3.915,14.221-16.23,27.472-27.423,28.821c-14.674,1.772-29.563-6.299-37.552-20.384c-2.728-4.809-4.904-9.835-6.483-15.164
			c-5.997-20.229-5.791-40.66-2.286-61.227c0.424-2.486,2.19-5.459-0.66-7.127c-2.205-1.289-5.104-0.597-7.649,0.24
			c-5.042,1.652-6.203,5.594-6.2,10.307c0.016,36.057,0.08,72.112-0.052,108.169c-0.025,6.789,3.319,9.658,9.553,9.502
			c9.005-0.227,17.997-0.975,27.002-1.227c7.668-0.215,15.348-0.045,23.022-0.045c-16.792,2.354-33.55,3.615-50.308,4.854
			c-4.04,0.298-9.184-0.079-9.025,5.583c0.158,5.729,5.343,5.274,9.347,4.956c22.571-1.814,45.26-2.846,67.667-5.905
			c48.057-6.565,96.314-3.903,144.501-4.648c1.008-0.015,2.021,0.326,3.033,0.503c-0.01,0.273-0.018,0.55-0.026,0.825
			c-4.266,0.518-8.535,1.012-12.8,1.556c-43.443,5.532-86.875,11.186-130.338,16.569c-24.781,3.068-49.626,5.622-74.421,8.587
			c-6.874,0.823-9.001,6.072-5.309,11.834c2.465,3.842,6.223,3.738,10.044,3.641c24.986-0.648,49.91-2.602,74.697-5.509
			c50.437-5.923,100.724-13.003,150.666-22.323c15.392-2.872,30.723-6.067,46.112-8.968c8.111-1.529,8.533-7.178,8.278-13.785
			c-0.266-6.925-4.826-6.674-9.686-6.813c-15.401-0.444-30.797-1.056-46.196-1.601c-19.81-0.703-39.619-1.402-59.429-2.104
			c24.005-3.025,48.015-4.898,72.026-6.747c11.881-0.913,23.768-1.755,35.649-2.669c3.854-0.297,7.017-1.873,7.022-6.169
			c0.008-3.112,2.106-7.062-2.563-9.06c-11.776-5.036-12.859-15.938-13.107-26.346c-0.348-14.461,13.368-24.979,25.373-20.608
			c8.55,3.109,10.58,9.76,9.809,18.749C363.482,443.34,358.932,430.222,349.539,429.645z M230.216,480.595
			c-10.146,2.408-14.467,0.262-20.287-9.799c-1.374-2.372-1.994-5.381-5.267-7.003c-1.748,2.657-0.916,4.569-0.246,6.488
			c3.217,9.223,1.929,11.232-8.092,11.154c-4.37-0.034-9.478,1.938-12.824-3.003c-0.805-1.186-1.978-1.17-2.926-0.244
			c-4.846,4.716-9.537,4.721-14.445-0.016c-1.34-1.294-2.519,0.545-3.746,1.138c-8.693,4.204-14.345,2.807-17.395-4.237
			c-3.58-8.272,0.071-16.88,8.466-19.792c1.913-0.664,3.894-1.291,5.891-1.516c2.926-0.325,5.225-1.087,4.911-4.615
			c-0.278-3.129,0.065-7.007-3.512-8.237c-3.099-1.067-4.072,2.429-5.684,4.335c-1.918,2.27-3.515,6.851-7.171,4.038
			c-3.723-2.862-1.792-7.229,0.993-9.931c5.688-5.521,12.451-8.496,20.595-5.878c8.149,2.62,9.811,8.979,9.637,16.559
			c-0.132,5.784-0.892,11.729,1.535,17.219c0.733,1.658,2.722,3.815,4.197,3.864c2.698,0.092,2.254-2.812,2.276-4.696
			c0.132-10.756,0.175-21.515,0.188-32.271c0.001-1.434,0.204-3.58-0.602-4.191c-10.183-7.733-0.802-9.129,3.825-11.876
			c1.968-1.167,4.209-1.959,6.416-2.626c4.219-1.271,6.604-0.273,6.347,4.857c-0.334,6.672-0.261,13.372-0.138,20.057
			c0.039,2.074-1.042,5.354,2.254,5.654c2.915,0.268,5.123-1.985,4.664-5.021c-0.641-4.238,0.601-6.566,4.823-7.666
			c4.522-1.176,8.9-0.655,12.506,1.876c2.981,2.097,2.649,5.321-1.019,6.74c-8.55,3.31-7.834,8.321-3.424,14.656
			c3.454,4.961,5.732,10.592,10.429,14.876C237.823,475.528,236.259,479.16,230.216,480.595z M272.204,478.819
			c-2.819,2.926-6.486,4.192-10.182,1.698c-2.427-1.638-3.82-3.294-7.388-1.221c-8.158,4.746-13.726,2.863-16.986-4.618
			c-3.192-7.33,0.037-16.073,7.154-18.938c2.127-0.854,4.479-1.146,6.703-1.777c5.264-1.492,7.381-8.924,3.468-12.519
			c-3.175-2.917-4.584,0.39-6.013,2.229c-2.081,2.676-3.296,6.318-7.452,6.378c-1.694,0.024-2.497-1.639-2.673-3.011
			c-0.587-4.591,1.904-7.754,5.481-10.087c6.358-4.146,13.083-6.389,20.391-2.44c8.269,4.469,7.012,12.494,7.188,19.938
			c0.289,5.352-0.515,10.666,3.494,15.518C278.173,473.341,274.509,476.426,272.204,478.819z M308.61,478.989
			c-6.003,3.508-11.666,2.401-18.238,0.481c-10.709-3.127-11.402-9.576-10.171-18.821c1.028-7.717,0.312-15.673,0.234-23.522
			c-0.021-2.015-0.044-4.285-0.938-5.979c-1.656-3.131-5.845-5.734-2.302-9.715c3.845-4.322,9.281-5.74,14.845-6.397
			c4.031-0.479,3.872,2.437,3.872,5.126c0,5.513,0,11.027,0,17.291c16.234-8.121,23.824-2.809,24.201,15.234
			C320.339,463.451,318.823,473.019,308.61,478.989z"/>
	</g>
	<path d="M164.285,466.044c-0.132,2.294-0.036,5.054-3.275,4.882c-2.284-0.123-3.337-2.257-3.112-4.401
		c0.272-2.582,1.12-5.644,4.221-5.458C164.352,461.197,164.399,463.97,164.285,466.044z"/>
	<path d="M305.799,460.748c-0.172,2.556-0.106,3.738-0.354,4.852c-0.74,3.323-0.976,7.806-5.439,7.593
		c-4.257-0.201-3.498-4.702-3.759-7.608c-0.406-4.575-0.388-9.21-0.199-13.807c0.077-1.934,0.709-4.302,3.063-4.717
		c2.896-0.505,4.029,1.974,4.765,4.072C305.105,454.662,306.073,458.317,305.799,460.748z"/>
	<path d="M257.02,466.188c-0.346,1.968,0.104,4.932-3.217,4.802c-2.316-0.089-3.277-2.245-3.126-4.368
		c0.19-2.641,1.109-5.637,4.151-5.545C257.14,461.146,257.067,463.962,257.02,466.188z"/>
</g>
</svg>
