<?xml version="1.0" encoding="utf-8"?>
<!-- Generator: Adobe Illustrator 16.0.0, SVG Export Plug-In . SVG Version: 6.00 Build 0)  -->
<!DOCTYPE svg PUBLIC "-//W3C//DTD SVG 1.1//EN" "http://www.w3.org/Graphics/SVG/1.1/DTD/svg11.dtd">
<svg version="1.1" id="Layer_1" xmlns="http://www.w3.org/2000/svg" xmlns:xlink="http://www.w3.org/1999/xlink" x="0px" y="0px"
	 width="285.314px" height="256.732px" viewBox="5.001 27.6 285.314 256.732" enable-background="new 5.001 27.6 285.314 256.732"
	 xml:space="preserve">
<g>
	<path d="M232.492,109.432l0.566-0.545l0.448-2.827l-3.089-0.055l-0.676,1.712c-1.12,0.537-2.229,0.517-3.916,1.598
		c-1.666-0.029-2.776-0.048-3.867-1.178c-0.482-0.008-0.574-0.958-0.938-2.296l-17.506-0.305l-0.246,14.081
		c-0.09,5.056,0.738,13.698-7.269,13.64c0.125,0.703,0.362,1.56,0.479,2.209c3.877,0.623,7.744,1.802,11.623,2.425
		c3.877,0.624,8.291,2.367,12.146,4.1c2.757,1.16,5.517,2.319,7.719,3.469c2.198,1.148,4.401,2.299,7.157,3.457
		c0.453,0.283,1.146,0.658,1.631,0.942c1.143-0.735,2.462-1.336,3.484-2.151l0.447-25.859c-0.217,0.16-0.362,0.353-0.654,0.492
		c-0.545-0.565-0.545-0.565-1.104-0.575c-0.557-0.01-0.557-0.01-1.102-0.575l-0.535-1.12c0.01-0.556,1.131-1.091,2.805-1.618
		c0.217,0.004,0.428,0.304,0.644,0.443l0.106-6.277c-1.109,0.852-2.584,1.296-4.551,0.77
		C234.646,113.358,233.555,112.228,232.492,109.432z M241.042,155.6l-19.476,0.683c3.896-1.179,7.896-2.255,11.264-3.992
		c-4.529-1.783-9.24-3.339-14.344-4.216c-7.2-1.238-14.399-2.475-21.053-3.146c-0.615,3.321-0.672,6.653-1.287,9.979
		c-0.018,0.808-0.274,1.531-0.443,2.279l-2.426,0.086c0.295-1.521,0.66-3.016,0.688-4.625c0.076-4.442,0.125-7.221-0.422-7.787
		c-11.613,0.262-22.842,1.562-34.04,3.709c0.206,0.211,0.349,0.438,0.562,0.645c6.053,5.91,17.148,9.009,29.197,10.095l1.34,38.312
		c0.399,0.094,0.807,0.17,1.209,0.355l2.957-7.041l-0.021-0.533l3.508-6.523l-3.485,7.061c0.035,1.064,0.058,1.601,0.604,2.111
		l-4.662,7.729l0.175,4.998c0.713-0.227,1.383-0.354,2.233-0.905c1.562-1.121,2.589-2.226,3.616-3.328l-5.782,6.201l0.125,3.586
		l26.332-0.92l-0.7-20.062c-0.189-5.436,0.961-8.404,6.25-8.729l0.896,25.685c3.229-5.089,6.136-10.242,8.289-15.535
		C237.04,180.254,239.941,168.24,241.042,155.6z M226.792,252.248c-1.122,0.238-2.254,0.213-3.379,0.402
		c-0.521,0.697-1.073,1.385-1.942,1.973l0.737,21.178l45.276-1.582l-0.737-21.178c-4.556-2.629-4.293-7.104-4.45-11.561
		l-0.281-8.121c-3.334,2.928-6.729,5.812-10.51,8.42C243.68,246.857,235.797,250.334,226.792,252.248z M51.63,258.613
		c-7.662,0.268-7.541-8.246-7.571-9.082l-1.887-54.055c-0.029-0.836-0.739-9.183,6.924-9.449c7.663-0.271,7.536,8.104,7.566,8.938
		l1.887,54.06C58.579,249.861,59.293,258.344,51.63,258.613z M77.137,279.775c12.749-3.558,19.227-14.5,18.552-33.865l-0.21-5.988
		c-4.734-4.73-9.236-9.807-13.226-15.596c-5.074-7.828-8.552-15.709-10.468-24.713c-1.915-9.006-2.232-18.064-0.416-27.201
		l-6.507-2.973l-5.838-8.996c-3.444-0.232-7.022-0.324-10.827-0.189c-26.331,0.918-44.185,8.936-43.153,38.471L6.8,249.02
		c1.009,28.888,13.21,35.847,38.616,35.281C54.047,283.896,77.137,279.775,77.137,279.775z M157.873,279.531
		c5.516-1.301,10.245-2.498,14.754-5.307c-15.699-1.4-30.953-5.068-45.968-10.558c-8.745-3.19-16.797-7.733-24.307-13.174
		c1.14,8.729,3.795,16.098,11.775,22.614c1.826,1.484,3.399,2.08,6.19,2.746C120.317,275.859,144.693,279.895,157.873,279.531z
		 M137.105,192.246c-0.155-4.459-0.73-8.9,3.631-11.844l-0.74-21.176l-9.034,0.312c-1.143,0.137-2.231,0.256-3.388,0.117
		l-5.228,0.184c-0.288,0.521-0.58,0.938-0.864,1.562c-0.496,1.084-0.459,2.148-0.955,3.232l7.041,2.957l0.533-0.02l6.525,3.508
		l-7.058-3.488c-1.067,0.037-1.598,0.059-2.113,0.605l-12.538-7.564c-1.047,0.568-0.973,2.701,0.719,5.312
		c1.121,1.561,2.225,2.588,3.328,3.619l-8.273-7.715c-1.618-0.479-2.684-0.439-3.179,0.645c-1.029,1.104-2.077,1.674-3.124,2.244
		c-1.067,0.037-2.131,0.076-2.684-0.439l-3.713,0.664l-1.154-0.682l0.618,17.703c2.668,1.541,3.615,3.744,4.031,6.174
		c8.771,7.203,17.829,12.982,27.251,16.818c3.594,1.524,7.254,2.797,10.948,3.955L137.105,192.246z M78.312,172.707
		c0.019,0.533-0.515,0.551-1.029,1.105c-0.551-0.519-0.551-0.519-1.084-0.496c-0.534,0.018-1.067,0.037-1.619-0.479
		c-2.88,9.174-3.079,18.783-0.611,28.304c2.466,9.521,6.513,18.448,12.655,26.237c2.774,3.662,5.703,7.035,8.768,10.16
		l-1.464-41.918c-0.36-10.341-2.954-17.754-7.163-23.156c-0.333-0.381-0.7-0.696-1.03-1.084c-0.551-0.514-1.617-0.478-2.131,0.074
		c-1.066,0.039-2.131,0.073-3.197,0.11c-0.496,1.086-0.477,1.617-0.496,1.086c-0.02-0.532-0.551-0.518-1.085-0.496
		C78.292,172.176,77.76,172.193,78.312,172.707z M73.856,141.315c-0.985-7.237-0.85-15.013-0.158-22.777
		c0.245-2.908,1.06-5.65,1.796-8.414l-20.975-0.366l-0.583,33.388c6.632,5.45,14.477,8.846,22.726,10.965
		C75.45,149.784,74.429,145.528,73.856,141.315z M144.066,70.808l0.513-29.323c-13.911-9.972-28.805-13.571-45.644-13.865
		c-11.612-0.203-23.687,1.039-32.07,7.136c-10.295,7.517-12.59,14.157-13.403,27.501l-0.048,2.758
		c-0.392,22.427,8.797,30.197,25.438,35.783c0.833-1.817,1.492-3.709,2.473-5.457c4.567-7.142,10.784-13.144,18.625-16.895
		c2.468-1.244,5.004-2.268,7.572-3.159c-0.556-0.158-1.18-0.347-1.715-0.5c-3.177-0.926-8.664-2.766-10.8-5.126
		c-1.998-2.067-2.245-4.541-2.201-7.008c0.081-4.645,2.757-8.229,7.693-8.142c7.548,0.132,7.559,7.828,7.463,13.345l-0.042,2.322
		L144.066,70.808z M136.748,102.419c-0.585,1.656-2.27,2.738-4.491,2.699c-0.556-0.008-1.101-0.574-1.647-1.14l-0.497-3.342
		l0.575-1.101c0,0,0.565-0.545,1.685-1.082l1.667,0.029L136.748,102.419z M122.927,130.508c-1.13,1.091-1.694,1.637-1.139,1.646
		c-1.11-0.019-1.657-0.584-1.638-1.695l0.566-0.546l0.564-0.545c0.546,0.565,0.546,0.565,1.103,0.575
		C122.381,129.942,122.381,129.942,122.927,130.508z M92.804,137.759c-0.575,1.101-1.695,1.637-2.25,1.627
		c-0.545-0.565-0.545-0.565-1.101-0.575c-0.556-0.009-0.546-0.564-1.091-1.13l0.02-1.111c0.565-0.545,1.685-1.081,3.351-1.052
		C92.288,135.527,92.833,136.093,92.804,137.759z M87.728,142.114l2.727,2.825c-0.039,2.222-4.755,4.703-5.876,5.238
		c-1.12,0.536-3.332-0.06-6.099-0.661c0.01-0.556,0.01-0.556-0.545-0.566c-0.555-0.009-0.545-0.564-0.537-1.119l0.011-0.555
		c1.12-0.537,6.394-3.009,6.958-3.555C84.387,142.61,86.064,142.084,87.728,142.114z M147.195,116.169l0.011-0.582
		c0.101-5.806-0.666-11.772-2.604-17.179c-1.65-5.256-4.926-8.944-9.374-12.071c-6.441-4.458-16.029-7.625-24.423-10.093
		c-4.828,1.264-9.474,2.992-13.69,5.487c-7.295,4.316-12.965,10.882-16.998,19.145c-0.048,0.106-0.073,0.222-0.121,0.329
		c2.958,0.955,6.073,1.873,9.475,2.776c10.696,2.801,18.663,3.957,18.439,16.731c-0.079,4.5-2.489,9.54-7.715,9.449
		c-2.904-0.051-5.634-1.696-6.897-4.187c-1.262-2.636-1.02-8.15-0.891-15.553l-15.639-0.272c-2.55,9.046-3.231,18.805-1.773,29.522
		c0.7,5,1.833,9.875,3.219,14.754c6.775,1.593,13.763,2.457,20.639,2.576c5.215,0.092,9.792-0.265,14.012-0.86
		c5.539-4.742,11.563-8.458,17.592-11.612c3.443-1.647,7.059-2.932,10.648-4.272c2.627-4.2,4.265-9.056,5.166-14.382
		c-2.155-0.615-3.229-2.278-3.172-5.566l2.825-2.729l1.144,0.184C147.091,117.217,147.186,116.719,147.195,116.169z
		 M150.264,160.396c-1.066,0.037-1.599,0.057-2.17-0.99c0,0-0.137-0.234-0.271-0.455l-1.555,0.055l0.738,21.178
		c4.834,2.621,4.572,7.092,4.866,11.545l0.729,20.859c8.438,1.473,17.149,2.09,26.227,1.771l-1.543,1.651
		c-5.863,0.205-11.742-0.12-18.176-0.965c-2.328-0.274-4.365-0.688-6.459-1.065l1.127,32.223c0.082,2.369-0.262,8.518-7.088,8.756
		c-6.827,0.238-7.599-5.871-7.68-8.24l-1.275-36.525c-3.642-1.1-7.281-2.146-10.935-3.623c-9.209-3.944-17.922-8.979-25.057-14.598
		c-0.672-0.539-1.286-1.147-1.952-1.697c0.066,1.072,0.081,2.17,0.118,3.271l1.688,48.342c0.116,2.035,0.324,3.893,0.506,5.795
		c5.535,3.826,11.409,7.074,17.917,9.285c15.659,5.322,32.273,7.41,48.758,5.77c3.712-0.664,7.425-1.325,10.604-1.971
		c1.817-0.367,3.827-1.104,5.734-1.727c2.232-6.07,2.677-12.617,2.578-20.156l-0.824-23.598c-1.773,0.182-3.544,0.521-5.321,0.58
		c0.532-0.021,1.048-0.568,1.562-1.121l-0.529,0.021c1.413-0.13,2.838-0.447,4.252-0.621l-0.822-23.605
		c-0.152-4.457-0.05-9.549,2.211-11.559l-0.293-8.386l-2.609,0.316c0,0-0.516,0.553-1.025,1.104
		c0.018,0.531,0.586,1.578,1.139,2.094c-1.654-1.541-3.271-2.021-4.871-1.963c-0.533,0.019-1.062,0.037-1.045,0.568
		c0.021,0.533-0.516,0.553-1.049,0.568c-0.533,0.021-1.617-0.479-2.721-1.508l-3.18,0.646c-0.059-1.6-0.606-2.113-2.228-2.59
		c-1.599,0.055-2.686-0.439-3.231-0.955c0.515-0.553,0.496-1.084-0.588-1.58c0,0-1.084-0.496-1.64-1.012l-1.748-4.207l0.359-3.682
		l-14.756,0.52C149.064,159.365,149.426,159.814,150.264,160.396z M165.73,115.488c0,0,0,0-0.015,0.555l-6.825,9.324l-4.988-0.643
		l-3.254-4.501l0.576-1.101c0.562-0.546,1.139-1.647,1.705-2.192l10.053-3.158c0.555,0.01,0.555,0.01,1.102,0.575
		c0,0,0.555,0.01,1.109,0.02l-0.008,0.555C165.175,115.478,165.175,115.478,165.73,115.488z M172.637,101.722
		c-6.584-6.294-13.75-11.983-21.762-16.463l-0.473,27.046c-0.153,8.775-0.438,17.294,2.157,24.98c2.07-0.411,4.01-1.099,6.147-1.366
		c11.69-1.463,22.808-1.824,33.896-0.521c-0.24-1.32-0.49-2.488-0.795-3.5c-1.748-1.347-2.402-3.539-2.63-5.938
		c-0.096-0.221-0.213-0.384-0.288-0.625C185.165,115.827,179.749,107.956,172.637,101.722z M241.436,79.625l0.604-34.549
		c-12.339-8.492-27.937-13.411-42.733-14.25c-14.646-0.837-28.494,1.971-37.035,8.792c-8.215,6.542-10.34,15.84-10.879,25.636
		c3.69-0.398,6.379,0.196,7.941,2.907c0.525,1.676,1.053,3.352-0.087,4.998c-0.039,2.222-1.179,3.868-2.299,4.403
		c-1.677,0.526-2.786,0.507-4.452,0.479c-0.643-0.011-0.984-0.312-1.489-0.453l-0.01,0.599c4.28,1.763,8.489,3.873,12.487,6.712
		c9.881,6.838,18.062,15.313,23.99,25.97c0.598-0.723,1.168-1.251,1.754-1.876l0.658-37.672c0.09-5.081-0.775-13.809,7.354-13.667
		s6.962,8.834,6.873,13.916l-0.131,7.403L241.436,79.625z M284.143,198.486c4.877-14.344,6.885-29.488,5.949-44.603l-47.662,1.666
		c-0.133,1.316-0.025,2.484-0.205,3.849c-0.824,6.965-2.218,12.883-3.647,17.733c-1.435,4.854-2.861,9.705-4.826,14.574
		c-2.753,6.426-6.164,12.379-9.808,17.951l1.154,33.116c0.103,2.82,0.229,5.593-0.688,8.021c1.305-0.236,2.604-0.4,3.905-0.738
		c9.521-2.467,18.447-6.514,26.24-12.656c2.646-2.002,5.014-4.146,7.379-6.301l-1.771-50.785c5.298-0.045,6.653,2.836,6.845,8.271
		l0.7,20.061l12.177-0.424C281.496,205.096,282.984,201.895,284.143,198.486z"/>
</g>
</svg>
