<?xml version="1.0" encoding="utf-8"?>
<!DOCTYPE svg PUBLIC "-//W3C//DTD SVG 1.1//EN" "http://www.w3.org/Graphics/SVG/1.1/DTD/svg11.dtd">
<svg version="1.1" id="Layer_1" xmlns="http://www.w3.org/2000/svg" xmlns:xlink="http://www.w3.org/1999/xlink" x="0px" y="0px"
	 width="602.475px" height="602.475px" viewBox="0 0 602.475 602.475" enable-background="new 0 0 602.475 602.475"
	 xml:space="preserve">
<path d="M602.475,301.231c0,166.369-134.875,301.244-301.237,301.244C134.869,602.475,0,467.6,0,301.231
	C0,134.869,134.869,0,301.237,0C467.6,0,602.475,134.869,602.475,301.231z M330.831,479.174c0,62.45-70.965,59.166-70.965,59.166
	c-22.532,0.536-46.634-10.671-46.634-10.671C122.654,492.446,58.445,404.344,58.445,301.28
	c0-134.094,108.692-242.812,242.812-242.812c134.1,0,242.785,108.717,242.785,242.812c0,118.617-85.024,217.341-197.387,238.585
	c0,0-3.968,7.497-11.488,13.015c-7.496,5.494-13.527,8.926-18.729,11.232c-5.189,2.296-8.327,2.931-8.327,2.931
	c143.604-3.663,258.907-121.237,258.907-265.763c0-146.773-119.015-265.825-265.763-265.825
	c-146.816,0-265.818,119.052-265.818,265.825c0,119.314,78.566,220.271,186.751,253.896c25.023,7.767,38.812,6.521,38.812,6.521
	c62.017,0,89.305-37.25,89.305-65.101c0,0,1.513-22.487-18.583-48.407c-12.796-16.496-15.104-24.773-15.104-24.773l-4.98,5.628
	c0,0,5.384,11.465,10.206,21.33C326.059,459.042,330.831,471.176,330.831,479.174 M301.256,179.835l-11.05,101.196
	c0,0-1.953,11.08-1.953,20.25c0,9.2,6.396,18.649,14.65,18.649c8.267,0,14.046-9.022,14.046-18.649
	c0-5.482-1.929-17.459-1.929-17.459L301.256,179.835 M402.134,307.312l-6.287-19.828l-6.423,19.828h-21.098l17.239,12.838
	l-6.703,20.291l16.983-12.502l17.02,12.502l-6.617-20.291l17.093-12.838H402.134 M217.922,307.312l-6.239-19.828l-6.416,19.828
	h-21.109l17.202,12.838l-6.647,20.291l16.971-12.502l17.032,12.502l-6.605-20.291l17.025-12.838H217.922 M337.815,364.858
	c24.578,57.53,62.743,85.71,95.049,85.71c32.403,0,52.599-24.896,52.599-52.548c0-27.654-28.229-57.25-28.229-57.25l-6.323,4.713
	c9.938,11.317,14.603,28.766,14.603,32.636c0,3.883,0.293,34.308-39.266,34.308c-48.935,0-78.799-53.414-78.799-53.414
	L337.815,364.858 M264.707,364.858l-9.669-5.848c0,0-29.87,53.415-78.811,53.415c-39.569,0-39.289-30.425-39.289-34.308
	c0-3.87,4.726-21.316,14.682-32.635l-6.361-4.713c0,0-28.185,29.595-28.185,57.248s20.17,52.549,52.512,52.549
	C201.964,450.568,240.13,422.389,264.707,364.858 M241.864,259.409c-48.158-39.912-95.043-47.512-123.782-32.727
	c-28.795,14.847-35.333,46.224-22.686,70.795c12.673,24.602,51.285,38.006,51.285,38.006l3.479-7.08
	c-14.005-5.52-26.195-18.932-27.94-22.361c-1.758-3.398-15.939-30.346,19.248-48.477c43.495-22.373,94.493,11.403,94.493,11.403
	L241.864,259.409 M360.61,259.409l5.936,9.56c0,0,50.973-33.776,94.499-11.403c35.161,18.131,20.975,45.078,19.191,48.477
	c-1.758,3.431-13.919,16.843-27.959,22.36l3.479,7.082c0,0,38.653-13.405,51.303-38.007c12.661-24.571,6.057-55.949-22.673-70.795
	C455.61,211.896,408.812,219.497,360.61,259.409 M248.207,254.397l7.624-8.29c0,0-46.114-40.125-36.183-88.053
	c8.059-38.697,37.781-32.245,41.572-31.463c3.785,0.799,19.932,8.937,28.984,20.987l5.891-5.287c0,0-23.246-33.593-50.314-39.283
	c-27.073-5.628-55.503,9.121-62.132,40.761C177.07,175.495,196.897,218.618,248.207,254.397 M354.285,254.397
	c51.278-35.779,71.131-78.902,64.562-110.627c-6.568-31.64-35.077-46.389-62.157-40.761c-27.043,5.69-50.271,39.283-50.271,39.283
	l5.896,5.287c9.053-12.05,25.156-20.188,28.93-20.987c3.785-0.782,33.538-7.234,41.598,31.463
	c9.963,47.927-36.249,88.053-36.249,88.053L354.285,254.397 M302.573,347.278c0,0,2.448,3.871,2.448,7.582
	c0,3.613-4.92,10.438-7.105,13.674c-2.223,3.15-9.022,13.188-9.022,13.188s-9.011,13.661-9.011,26.848s6.77,26.628,15.811,34.454
	c9.065,7.777,17.667,15.385,17.667,15.385l2.612-2.955c0,0-14.718-19.632-14.718-46.261c0,0-0.776-12.637,9.376-32.893
	c3.169-6.312,3.169-11.708,3.169-13.148c0-1.467-1.99-12.697-8.333-18.338L302.573,347.278"/>
</svg>
