<?xml version="1.0" encoding="utf-8"?>
<!DOCTYPE svg PUBLIC "-//W3C//DTD SVG 1.1//EN" "http://www.w3.org/Graphics/SVG/1.1/DTD/svg11.dtd">
<svg version="1.1" id="Layer_1" xmlns="http://www.w3.org/2000/svg" xmlns:xlink="http://www.w3.org/1999/xlink" x="0px" y="0px"
	 width="380.524px" height="661.811px" viewBox="0 0 380.524 661.811" enable-background="new 0 0 380.524 661.811"
	 xml:space="preserve">
<path d="M324.406,598.985h-15.442v62.826h41.826v-13.765h-26.384V598.985z M298.024,598.985h-42.707v62.826h42.707v-13.765H270.76
	v-11.031h23.293V623.25H270.76v-10.5h27.265V598.985z M211.199,598.985h-15.266v62.826h15.266v-19.679l5.294-6.087l14.472,25.766
	h18.002l-22.149-37.413l21.44-25.413h-18.883l-18.176,22.236V598.985z M320.231,412.592l3.834,4.386
	c1.619-0.427,2.751-1.3,3.18-2.545c-1.908,0.253-3.536-0.309-5.978-1.15C320.94,412.947,320.579,412.827,320.231,412.592z
	 M320.812,536.094l1.771,0.019c0.041-0.102,0.083-0.108,0.139-0.271c0,0,0,0,0.814,0.281l-0.953-0.01
	c-0.17,0.408-0.305,0.486-0.958,0.263L320.812,536.094z M255.877,469.736v-41.817h6.45c13.86,0,18.162,7.169,18.162,20.312
	c0,14.337-4.302,21.505-18.162,21.505H255.877z M305.35,425.099l2.188-1.067c0.535,1.097,0.535,1.097,1.629,0.562
	c0.814,0.282,0.535,1.097,1.067,2.191l-0.279,0.814l-1.911,0.251l-2.441-0.842L305.35,425.099z M310.402,436.862l1.403-4.07
	c0.814,0.281,2.441,0.841,2.975,1.938c0.816,0.28,2.443,0.842,3.538,0.309c0.814,0.28,1.909-0.253,2.19-1.067
	c1.907-0.253,3.818-0.506,4.913-1.038c1.906-0.253,3.817-0.504,5.725-0.757c3.538,0.309,5.7,1.965,6.483,4.969
	c-1.095,0.532-1.095,0.532-1.374,1.347c-0.28,0.815-1.095,0.533-1.909,0.253c-1.095,0.533-2.724-0.028-3.256-1.123
	c-0.533-1.095-2.162-1.656-3.257-1.123c-1.095,0.532-3.003,0.785-5.725,0.758c-2.724-0.028-4.912,1.039-6.009,1.571L310.402,436.862
	z M324.128,426.111l-0.277,0.814c-1.097,0.532-3.006,0.785-5.194,1.853c-0.814-0.281-1.629-0.562-3.536-0.309
	c0,0-1.629-0.562-2.164-1.658c0.029-2.722,1.123-3.254,3.034-3.507c2.442,0.842,3.536,0.309,4.913-1.038
	C322.53,422.828,323.877,424.202,324.128,426.111z M322.358,465.58c1.096-0.535,3.005-0.785,4.1-1.32
	c1.629,0.562,3.536,0.309,4.63-0.224c4.354,0.591,7.607,1.712,8.957,3.088l-1.656,2.162c-3.285,1.601-6.009,1.571-8.73,1.544
	c-0.814-0.281-2.441-0.844-3.536-0.311c-1.629-0.562-2.977-1.937-3.512-3.03L322.358,465.58z M185.144,554.091v36.32h77.661v-36.32
	c-7.645-4.779-6.928-12.428-6.928-20.074v-23.418h2.629c17.443,0.477,19.114,8.602,19.116,24.853
	c-0.717,34.171,0.956,43.73,3.584,54.96h68.582v-36.32c-7.885-3.107-7.885-13.144-7.885-20.074v-11.709
	c0-5.735-0.576-10.47-1.736-14.525l-2.999-6.727c-4.051-6.378-10.944-10.28-22.029-12.919v-0.122
	c-21.202-3.47-42.97-4.016-65.705-1.043l2.51-3.265c10.587-1.385,21.304-1.808,33.105-1.391c12.764,0.288,23.73,1.791,32.77,3.546
	c0.524,0.102,1.049,0.218,1.573,0.319c3.383-1.239,6.49-2.692,9.131-4.504l-3.523-7.903c1.094-0.532,2.188-1.065,3.001-0.785
	c1.911-0.253,3.538,0.309,4.886,1.685c1.003,0.347,1.817,0.598,2.619,0.811c3.997-4.796,6.523-10.642,8.099-17.077
	c-1.594-0.473-3.254-0.889-4.541-1.644l-0.28,0.814l0.027-2.722c0.877-0.427,3.132-0.876,5.752-0.935
	c0.314-1.88,0.615-3.771,0.789-5.729c-1.138-0.564-2.195-1.327-3.453-2.293c-0.842,2.444-3.032,3.51-6.568,3.2
	c-2.724-0.026-6.26-0.336-8.701-1.179c-3.259-1.124-7.076-0.618-10.359,0.982c-0.535-1.095-1.065-2.189-0.786-3.004l1.124-3.256
	c4.068,1.403,6.51,2.244,8.421,1.991c2.724,0.029,5.726-0.756,8.73-1.542c3.004-0.785,6.26,0.338,8.42,1.994l3.383-1.337
	c0.026-0.7,0.07-1.393,0.082-2.1l-21.577-24.674c-0.497,0.133-0.837,0.408-1.479,0.402c-1.909,0.253-3.818,0.506-5.165-0.871
	c-1.629-0.562-3.536-0.309-5.445-0.056c0.28-0.814,0.842-2.441,1.936-2.977c1.097-0.532,2.191-1.065,3.286-1.598
	c0.829-0.404,1.946-0.017,3.034,0.713l-3.006-3.437l1.907-0.253c1.629,0.562,2.724,0.029,3.285-1.601
	c1.348,1.377,2.975,1.938,5.418,2.78c1.348,1.376,2.694,2.75,4.042,4.127l1.32,4.098l2.469-1.88c2.803,2.27,5.514,4.805,8.23,7.318
	c-2.702-12.265-8.827-23.084-20.634-29.998c-13.86-8.366-33.692-8.126-49.466-8.126h-88.654v36.323
	c7.646,4.777,6.931,12.426,6.931,20.072l-0.002,56.766c0.371-0.166,0.698-0.373,1.074-0.535c8.411-3.057,16.822-6.114,25.359-8.21
	c8.538-2.096,17.075-4.19,25.737-5.324c-0.962,0.126-1.799,1.214-2.635,2.305l0.962-0.127c-16.769,3.146-33.317,8.196-50.498,15.119
	v32.007C192.072,541.666,192.79,549.312,185.144,554.091z M37.261,406.521c-0.565-0.563-1.13-1.129-0.565-2.259
	c0,0-0.565-1.13-1.129-1.693c-1.129-0.564-1.694-0.564-2.824,0.563c0,1.695-1.129,2.825-1.694,3.955l-12.939,6.678v8.18
	c0.412,0.257,0.564,0.604,0.929,0.879c10.261-3.553,20.143-8.078,29.518-14.043c5.083-3.389,10.166-7.342,15.248-12.424
	c0,0-0.565,0-1.13-0.566c0.565-0.563,0.566-1.129,0-1.693c-0.563,0-0.563,0-1.128,0.564c-2.259,3.954-5.648,6.212-9.602,7.907
	c-1.693-0.564-3.388-1.13-4.518-0.564c-1.128,0.564-2.259,0.564-3.953,1.128c0-0.563,0-1.128-0.564-1.693
	c-1.13-0.563-1.695,0-2.824,1.13C40.084,404.262,38.955,405.392,37.261,406.521z M85.83,427.417
	c-1.13,0.565-2.259,1.695-2.824,2.259c0,1.13-1.694,1.696-3.389,1.696l-2.823-2.823c0-2.26,0.564-3.389,1.694-3.955
	c1.129-0.563,3.388,0,6.212,0.566c0,0.563,0,0.563,0.565,0.563c0.564,0,0.564,0.565,0.565,1.13V427.417z M76.793,434.194
	c0.564,0.566,0.564,0.566,1.128,0.566c0.566,0,0.566,0.563,1.13,1.128l0.001,1.129c-0.565,0.566-1.695,1.13-3.389,1.13
	c-0.565,0-1.13-0.563-1.13-2.259C75.099,434.76,76.229,434.194,76.793,434.194z M46.861,443.795l-0.564,0.563l-0.566,0.566
	c-0.563-0.566-0.563-0.566-1.128-0.566c0,0,0,0-0.565-0.563c1.129-1.13,1.693-1.695,1.129-1.693
	C46.297,442.1,46.861,442.666,46.861,443.795z M37.261,474.292l-0.565,1.13c0,0-0.564,0.563-1.694,1.129h-1.694l-2.824-3.952
	c0.565-1.696,2.259-2.825,4.519-2.825c0.565,0,1.13,0.565,1.694,1.129L37.261,474.292z M89.798,465.675v-36.563h1.739
	c-1.857-9.078-4.658-17.91-8.531-27.107H82.44l-5.647,0.564c-0.565,0.563-0.565,0.563-0.565,1.13c0,0,0,0-0.564,0.565
	c-0.565-1.695-2.26-2.825-6.212-3.389c-4.519,6.212-9.601,11.294-15.248,16.376c-5.648,5.083-11.86,9.037-18.072,12.424
	c-3.65,1.826-7.484,3.286-11.306,4.766c0.186,2.467,0.212,4.999,0.212,7.576v55.468c1.644,0.556,3.312,1.132,4.88,1.654
	c5.083,1.695,10.73,2.259,16.378,1.695c9.035-0.565,17.506-3.389,24.848-7.907c7.342-4.517,12.99-11.294,16.942-19.766
	c1.043-2.436,1.85-4.952,2.602-7.486H89.798z M74.164,334.791c0.392,7.462,1.482,14.886-5.734,19.941l0.967,18.471
	c0.216-0.071,0.464,0.153,0.62,0c1.129,0,2.258,0,3.388,0c0.565-1.13,0.565-1.696,0.565-1.13c0,0.563,0.565,0.563,1.13,0.563
	s1.129,0,0.565-0.563c0-0.566,0.564-0.566,1.129-1.13c0.564,0.563,0.564,0.563,1.128,0.563c0.566,0,1.13,0,1.695,0.566
	c3.389-9.601,3.954-19.766,1.694-29.933c-1.583-7.122-4.377-13.792-7.818-20.166L74.164,334.791z M154.703,233.623l-0.05-6.666
	c-0.01,0.013-0.021,0.021-0.033,0.035c-1.416,1.497-2.833,2.993-4.251,4.49c0.885,0.802,1.606,1.764,2.211,2.839
	c0.025-0.022,0.021-0.047,0.046-0.07C153.339,234.052,153.769,233.697,154.703,233.623z M154.753,240.939l-0.021-3.099l-0.634,0.23
	C154.351,238.964,154.57,239.934,154.753,240.939z M155.114,233.556c-0.195-0.01-0.257,0.054-0.411,0.066l0.029,4.218l1.838-0.669
	c1.426-1.291,2.324-2.883,1.03-4.309C156.772,233.092,155.412,233.025,155.114,233.556z M158.206,220.628
	c-1.401,0.564-2.504,1.244-3.582,1.909l0.029,4.419c1.716-1.81,3.429-3.619,4.846-4.902L158.206,220.628z M156.469,264.009
	c0.402-0.56,0.746-1.325,1.31-1.706c-0.413-0.232-0.9-0.284-1.391-0.307C156.421,262.676,156.444,263.356,156.469,264.009z
	 M161.282,230.047l-1.955,0.993l0.462,1.658c0,0,0,0,0.829-0.232C161.216,231.405,161.514,230.874,161.282,230.047z M142.793,218.23
	c0.528,0.298,0.528,0.298,0.23,0.827c-0.829,0.232-1.957,0.995-3.847,0.628l1.495-2.651l2.421,0.665
	C142.793,218.23,142.793,218.23,142.793,218.23z M140.544,208.58c0.829-0.232,1.426-1.293,1.495-2.651
	c0.066-1.36,0.663-2.421,1.791-3.182l3.018-0.396c-0.232-0.829-0.164-2.188,0.964-2.949c1.129-0.763,2.786-1.225,3.847-0.628
	c1.128-0.761,1.426-1.292,1.793-3.182l0.98-0.498l-0.019-2.452c0.531,0.298,0.531,0.298,0.763,1.127
	c-0.298,0.531-0.298,0.531,0.232,0.829l-0.977,0.496l0.019,2.879c0.462-0.093,0.97-0.696,1.652-0.887
	c0.462,1.658,1.225,2.786,1.457,3.615c-0.829,0.23-1.658,0.462-1.959,0.993c-0.827,0.232-1.125,0.763-0.896,1.59
	c-0.072,0.128-0.143,0.255-0.213,0.381l0.04,5.551c1.316-1.208,2.639-2.39,3.886-3.839c0.232,0.829,0.993,1.957,1.223,2.786
	c-1.426,1.292-2.322,2.881-3.217,4.473c-0.456,0.804-1.12,1.667-1.851,2.489l0.01,1.428l2.234-0.9l3.683-2.816
	c1.553,7.163,2.278,14.557,2.172,22.182c0.425,7.924-0.209,15.251-1.374,22.28l-2.189,0.164l1.223,2.786
	c-0.066,1.36-0.133,2.72-0.201,4.08c-0.897,1.589-1.495,2.651-1.561,4.011c-0.819-0.462-1.455-0.276-1.998,0.25
	c-0.033,11.123-2.661,17.363-16.656,18.097l-5.829,0.305l-2.599-49.565c-0.087,0.033-0.197,0.102-0.282,0.125l-0.763-1.127
	c-0.23-0.829-0.162-2.189,0.436-3.25c0.145-0.04,0.242-0.197,0.373-0.28l-0.137-2.62c-0.199,0.201-0.149,0.541-0.402,0.713
	c-0.298,0.529-1.127,0.761-1.957,0.993l-10.538-33.361c-0.027,0.046-0.054,0.083-0.081,0.131c-0.23-0.827-0.993-1.957-0.926-3.314
	l1.007,3.184c0.868-1.542,1.737-3.057,2.541-3.281l0.597-1.062c0.53,0.298,1.061,0.597,1.061,0.597l0.694,2.487
	c-1.36-0.066-3.018,0.396-4.444,1.689c0.232,0.829,0.694,2.487,1.457,3.615c0.23,0.829,0.692,2.487,0.924,3.316
	c1.196-2.123,2.622-3.414,3.982-3.347c0.232,0.829-0.068,1.359-0.666,2.421c-1.127,0.761-1.725,1.822-2.852,2.583
	c0.232,0.829,0.232,0.829,0.232,0.829c0.528,0.3,0.528,0.3,0.76,1.129c0.462,1.656,0.927,3.314,1.919,5.273
	c0.462,1.656,0.927,3.314,1.389,4.972l3.845-0.626c-0.597,1.059-1.194,2.121-1.791,3.182c0.232,0.829-0.367,1.888-0.666,2.419
	l0.23,0.829c1.89,0.367,4.377-0.328,8.061-3.144l-0.232-0.829l2.487-0.694c0.23,0.829,0.462,1.658-0.135,2.719
	c-0.829,0.232-1.658,0.462-2.487,0.694c-1.127,0.763-1.725,1.822-2.622,3.414c-0.012,0.257-0.288,0.365-0.338,0.601l4.68-0.247
	c0.323-0.017,0.543,0.035,0.856,0.025c0.093-0.029,0.143-0.083,0.239-0.11l0.708,0.137c3.428-0.022,6.251,0.344,8.399,1.215
	c1.024-1.308,2.172-2.624,3.561-3.996c0.873-0.79,2.309-1.841,4.013-2.892l-0.042-5.984l-1.38,0.555
	c-1.426,1.293-2.322,2.883-3.219,4.473c-1.127,0.763-1.724,1.824-3.152,3.115c-1.426,1.292-2.852,2.585-5.041,2.749
	c-0.164-2.189,0.433-3.248,0.964-2.95c1.127-0.763,2.487-0.694,3.316-0.926l0.433-3.248c0.829-0.232,2.487-0.694,3.084-1.755
	c1.359,0.066,1.957-0.993,2.786-1.225c0.705-0.639,1.484-1.41,2.199-2.216l-0.042-5.909c-0.819,0.752-1.642,1.486-2.419,2.39
	c-1.725,1.822-4.51,3.047-6.998,3.741l-0.694-2.487c1.658-0.464,3.084-1.755,4.811-3.577c1.426-1.292,3.15-3.116,4.576-4.407
	c0.228-0.404,0.456-0.807,0.684-1.21l-0.042-5.692c-0.097,0.021-0.211,0.16-0.305,0.106c-1.127,0.763-1.428,1.293-2.257,1.523
	l-1.194,2.12c-1.89-0.365-2.786,1.225-2.622,3.414c-0.299,0.53-0.597,1.061-1.426,1.291c-0.829,0.232-1.428,1.293-2.487,0.694
	c-0.599,1.062-1.428,1.293-2.257,1.523c-1.426,1.293-2.023,2.353-2.918,3.944c-0.068,1.36-1.196,2.121-2.323,2.883
	c-1.428,1.292-2.786,1.225-3.615,1.455c-0.761-1.127-0.993-1.957-0.098-3.546c0.829-0.232,1.957-0.995,2.786-1.225l1.495-2.651
	C138.588,209.573,139.417,209.343,140.544,208.58z M98.744,199.698c-0.3,0.528-0.3,0.528-0.3,0.528
	c-0.264-0.149-0.309,0.087-0.415,0.116l-0.713,0.646l0.301-0.53c0.149-0.266,0.311-0.087,0.412-0.116L98.744,199.698z
	 M141.193,186.081l-81.378,4.263l1.857,35.442c7.706,4.274,7.396,11.771,7.788,19.233l3.776,72.046
	c0.052,0.083,0.117,0.147,0.168,0.228c5.083,8.471,8.472,16.942,10.166,26.543c1.694,9.6,1.694,19.202-0.565,28.801l6.777,3.389
	l6.777,11.295c-1.13-1.13-2.258-1.13-3.953,0.565l-0.565,6.776l1.694,2.824l-3.954-0.565c-0.565,0-1.13,0.565-0.565,1.695
	c0,1.693,0,2.823-0.565,3.389c-0.564,0.564-1.128,0-2.823-1.695c-0.565,0-1.13,0-1.694,0.564c0.564,1.695,1.694,2.825,1.694,3.954
	c1.128,1.693,1.128,2.823,1.694,4.519c2.463,6.898,4.354,13.351,5.583,19.766h0.515c17.206,0,19.117,5.735,19.117,19.596v6.214
	l58.785-0.002v-69.298h-25.486l-1.826-34.86c-7.706-4.274-7.397-11.771-7.912-21.565l22.151-1.161
	c51.066-2.676,62.422-26.887,60.43-64.893l-0.831-15.856c-0.27-5.13,1.322-37.247-22.445-53.537
	C181.052,183.757,158.214,185.187,141.193,186.081z M147.668,598.985h-13.502v62.826h15.442V630.22l20.118,31.591h13.501v-62.826
	h-15.442v31.59L147.668,598.985z M121.463,598.985h-15.442v62.826h15.442V598.985z M35.873,598.985H19.725l17.295,62.826h12.529
	l10.148-30.973l10.147,30.973h12.618l17.206-62.826H83.521l-8.206,33.178l-10.148-33.178H54.226l-10.147,33.178L35.873,598.985z
	 M125.66,573.645l1.926-0.253c0.126,0.964,0.126,0.964-0.711,2.053l-1.088-0.838C125.787,574.607,125.787,574.607,125.66,573.645z
	 M128.757,567.365c0,0-0.964,0.127-2.052-0.709c2.717-9.167,7.234-19.548,13.802-29.219l4.813-0.628
	C137.663,545.643,132.185,556.148,128.757,567.365z M18.109,554.089v36.322h153.414v-74.077h-5.41
	c-6.853,5.089-12.969,10.838-18.284,17.208l-0.962,0.126c-0.964,0.127-0.964,0.127-1.09-0.835c0,0,0,0-0.962,0.124
	c5.376-6.046,11.462-11.532,18-16.623h-50.077v6.69c-0.238,16.728,0,23.896-19.117,23.896h-3.824v-41.34h40.385v-39.906h-37.95
	c-1.31,4.543-3.024,8.956-5.274,13.135c-4.518,7.342-10.729,13.554-18.636,17.506c-10.73,5.648-22.591,7.907-34.45,7.342
	c-2.951-0.141-5.9-0.458-8.833-0.966l-0.001,31.325C25.039,541.666,25.756,549.312,18.109,554.089z M18.109,406.511v5.658
	c0.548,0,1.097,0,1.645,0l4.518-3.389c0.565-0.564,0-2.26-1.129-3.953c-1.13-0.565-1.695,0-2.823,0.564
	C20.319,405.947,19.22,406.495,18.109,406.511z M33.812,14.155l-3.953,2.824c-1.694-0.566-2.824-2.26-2.824-4.519
	c0-0.565,0.564-1.13,1.129-1.695l3.389-0.565l1.128,0.565c0,0,0.565,0.565,1.13,1.695V14.155z M14.61,26.579l-0.565,3.954
	c-0.564,0.564-1.694,1.13-3.388,1.694l-3.954-2.259c0.566,0,0-1.129-0.565-2.824c0.565-2.258,2.259-3.388,5.648-3.388L14.61,26.579z
	 M56.402,17.542c1.627-4.882,2.15-10.292,1.693-15.716L5.814,0L4.727,31.123c3.004,2.027,4.333,4.565,4.96,7.337l3.794-2.846
	l1.129,0.566c0.564,0.564,1.694,1.127,2.258,1.693l3.389,10.165c0,0.566,0,0.566-0.565,1.13c0,0,0,0.565,0,1.129h-0.565
	c-0.564,0-0.564,0-0.564,0.566c0,0,0,0-0.565,0l-7.827-5.526c-0.035,1.061-0.069,2.121-0.108,3.192L9.159,74.474
	c9.502-3.948,17.357-9.547,23.522-16.834c6.777-7.342,12.99-15.247,17.507-24.284C53.013,28.273,54.708,22.626,56.402,17.542z
	 M37.765,114.679c-1.13,1.129-2.824,2.259-5.648,2.825l-4.518-1.695c-0.564-1.129-0.564-2.259-1.694-3.953
	c0-1.693,0-2.823,1.13-3.953c0-0.566,1.129-0.566,2.824-1.13l0.564,1.13C33.247,108.467,36.07,110.726,37.765,114.679z
	 M25.905,118.634l0.565,0.564l3.953,0.563c1.694,1.132,2.824,2.825,2.824,5.084c-0.565,1.693-1.13,2.823-0.565,4.517
	c0.565,1.695,0,3.389-0.565,3.955l-9.036-5.648c-1.129-1.129-1.693-2.823-1.129-5.082C21.951,120.891,23.081,119.763,25.905,118.634
	z M16.869,126.539c0,0.564-0.564,1.129-1.129,1.693c-1.694,0-2.258-0.564-2.823-1.693c0.565-0.566,0.565-0.566,0.565-1.129
	c0-0.564,0-0.564,0.565-1.13l1.129-0.563C15.739,123.716,16.304,124.846,16.869,126.539z M146.829,36.085l1.088-31.123L81.37,2.638
	l-1.087,31.124c6.41,4.324,5.566,10.855,5.337,17.407l-0.657,18.837l-20.886-0.728l0.658-18.839c0.078-2.236,0.179-4.432,0.42-6.564
	c-1.223,0.313-2.448,0.462-3.671-0.353c-2.259-0.002-3.954-1.129-4.519-2.259c-0.564-1.696-0.565-2.825-0.565-4.519
	c0.001-1.695,0.566-2.823,1.13-3.954c0.564-0.564,1.694-1.128,2.824-1.128c1.13,0,2.259-0.566,3.388-1.13l0.565,0.564l5.083,3.954
	c0.003,0.024-0.005,0.038-0.002,0.06c0.626-0.556,1.057-1.186,1.885-1.663l1.087-31.123L60.412,1.907
	c0.45,3.873,0.694,7.77,0.508,11.683c-0.565,11.86-3.954,23.718-11.295,34.449c-6.777,10.167-15.248,18.638-25.979,24.85
	c2.824,2.259,5.083,4.519,5.648,6.212c-1.13,0.564-2.259,1.693-3.954,2.259c-1.693,1.13-3.953,1.13-5.647,0.563l-2.824-4.516
	l0.565-1.13c-2.646,1.588-5.759,2.643-8.467,3.704l-1.655,47.38c-0.138,3.965-0.242,7.864-1.637,11.241l0.463,0.926
	c-0.565,0.564-0.565,1.13,0,0.564c-0.152,0.153-0.339,0.34-0.565,0.566c-0.417,0.417-0.646,0.199-0.835,0
	c-0.927,1.384-2.157,2.651-3.965,3.695L0,166.51c0.729,0.626,1.457,1.274,2.186,1.822c2.824,1.693,5.083,3.953,7.342,6.212
	c1.694-0.566,2.259-1.695,2.259-4.519l4.518-3.953l3.954-15.249c0-0.564,0-1.129-0.565-1.693l6.777-3.955v-2.823l2.824-3.389
	l4.518-0.563c0.564,0.563,1.129,1.129,2.259,1.693c0,1.129,1.13,2.259,2.26,2.825c0.563,0.563,1.128,1.693,0.563,2.257
	c-0.563,1.129-0.563,2.259-1.128,3.389c1.128,1.695,0.565,2.825-1.695,1.695c-2.259,0-3.954,0-4.517,1.693
	c0,0.566,0,1.13,0.563,1.693c0.565,0,0.565,0.566,1.13,1.13l-2.259,1.13v5.082c0,0-0.565,0.566-2.258,1.13l1.666,14.432
	l35.838,1.252l1.086-31.124c-6.409-4.324-5.565-10.855-5.336-17.407l0.9-25.799l20.885,0.729L82.868,130
	c-0.229,6.552,0.156,13.127-6.539,16.992l-1.087,31.124l66.546,2.324l1.088-31.124c-6.409-4.324-5.567-10.855-5.339-17.407
	l2.752-78.832C140.52,46.525,140.134,39.951,146.829,36.085z M289.182,196.973c0,1.693-0.565,2.823-1.132,3.953
	c-0.563,0.563-1.693,1.129-2.822,1.129c-1.128,0-2.26,0.564-3.388,1.13l-0.565-0.566l-5.084-3.953c-0.564-3.953,0-6.776,2.824-8.471
	c1.694-0.564,3.39-1.13,5.085,0c2.257,0,3.95,1.129,4.517,2.259C289.182,194.147,289.182,195.277,289.182,196.973z M302.626,177.62
	l-41.83,2.19c14.557-7.171,23.699-20.752,24.554-45.2l1.453-41.579c-4.158,5.259-8.732,9.435-14.298,12.976
	c-6.212,3.955-13.552,6.778-21.459,7.907c-6.77,0.883-13.367,0.468-19.668-1.184l-0.792,22.634
	c-0.042,1.227,0.137,13.74-11.127,13.346c-11.261-0.394-10.21-12.863-10.168-14.09l1.171-33.51
	c-8.409-7.314-14.781-16.228-18.151-27.294c-2.259-6.214-2.823-12.989-2.259-19.202c0-6.212,1.695-12.99,5.082-19.202
	c2.825-3.954,6.778-7.906,10.732-11.86c3.953-3.952,9.035-5.082,14.117-4.517c1.13,0.565,2.26,1.129,3.39,1.694
	c1.129,1.129,1.129,2.259,0,2.823c-3.39,1.695-6.778,2.824-10.165,4.519c-3.389,1.695-6.777,3.388-9.601,5.647
	c-6.778,5.647-10.167,12.425-11.297,20.896c-1.127,8.471,0,16.377,3.39,23.718c3.415,7.686,8.624,14.082,14.863,19.832l1.503-42.99
	c0.043-1.229-0.144-13.537,11.12-13.144c11.259,0.394,10.218,12.658,10.173,13.888l-1.932,55.362
	c5.492,1.58,11.271,2.081,17.358,1.503c9.602-1.13,18.072-4.519,24.849-11.296c6.294-5.81,10.585-12.557,13.558-19.672l0.737-21.121
	c0.554-15.838-2.665-27.378-8.759-35.824c-0.342-0.483-0.722-0.949-1.074-1.424C267.273,9.832,248.28,4.982,224.509,4.152
	c-38.7-1.352-65.697,8.572-67.215,51.981l-2.581,73.917c-1.515,43.407,24.726,55.19,63.423,56.54
	c1.186,0.042,2.249-0.035,3.412-0.015l1.61,30.747c7.704,4.274,7.397,11.771,7.787,19.232l4.705,89.772
	c0.392,7.462,1.482,14.886-5.735,19.939l1.857,35.443l75.781-3.971l-1.857-35.444c-7.706-4.271-7.397-11.771-7.909-21.562
	l22.151-1.161c41.921-2.197,56.871-19.083,59.854-46.025c-0.275,0.075-0.512,0.128-0.818,0.23
	c-7.905,2.823-15.247,5.083-22.591,6.212c-7.342,1.13-15.247,1.13-23.152,0.566c-7.163-0.479-13.833-2.792-20.19-5.818
	c-2.522,1.955-6.123,3.196-11.636,3.486l-5.831,0.305l-1.069-20.413c-0.781-1.227-1.841-2.218-2.5-3.54
	c-5.648-10.73-7.905-22.591-7.342-34.449c0.564-11.86,3.953-23.72,11.295-34.451C297.921,182.733,300.362,180.266,302.626,177.62z
	 M362.032,195.277c3.37,14.041,9.549,26.96,17.393,39.322c-0.264-9.75-2.201-31.938-18.69-46.143
	C361.209,190.725,361.466,193.011,362.032,195.277z M363.162,270.955c-0.564,0-0.564,0-0.564,0.563c0,0.566-0.565,0.566-1.129,0.566
	h-0.566c-0.563-1.129-1.693-2.259-2.259-2.825c-1.128,0-1.693-1.693-1.693-3.387l2.822-2.825c2.26,0,3.39,0.566,3.955,1.696
	C364.291,265.87,363.728,268.129,363.162,270.955z M354.127,263.047c-0.566,0.566-0.566,0.566-0.566,1.13
	c0,0.563-0.563,0.563-1.127,1.129h-1.132c-0.564-0.566-1.128-1.693-1.128-3.389c0-0.564,0.563-1.13,2.26-1.13
	C353.561,261.354,354.127,262.483,354.127,263.047z M346.22,231.421c0,1.129-0.564,1.693-1.694,1.695l-0.565-0.566l-0.563-0.566
	c0.563-0.563,0.563-0.563,0.563-1.127c0,0,0,0,0.565-0.566C345.655,231.421,346.22,231.985,346.22,231.421z M339.443,206.573
	c-0.565,2.257-2.259,3.387-5.648,3.387l-2.822-2.823l0.563-3.953c0.563-0.566,1.695-1.13,3.389-1.696l3.953,2.26
	C338.313,203.749,338.878,204.878,339.443,206.573z M337.185,189.631l-0.566,5.083l-4.519,3.389l-1.127-0.566
	c-0.566-0.563-1.696-1.129-2.26-1.693l-3.389-10.167c0-0.564,0-0.564,0.565-1.13c0,0,0-0.563,0-1.129l0.564,0.002
	c0.563,0,0.563,0,0.563-0.566c0,0,0,0,0.565,0L337.185,189.631z M318.548,221.256c0,0.564-0.565,1.13-1.131,1.694l-3.387,0.566
	l-1.13-0.566c0,0-0.566-0.564-1.13-1.694v-1.695l3.953-2.823C317.417,217.302,318.548,218.998,318.548,221.256z M380.367,254.677
	l-0.267-5.113c-3.128-2.869-6.117-5.868-9.031-9.107c-5.082-5.646-9.037-11.858-12.426-18.07
	c-5.083-10.167-9.035-20.897-10.729-32.755c-0.432-3.018-0.552-5.917-0.825-8.869c-10.861-3.646-23.509-3.999-35.146-3.542
	c-6.384,7.033-12.258,14.555-16.553,23.142c-2.823,5.083-4.519,10.729-6.21,15.813c-1.695,5.082-2.259,10.729-1.695,16.376
	c0.51,8.169,3.076,15.757,6.863,22.586l-1.843-35.135l5.83-0.307c18.421-0.966,18.271,9.565,19.262,28.452
	c0.637,12.163,1.285,20.767-3.374,25.603c0.342,0.168,0.585,0.429,0.933,0.591c11.86,5.084,24.85,6.778,39.533,4.519
	c8.6-1.357,16.889-4.029,25.341-7.271C380.496,266.274,380.685,260.721,380.367,254.677z"/>
</svg>
