<?xml version="1.0" encoding="utf-8"?>
<!DOCTYPE svg PUBLIC "-//W3C//DTD SVG 1.1//EN" "http://www.w3.org/Graphics/SVG/1.1/DTD/svg11.dtd">
<svg version="1.1" id="Layer_1" xmlns="http://www.w3.org/2000/svg" xmlns:xlink="http://www.w3.org/1999/xlink" x="0px" y="0px"
	 width="381.291px" height="632.318px" viewBox="0 0 381.291 632.318" enable-background="new 0 0 381.291 632.318"
	 xml:space="preserve">
<path d="M352.167,602.98h-19.777v29.094h19.777v-6.375h-12.623v-5.109h10.786v-6.374h-10.786v-4.861h12.623V602.98z
	 M317.311,609.396c1.964,0,2.577,1.225,2.577,2.37c0,1.145-0.613,2.369-2.577,2.369h-4.451v-4.739H317.311z M312.86,620.551h4.821
	c1.961,0,2.612,1.307,2.612,2.534c0,1.225-0.651,2.572-2.612,2.572h-4.821V620.551z M317.762,602.98h-12.054v29.094h12.667
	c5.188,0,9.072-3.024,9.072-8.583c0-4.085-2.412-5.597-3.599-6.333c0.9-0.611,3.188-2.452,3.188-5.761
	C327.038,606.372,323.808,602.98,317.762,602.98z M300.437,624.719h-7.354v7.355h7.354V624.719z M278.25,609.396
	c1.961,0,3.107,1.43,3.107,2.941s-1.146,2.942-3.107,2.942h-4.045v-5.884H278.25z M278.578,602.98h-11.523v29.094h7.15v-10.83h2.41
	l5.149,10.83h8.294l-6.292-12.136c2.288-1.145,4.739-3.638,4.739-7.602C288.505,607.556,285.033,602.98,278.578,602.98z
	 M320.874,413.42l3.844,4.396c1.62-0.427,2.754-1.304,3.187-2.55c-1.912,0.253-3.543-0.31-5.991-1.155
	C321.583,413.777,321.225,413.654,320.874,413.42z M321.458,537.172l1.773,0.017c0.041-0.103,0.083-0.107,0.138-0.271
	c0,0,0,0,0.817,0.28l-0.955-0.01c-0.17,0.409-0.308,0.488-0.959,0.264L321.458,537.172z M256.39,470.68v-41.903l6.465,0.002
	c13.887-0.002,18.198,7.183,18.198,20.352c0,14.365-4.312,21.55-18.198,21.55H256.39z M305.963,425.952l2.193-1.068
	c0.535,1.097,0.535,1.097,1.632,0.563c0.814,0.28,0.534,1.097,1.068,2.193l-0.28,0.815l-1.912,0.254l-2.447-0.846L305.963,425.952z
	 M311.027,437.738l1.404-4.079c0.818,0.282,2.449,0.846,2.982,1.942c0.815,0.282,2.446,0.843,3.543,0.309
	c0.816,0.28,1.916-0.253,2.196-1.067c1.912-0.252,3.825-0.506,4.922-1.04c1.912-0.254,3.825-0.507,5.737-0.761
	c3.544,0.311,5.71,1.969,6.497,4.979c-1.097,0.537-1.097,0.537-1.378,1.351c-0.281,0.815-1.097,0.535-1.912,0.253
	c-1.097,0.536-2.729-0.026-3.264-1.125c-0.532-1.097-2.165-1.659-3.262-1.124c-1.097,0.533-3.011,0.787-5.738,0.758
	c-2.728-0.027-4.922,1.04-6.021,1.577L311.027,437.738z M324.78,426.966l-0.28,0.816c-1.098,0.535-3.009,0.786-5.205,1.855
	c-0.815-0.279-1.629-0.562-3.542-0.309c0,0-1.631-0.562-2.166-1.659c0.029-2.729,1.126-3.263,3.038-3.517
	c2.445,0.843,3.542,0.31,4.922-1.04C323.177,423.676,324.527,425.055,324.78,426.966z M323.006,466.514
	c1.097-0.534,3.01-0.788,4.108-1.32c1.63,0.562,3.544,0.31,4.641-0.225c4.357,0.59,7.621,1.715,8.971,3.092l-1.658,2.167
	c-3.293,1.604-6.02,1.574-8.749,1.548c-0.815-0.28-2.446-0.845-3.543-0.311c-1.63-0.563-2.982-1.941-3.516-3.038L323.006,466.514z
	 M256.39,535.091v-23.467h2.636c17.479,0.479,19.153,8.621,19.153,24.903c-0.719,34.24,0.959,43.816,3.593,55.071h68.72v-36.396
	c-7.902-3.113-7.902-13.17-7.902-20.112v-11.732c0-5.749-0.576-10.493-1.738-14.558l-3.007-6.737
	c-4.06-6.393-10.966-10.302-22.073-12.947v-0.12c-21.245-3.479-43.055-4.024-65.836-1.046l2.516-3.271
	c10.608-1.388,21.346-1.81,33.172-1.395c12.789,0.289,23.776,1.797,32.836,3.555c0.523,0.102,1.051,0.218,1.573,0.319
	c3.39-1.242,6.506-2.698,9.152-4.514l-3.533-7.916c1.097-0.534,2.194-1.07,3.01-0.788c1.912-0.253,3.543,0.31,4.893,1.687
	c1.005,0.348,1.821,0.599,2.627,0.812c4.003-4.806,6.534-10.663,8.114-17.11c-1.6-0.475-3.261-0.891-4.553-1.646l-0.28,0.816
	l0.027-2.729c0.881-0.427,3.14-0.878,5.766-0.936c0.315-1.885,0.617-3.776,0.791-5.739c-1.143-0.565-2.198-1.331-3.462-2.297
	c-0.843,2.446-3.036,3.516-6.58,3.205c-2.729-0.027-6.271-0.337-8.721-1.18c-3.263-1.126-7.088-0.621-10.378,0.981
	c-0.536-1.097-1.069-2.193-0.789-3.009l1.126-3.264c4.079,1.408,6.524,2.252,8.44,1.999c2.728,0.029,5.736-0.759,8.745-1.547
	c3.01-0.788,6.273,0.338,8.439,1.996l3.389-1.338c0.024-0.702,0.07-1.395,0.084-2.103l-21.622-24.724
	c-0.499,0.131-0.84,0.409-1.482,0.403c-1.914,0.251-3.825,0.505-5.176-0.873c-1.632-0.562-3.545-0.309-5.457-0.058
	c0.281-0.814,0.843-2.446,1.938-2.979c1.1-0.535,2.196-1.07,3.294-1.604c0.83-0.405,1.95-0.015,3.039,0.714l-3.012-3.443
	l1.914-0.253c1.632,0.562,2.729,0.029,3.289-1.602c1.35,1.377,2.982,1.939,5.429,2.785c1.35,1.376,2.7,2.756,4.05,4.135l1.323,4.106
	l2.474-1.886c2.808,2.273,5.524,4.814,8.249,7.335c-2.707-12.291-8.848-23.132-20.678-30.061c-13.885-8.38-33.76-8.142-49.563-8.142
	h-88.832v36.396c7.662,4.789,6.943,12.451,6.943,20.112v56.881c0.372-0.165,0.7-0.373,1.074-0.536
	c8.428-3.063,16.855-6.128,25.412-8.228c8.553-2.1,17.107-4.196,25.789-5.333c-0.966,0.127-1.803,1.217-2.642,2.308l0.966-0.127
	c-16.802,3.152-33.385,8.212-50.6,15.149v32.073c0,7.661,0.719,15.324-6.943,20.112v36.396h77.817v-36.396
	C255.671,550.415,256.39,542.752,256.39,535.091z M37.336,407.339c-0.566-0.566-1.132-1.132-0.566-2.264
	c0,0-0.566-1.132-1.131-1.699c-1.132-0.564-1.698-0.564-2.83,0.567c0,1.696-1.132,2.829-1.697,3.961l-12.966,6.691v8.195
	c0.414,0.258,0.565,0.606,0.932,0.881c10.281-3.558,20.183-8.092,29.576-14.071c5.093-3.394,10.186-7.356,15.28-12.448
	c0,0-0.567,0-1.132-0.565c0.564-0.566,0.565-1.132,0-1.699c-0.566,0-0.566,0-1.132,0.567c-2.264,3.96-5.659,6.224-9.62,7.921
	c-1.698-0.564-3.396-1.132-4.527-0.564c-1.131,0.564-2.263,0.566-3.961,1.132c0-0.567,0-1.132-0.566-1.699
	c-1.132-0.565-1.698,0-2.83,1.132C40.165,405.075,39.034,406.207,37.336,407.339z M145.61,537.886
	c-7.672,8.852-13.159,19.379-16.596,30.62c0,0-0.965,0.127-2.054-0.712c2.721-9.187,7.249-19.587,13.828-29.276L145.61,537.886z
	 M125.914,574.797l1.927-0.251c0.127,0.963,0.127,0.963-0.71,2.055l-1.092-0.838C126.039,575.763,126.039,575.763,125.914,574.797z
	 M146.072,533.903c0,0,0,0-0.964,0.125c5.387-6.06,11.485-11.557,18.035-16.658h-50.177v6.705c-0.241,16.763,0,23.944-19.156,23.944
	h-3.831v-41.424h40.466v-39.987H92.417c-1.312,4.555-3.029,8.975-5.284,13.162c-4.527,7.356-10.752,13.581-18.673,17.544
	c-10.752,5.657-22.636,7.922-34.52,7.356c-2.955-0.142-5.912-0.462-8.851-0.969v31.389c0,7.661,0.718,15.324-6.944,20.112v36.396
	h153.723V517.37h-5.42c-6.866,5.102-12.996,10.863-18.32,17.245l-0.964,0.127C146.199,534.866,146.199,534.866,146.072,533.903z
	 M74.314,335.462c0.392,7.477,1.484,14.918-5.747,19.981l0.97,18.508c0.216-0.069,0.465,0.155,0.62,0c1.132,0,2.263,0,3.395,0
	c0.566-1.132,0.567-1.697,0.566-1.132c0,0.566,0.567,0.566,1.132,0.566c0.566,0,1.131,0,0.566-0.566
	c0-0.565,0.565-0.565,1.132-1.132c0.566,0.566,0.566,0.566,1.132,0.566s1.131,0,1.698,0.565c3.395-9.62,3.961-19.806,1.697-29.99
	c-1.585-7.139-4.385-13.82-7.833-20.209L74.314,335.462z M84.87,426.013c0,0.566,0,0.566,0.566,0.566
	c0.566,0,0.566,0.565,0.566,1.13v0.567c-1.132,0.564-2.264,1.696-2.831,2.263c0,1.133-1.698,1.698-3.395,1.698l-2.83-2.829
	c0-2.264,0.566-3.396,1.698-3.963C79.777,424.88,82.042,425.447,84.87,426.013z M76.948,435.067
	c0.566,0.564,0.566,0.564,1.132,0.564s0.566,0.568,1.131,1.133l0.001,1.132c-0.566,0.564-1.698,1.131-3.396,1.131
	c-0.566,0-1.132-0.566-1.131-2.263C75.25,435.632,76.381,435.067,76.948,435.067z M46.957,444.686l-0.566,0.567l-0.566,0.565
	c-0.565-0.565-0.565-0.565-1.132-0.565c0,0,0,0-0.565-0.567c1.132-1.132,1.697-1.696,1.132-1.696
	C46.391,442.989,46.957,443.554,46.957,444.686z M37.336,475.245l-0.566,1.131c0,0-0.566,0.565-1.698,1.131h-1.698l-2.829-3.961
	c0.565-1.696,2.263-2.828,4.526-2.828c0.566,0,1.132,0.564,1.698,1.132L37.336,475.245z M83.172,402.812h-0.565l-5.659,0.564
	c-0.566,0.567-0.566,0.567-0.566,1.132c0,0,0,0-0.565,0.567c-0.566-1.699-2.264-2.831-6.225-3.396
	c-4.527,6.226-9.62,11.317-15.278,16.412c-5.659,5.093-11.884,9.054-18.108,12.448c-3.658,1.829-7.498,3.29-11.328,4.775
	c0.185,2.473,0.213,5.007,0.213,7.589v55.58c1.646,0.557,3.317,1.136,4.89,1.66c5.093,1.696,10.751,2.264,16.411,1.696
	c9.054-0.565,17.542-3.396,24.899-7.921c7.356-4.527,13.015-11.319,16.975-19.808c1.047-2.44,1.854-4.962,2.609-7.503h-0.895
	v-36.634h1.743C89.861,420.878,87.053,412.028,83.172,402.812z M19.794,412.996l4.526-3.396c0.565-0.564,0-2.262-1.131-3.961
	c-1.132-0.564-1.698,0-2.83,0.567c0,0.557-1.101,1.103-2.214,1.119v5.67C18.695,412.996,19.244,412.996,19.794,412.996z
	 M155.013,234.092l-0.048-6.679c-0.012,0.013-0.021,0.021-0.033,0.033c-1.42,1.5-2.842,3-4.262,4.5
	c0.889,0.801,1.612,1.766,2.219,2.844c0.024-0.021,0.021-0.048,0.045-0.071C153.646,234.522,154.079,234.166,155.013,234.092z
	 M155.065,241.422l-0.022-3.105l-0.634,0.23C154.662,239.443,154.882,240.415,155.065,241.422z M155.426,234.024
	c-0.195-0.011-0.258,0.056-0.413,0.068l0.029,4.225l1.842-0.67c1.429-1.294,2.33-2.889,1.034-4.318
	C157.088,233.561,155.726,233.493,155.426,234.024z M158.525,221.07c-1.404,0.567-2.509,1.248-3.589,1.916l0.029,4.428
	c1.718-1.813,3.435-3.628,4.856-4.914L158.525,221.07z M156.785,264.538c0.403-0.559,0.747-1.327,1.312-1.708
	c-0.416-0.234-0.904-0.286-1.396-0.31C156.734,263.202,156.757,263.884,156.785,264.538z M161.607,230.508l-1.96,0.994l0.465,1.662
	c0,0,0,0,0.831-0.232C161.541,231.871,161.839,231.339,161.607,230.508z M143.079,218.667c0.53,0.299,0.53,0.299,0.231,0.831
	c-0.829,0.233-1.961,0.995-3.853,0.629l1.498-2.658l2.423,0.666C143.079,218.667,143.079,218.667,143.079,218.667z M140.826,208.998
	c0.831-0.231,1.431-1.294,1.497-2.657c0.069-1.362,0.667-2.424,1.796-3.188l3.024-0.396c-0.232-0.831-0.166-2.191,0.966-2.956
	c1.129-0.763,2.791-1.227,3.853-0.629c1.129-0.762,1.43-1.294,1.798-3.186l0.98-0.501l-0.017-2.457
	c0.531,0.299,0.531,0.299,0.764,1.13c-0.299,0.532-0.299,0.532,0.232,0.831l-0.979,0.496l0.021,2.887
	c0.461-0.095,0.97-0.7,1.653-0.891c0.466,1.662,1.229,2.793,1.461,3.622c-0.831,0.233-1.662,0.465-1.961,0.997
	c-0.831,0.23-1.13,0.763-0.899,1.593c-0.071,0.126-0.141,0.253-0.212,0.38l0.038,5.563c1.319-1.211,2.646-2.394,3.896-3.849
	c0.23,0.831,0.993,1.96,1.226,2.792c-1.429,1.294-2.326,2.889-3.226,4.482c-0.455,0.806-1.122,1.669-1.855,2.496l0.011,1.431
	l2.241-0.903l3.688-2.821c1.558,7.176,2.283,14.586,2.177,22.227c0.427,7.94-0.21,15.282-1.377,22.322l-2.193,0.165l1.228,2.792
	c-0.067,1.361-0.135,2.724-0.204,4.086c-0.898,1.595-1.496,2.657-1.562,4.019c-0.82-0.461-1.458-0.274-2.002,0.251
	c-0.033,11.147-2.667,17.398-16.689,18.133l-5.84,0.308l-2.604-49.667c-0.089,0.033-0.2,0.102-0.283,0.125l-0.764-1.13
	c-0.233-0.831-0.165-2.191,0.434-3.254c0.146-0.041,0.242-0.197,0.375-0.282l-0.137-2.624c-0.199,0.2-0.149,0.542-0.403,0.713
	c-0.299,0.531-1.13,0.764-1.96,0.994l-10.559-33.427c-0.029,0.048-0.054,0.085-0.081,0.133c-0.232-0.831-0.995-1.96-0.928-3.323
	l1.009,3.19c0.87-1.545,1.74-3.062,2.546-3.288l0.598-1.062c0.532,0.299,1.063,0.598,1.063,0.598l0.694,2.493
	c-1.36-0.068-3.022,0.396-4.453,1.691c0.232,0.831,0.698,2.492,1.462,3.622c0.231,0.831,0.694,2.493,0.926,3.323
	c1.197-2.125,2.627-3.42,3.988-3.353c0.232,0.831-0.067,1.362-0.666,2.424c-1.13,0.764-1.728,1.825-2.859,2.59
	c0.232,0.831,0.232,0.831,0.232,0.831c0.529,0.299,0.529,0.299,0.763,1.129c0.465,1.662,0.928,3.323,1.922,5.284
	c0.466,1.662,0.929,3.323,1.392,4.985l3.854-0.63c-0.598,1.064-1.196,2.127-1.794,3.188c0.23,0.831-0.367,1.894-0.668,2.425
	l0.232,0.831c1.894,0.366,4.386-0.33,8.075-3.15l-0.232-0.831l2.492-0.696c0.232,0.831,0.466,1.661-0.133,2.725
	c-0.831,0.23-1.662,0.463-2.492,0.694c-1.13,0.764-1.728,1.826-2.627,3.42c-0.013,0.258-0.289,0.368-0.338,0.603l4.689-0.245
	c0.324-0.017,0.544,0.033,0.856,0.023c0.096-0.029,0.145-0.083,0.241-0.11l0.71,0.138c3.435-0.023,6.264,0.346,8.416,1.217
	c1.023-1.309,2.176-2.627,3.568-4.002c0.872-0.793,2.314-1.847,4.021-2.897l-0.043-5.997l-1.381,0.557
	c-1.429,1.293-2.329,2.889-3.226,4.482c-1.132,0.765-1.73,1.826-3.159,3.121c-1.429,1.294-2.858,2.588-5.052,2.752
	c-0.166-2.191,0.434-3.254,0.964-2.956c1.132-0.762,2.492-0.695,3.323-0.926l0.437-3.257c0.831-0.232,2.492-0.696,3.09-1.759
	c1.362,0.069,1.961-0.995,2.792-1.227c0.706-0.64,1.487-1.413,2.201-2.218l-0.041-5.921c-0.818,0.752-1.645,1.489-2.422,2.393
	c-1.728,1.826-4.52,3.053-7.011,3.748l-0.698-2.492c1.662-0.463,3.092-1.757,4.82-3.584c1.432-1.294,3.159-3.12,4.588-4.414
	c0.228-0.404,0.457-0.81,0.685-1.214l-0.042-5.702c-0.1,0.019-0.212,0.159-0.308,0.104c-1.129,0.765-1.429,1.296-2.259,1.527
	l-1.197,2.127c-1.894-0.368-2.791,1.228-2.629,3.421c-0.298,0.529-0.598,1.061-1.428,1.293c-0.831,0.231-1.429,1.294-2.493,0.696
	c-0.598,1.063-1.429,1.294-2.26,1.527c-1.429,1.294-2.027,2.357-2.924,3.95c-0.068,1.362-1.2,2.127-2.33,2.889
	c-1.429,1.294-2.792,1.228-3.623,1.46c-0.762-1.129-0.992-1.963-0.095-3.556c0.831-0.232,1.96-0.994,2.792-1.227l1.495-2.656
	C138.865,209.993,139.696,209.762,140.826,208.998z M98.941,200.098c-0.299,0.532-0.299,0.532-0.299,0.532
	c-0.266-0.15-0.311,0.086-0.416,0.116l-0.714,0.646l0.299-0.532c0.149-0.264,0.311-0.087,0.415-0.114L98.941,200.098z
	 M141.476,186.453l-81.541,4.274l1.86,35.513c7.722,4.281,7.413,11.794,7.804,19.271l3.783,72.19
	c0.053,0.081,0.117,0.146,0.169,0.227c5.094,8.488,8.488,16.977,10.187,26.597c1.698,9.62,1.698,19.24-0.566,28.86l6.791,3.396
	l6.792,11.317c-1.132-1.132-2.264-1.132-3.962,0.564l-0.565,6.792l1.697,2.829l-3.961-0.565c-0.565,0-1.132,0.565-0.565,1.696
	c0,1.699,0,2.829-0.567,3.396c-0.565,0.564-1.131,0-2.828-1.697c-0.566,0-1.132,0-1.698,0.564c0.566,1.699,1.698,2.829,1.698,3.961
	c1.131,1.699,1.131,2.831,1.697,4.527c2.468,6.914,4.362,13.38,5.594,19.808h0.517c17.241,0,19.156,5.747,19.156,19.636v6.224
	h58.902v-69.438h-25.54l-1.827-34.931c-7.722-4.281-7.415-11.796-7.93-21.608l22.198-1.164c51.166-2.681,62.548-26.938,60.55-65.022
	l-0.83-15.888c-0.271-5.141,1.324-37.32-22.493-53.644C181.416,184.125,158.531,185.56,141.476,186.453z M261.987,602.98h-19.775
	v29.094h19.775v-6.375H249.36v-5.109h10.788v-6.374H249.36v-4.861h12.627V602.98z M227.786,609.396c1.962,0,3.106,1.43,3.106,2.941
	s-1.145,2.942-3.106,2.942h-4.047v-5.884H227.786z M228.114,602.98H216.59v29.094h7.148v-10.38h4.375
	c6.455,0,9.927-4.577,9.927-9.357C238.041,607.556,234.569,602.98,228.114,602.98z M202.165,609.396c1.963,0,3.107,1.43,3.107,2.941
	s-1.145,2.942-3.107,2.942h-4.043v-5.884H202.165z M202.493,602.98H190.97v29.094h7.151v-10.38h4.371c6.455,0,9.93-4.577,9.93-9.357
	C212.422,607.556,208.948,602.98,202.493,602.98z M171.03,617.527c0-5.313,0.409-6.294,1.061-7.151
	c0.532-0.695,1.553-1.268,2.862-1.268c1.306,0,2.329,0.572,2.858,1.268c0.656,0.857,1.063,1.838,1.063,7.151
	c0,5.312-0.407,6.251-1.063,7.108c-0.529,0.695-1.552,1.309-2.858,1.309c-1.309,0-2.33-0.613-2.862-1.309
	C171.439,623.778,171.03,622.839,171.03,617.527z M166.82,606.005c-3.065,3.062-2.941,7.149-2.941,11.522
	c0,4.371-0.124,8.459,2.941,11.522c2.126,2.124,4.577,3.269,8.133,3.269c3.553,0,6.006-1.145,8.129-3.269
	c3.065-3.063,2.942-7.151,2.942-11.522c0-4.373,0.123-8.46-2.942-11.522c-2.123-2.125-4.576-3.27-8.129-3.27
	C171.397,602.735,168.946,603.88,166.82,606.005z M144.182,602.98h-7.149v29.094h7.149v-11.523h7.601v11.523h7.151V602.98h-7.151
	v11.195h-7.601V602.98z M131.762,624.719h-7.356v7.355h7.356V624.719z M94.581,602.98h-7.478l8.008,29.094h5.803l4.7-14.344
	l4.698,14.344h5.844l7.967-29.094h-7.477l-3.8,15.363l-4.7-15.363h-5.066l-4.7,15.363L94.581,602.98z M57.56,602.98h-7.479
	l8.009,29.094h5.803l4.7-14.344l4.699,14.344h5.843l7.968-29.094h-7.479l-3.799,15.363l-4.7-15.363h-5.067l-4.699,15.363
	L57.56,602.98z M20.539,602.98h-7.478l8.009,29.094h5.802l4.699-14.344l4.699,14.344h5.843l7.968-29.094h-7.478l-3.799,15.363
	l-4.699-15.363h-5.066l-4.699,15.363L20.539,602.98z M33.879,14.183l-3.96,2.829c-1.698-0.564-2.829-2.264-2.829-4.527
	c0-0.565,0.565-1.132,1.131-1.697l3.396-0.564l1.132,0.564c0,0,0.565,0.565,1.13,1.697V14.183z M14.64,26.632l-0.566,3.96
	c-0.565,0.567-1.698,1.132-3.396,1.699l-3.961-2.264c0.567,0,0-1.132-0.565-2.828c0.565-2.264,2.264-3.396,5.659-3.396L14.64,26.632
	z M56.515,17.579c1.631-4.893,2.156-10.314,1.697-15.75L5.826,0L4.737,31.185c3.011,2.031,4.341,4.574,4.969,7.351l3.802-2.851
	l1.132,0.567c0.564,0.565,1.698,1.131,2.263,1.696l3.396,10.188c0,0.564,0,0.564-0.566,1.132c0,0,0,0.565,0,1.131h-0.566
	c-0.566,0-0.566,0-0.566,0.565c0,0,0,0-0.565,0l-7.842-5.535c-0.036,1.064-0.07,2.123-0.107,3.199L9.178,74.625
	c9.522-3.957,17.392-9.568,23.571-16.868c6.79-7.359,13.014-15.28,17.541-24.333C53.12,28.329,54.817,22.671,56.515,17.579z
	 M37.841,114.911c-1.132,1.132-2.831,2.261-5.659,2.829l-4.528-1.697c-0.565-1.132-0.565-2.264-1.698-3.963
	c0-1.697,0-2.829,1.132-3.961c0-0.565,1.131-0.565,2.829-1.132l0.566,1.132C33.314,108.686,36.143,110.948,37.841,114.911z
	 M25.957,118.871l0.566,0.565l3.961,0.567c1.698,1.132,2.829,2.829,2.83,5.093c-0.566,1.699-1.132,2.828-0.567,4.527
	c0.567,1.697,0,3.394-0.564,3.961l-9.054-5.66c-1.132-1.129-1.698-2.828-1.132-5.092C21.996,121.135,23.128,120.003,25.957,118.871z
	 M16.903,126.794c0,0.564-0.566,1.129-1.131,1.697c-1.698,0-2.264-0.567-2.83-1.697c0.566-0.567,0.566-0.567,0.566-1.132
	c0-0.567,0-0.567,0.565-1.132l1.132-0.567C15.772,123.963,16.338,125.096,16.903,126.794z M147.125,36.159l1.091-31.187
	L81.534,2.643l-1.09,31.186c6.423,4.333,5.578,10.879,5.35,17.442l-0.659,18.877l-20.929-0.731l0.66-18.875
	c0.077-2.241,0.179-4.442,0.421-6.579c-1.227,0.315-2.453,0.465-3.679-0.354c-2.264,0-3.961-1.132-4.527-2.264
	c-0.566-1.697-0.566-2.829-0.566-4.527c0-1.697,0.566-2.829,1.132-3.961c0.565-0.565,1.697-1.132,2.829-1.132
	c1.132,0,2.264-0.565,3.396-1.132l0.566,0.567l5.093,3.96c0.002,0.023-0.005,0.038-0.002,0.061c0.627-0.557,1.06-1.188,1.889-1.666
	l1.089-31.187L60.534,1.911c0.45,3.879,0.695,7.784,0.508,11.706c-0.565,11.884-3.96,23.768-11.318,34.52
	c-6.791,10.185-15.278,18.673-26.03,24.897c2.829,2.264,5.093,4.528,5.659,6.225c-1.132,0.567-2.263,1.699-3.962,2.263
	c-1.697,1.133-3.96,1.133-5.658,0.568l-2.83-4.528l0.565-1.132c-2.651,1.591-5.769,2.65-8.484,3.711l-1.657,47.476
	c-0.14,3.975-0.243,7.879-1.641,11.265l0.464,0.927c-0.565,0.566-0.565,1.131,0,0.566c-0.154,0.153-0.339,0.339-0.565,0.565
	c-0.419,0.419-0.648,0.202-0.837,0c-0.93,1.39-2.163,2.659-3.974,3.703L0,166.843c0.73,0.627,1.46,1.277,2.19,1.826
	c2.83,1.697,5.093,3.961,7.356,6.224c1.698-0.564,2.264-1.697,2.264-4.527l4.528-3.961l3.961-15.278c0-0.566,0-1.131-0.566-1.699
	l6.791-3.96v-2.831l2.83-3.393l4.526-0.568c0.566,0.568,1.132,1.133,2.264,1.699c0,1.13,1.132,2.264,2.264,2.829
	c0.566,0.565,1.132,1.697,0.566,2.264c-0.566,1.132-0.566,2.264-1.131,3.396c1.131,1.697,0.565,2.829-1.698,1.697
	c-2.264,0-3.96,0-4.527,1.696c0,0.567,0,1.132,0.566,1.699c0.564,0,0.564,0.565,1.132,1.132l-2.264,1.132v5.093
	c0,0-0.566,0.565-2.264,1.131l1.669,14.46l35.911,1.254l1.089-31.184c-6.421-4.335-5.578-10.877-5.348-17.442l0.902-25.854
	l20.927,0.731l-0.903,25.851c-0.229,6.565,0.157,13.153-6.551,17.026l-1.089,31.187l66.681,2.328l1.088-31.184
	c-6.421-4.335-5.576-10.877-5.348-17.444l2.758-78.991C140.801,46.618,140.417,40.032,147.125,36.159z M289.762,197.367
	c0,1.697-0.568,2.829-1.133,3.96c-0.565,0.567-1.699,1.132-2.828,1.132c-1.132,0-2.264,0.567-3.396,1.132l-0.566-0.565l-5.093-3.96
	c-0.564-3.963,0-6.792,2.829-8.491c1.699-0.565,3.398-1.13,5.095,0c2.261,0,3.96,1.132,4.524,2.264
	C289.762,194.538,289.762,195.67,289.762,197.367z M303.232,177.975l-41.913,2.198c14.588-7.188,23.75-20.794,24.604-45.291
	l1.455-41.663c-4.164,5.27-8.749,9.452-14.324,13.001c-6.225,3.96-13.581,6.789-21.505,7.921c-6.78,0.885-13.391,0.47-19.707-1.184
	l-0.791,22.678c-0.044,1.231,0.135,13.768-11.149,13.373c-11.285-0.392-10.23-12.887-10.188-14.119l1.171-33.575
	c-8.424-7.332-14.811-16.262-18.185-27.35c-2.265-6.225-2.829-13.016-2.265-19.241c0-6.224,1.699-13.014,5.093-19.24
	c2.829-3.96,6.792-7.921,10.752-11.882c3.961-3.962,9.053-5.095,14.147-4.527c1.133,0.565,2.263,1.131,3.396,1.696
	c1.13,1.132,1.13,2.264,0,2.831c-3.396,1.697-6.792,2.829-10.188,4.526c-3.396,1.699-6.789,3.396-9.62,5.659
	c-6.789,5.66-10.186,12.449-11.316,20.937c-1.132,8.489,0,16.412,3.393,23.768c3.423,7.7,8.645,14.111,14.896,19.87l1.503-43.077
	c0.046-1.231-0.141-13.562,11.143-13.169c11.284,0.395,10.239,12.684,10.195,13.916l-1.936,55.474
	c5.504,1.584,11.295,2.087,17.392,1.505c9.621-1.132,18.11-4.528,24.9-11.317c6.308-5.824,10.607-12.584,13.586-19.714l0.738-21.163
	c0.554-15.868-2.673-27.432-8.776-35.895c-0.345-0.484-0.723-0.951-1.075-1.427C267.812,9.851,248.779,4.992,224.958,4.16
	c-38.775-1.354-65.827,8.588-67.348,52.084l-2.585,74.066c-1.519,43.496,24.773,55.302,63.55,56.655
	c1.187,0.042,2.252-0.035,3.417-0.017l1.613,30.811c7.723,4.281,7.415,11.795,7.806,19.271l4.715,89.95
	c0.391,7.478,1.482,14.916-5.747,19.982l1.86,35.513l75.935-3.979l-1.862-35.513c-7.722-4.28-7.411-11.794-7.927-21.608
	l22.195-1.162c42.008-2.202,56.986-19.12,59.977-46.118c-0.277,0.077-0.513,0.128-0.82,0.23c-7.923,2.831-15.279,5.094-22.637,6.225
	c-7.355,1.132-15.277,1.132-23.2,0.567c-7.178-0.478-13.861-2.798-20.231-5.828c-2.526,1.959-6.134,3.202-11.66,3.491l-5.839,0.308
	l-1.071-20.455c-0.784-1.23-1.845-2.223-2.507-3.545c-5.661-10.752-7.922-22.636-7.357-34.52
	c0.567-11.884,3.96-23.766,11.317-34.518C298.52,183.099,300.966,180.627,303.232,177.975z M362.761,195.67
	c3.373,14.069,9.567,27.012,17.426,39.398c-0.263-9.77-2.208-32.002-18.729-46.234C361.935,191.107,362.193,193.398,362.761,195.67z
	 M363.892,271.498c-0.564,0-0.564,0-0.564,0.567c0,0.565-0.566,0.565-1.135,0.565h-0.564c-0.565-1.132-1.699-2.264-2.264-2.828
	c-1.132,0-1.699-1.699-1.699-3.396l2.831-2.829c2.265,0,3.396,0.565,3.961,1.697C365.024,266.405,364.458,268.668,363.892,271.498z
	 M354.836,263.576c-0.565,0.565-0.565,0.565-0.565,1.13c0,0.567-0.563,0.567-1.131,1.132h-1.131
	c-0.565-0.565-1.133-1.697-1.133-3.394c0-0.567,0.567-1.132,2.264-1.132C354.271,261.877,354.836,263.009,354.836,263.576z
	 M346.916,231.887c0,1.13-0.564,1.697-1.698,1.697l-0.565-0.567l-0.564-0.565c0.564-0.567,0.564-0.567,0.564-1.132
	c0,0,0,0,0.565-0.565C346.351,231.885,346.916,232.452,346.916,231.887z M340.125,206.987c-0.565,2.264-2.265,3.396-5.658,3.396
	l-2.829-2.831l0.566-3.961c0.563-0.565,1.696-1.132,3.393-1.696l3.963,2.263C338.993,204.158,339.559,205.291,340.125,206.987z
	 M337.86,190.01l-0.564,5.093l-4.528,3.396l-1.13-0.565c-0.568-0.567-1.697-1.132-2.263-1.699l-3.397-10.185
	c0-0.567,0-0.567,0.566-1.132c0,0,0-0.567,0-1.132h0.567c0.565,0,0.565,0,0.565-0.567c0,0,0,0,0.564,0L337.86,190.01z
	 M319.188,221.7c0,0.565-0.567,1.131-1.133,1.699l-3.396,0.564l-1.133-0.564c0,0-0.564-0.568-1.13-1.699v-1.697l3.959-2.831
	C318.055,217.739,319.188,219.437,319.188,221.7z M381.133,255.19l-0.269-5.125c-3.137-2.873-6.131-5.88-9.051-9.124
	c-5.093-5.659-9.053-11.884-12.449-18.109c-5.094-10.185-9.055-20.937-10.752-32.821c-0.431-3.021-0.551-5.927-0.827-8.885
	c-10.88-3.655-23.553-4.008-35.214-3.549c-6.396,7.044-12.282,14.582-16.586,23.186c-2.829,5.093-4.527,10.752-6.224,15.845
	c-1.698,5.093-2.265,10.752-1.698,16.41c0.512,8.185,3.083,15.79,6.875,22.631l-1.843-35.205l5.839-0.305
	c18.46-0.968,18.311,9.583,19.301,28.507c0.638,12.188,1.29,20.811-3.381,25.654c0.342,0.168,0.588,0.429,0.937,0.594
	c11.885,5.092,24.9,6.789,39.612,4.527c8.615-1.359,16.92-4.037,25.393-7.287C381.261,266.808,381.451,261.244,381.133,255.19z"/>
</svg>
