<?xml version="1.0" encoding="utf-8"?>
<!DOCTYPE svg PUBLIC "-//W3C//DTD SVG 1.1//EN" "http://www.w3.org/Graphics/SVG/1.1/DTD/svg11.dtd">
<svg version="1.1" id="Layer_1" xmlns="http://www.w3.org/2000/svg" xmlns:xlink="http://www.w3.org/1999/xlink" x="0px" y="0px"
	 width="381.867px" height="634.34px" viewBox="0 0 381.867 634.34" enable-background="new 0 0 381.867 634.34"
	 xml:space="preserve">
<path d="M321.067,320.699c42.069-2.205,57.072-19.15,60.066-46.186c-0.276,0.075-0.514,0.127-0.822,0.231
	c-7.934,2.832-15.301,5.1-22.669,6.233c-7.366,1.134-15.303,1.132-23.236,0.566c-7.188-0.479-13.882-2.8-20.259-5.836
	c-2.534,1.962-6.146,3.206-11.679,3.498l-2.406,0.125l8.288,16.454l-16.265,23.104l-14.641-10.988l-1.667,2.299l3.735,0.394
	l-0.964,9.18l-6.281-0.661l10.159,18.112l-8.543-0.898l-3.333-5.523l1.216,12.838l-9.804,10.851l-7-12.615l3.837-12.31l-4.481,4.535
	l-9.347-0.98l14.364-15.366l-6.646-0.697l0.979-9.292l4.383,0.462l-1.102-2.478l-16.604,7.705l-5.241-12.266l1.378,26.292
	c0.393,7.488,1.485,14.938-5.755,20.012l1.864,35.566l76.048-3.985l-1.864-35.567c-7.732-4.287-7.424-11.812-7.939-21.639
	L321.067,320.699z M296.644,291.021l4.117,0.433l-3.495,2.22l0.651,3.982l-3.034-2.715l-3.62,1.814l1.582-3.614l-2.863-2.934
	l3.949,0.416l1.843-3.63L296.644,291.021z M296.964,279.492l-25.183,28.144l-0.223,2.123l1.245,0.131l4.143-5.391l14.666,10.855
	l13.998-19.856l-8.057-16.036L296.964,279.492z M270.927,300.58l0.861,0.091l19.569-26.247l-14.64-28.975L270.927,300.58z
	 M278.038,334.287l-8.034-15.074l-0.543,5.161l5.795,9.621L278.038,334.287z M248.246,285.934l-3.495,2.22l0.65,3.982l-3.033-2.713
	l-3.622,1.812l1.584-3.614l-2.863-2.934l3.949,0.416l1.843-3.63l0.869,4.028L248.246,285.934z M258.145,302.521l2.876,6.017
	l1.86,0.196l0.131-1.257l-19.533-34.081l-9.226,11.52l0.486,9.284l6.805,15.89L258.145,302.521z M261.352,322.639l0.411-3.929
	L250.02,331.23l3.384,0.354L261.352,322.639z M267.563,326.832l-5.146-0.541l-4.771,15.527l4.878,8.41l6.629-7.426L267.563,326.832z
	 M250.303,270.108l13.687,29.743l0.861,0.09l5.796-55.131L250.303,270.108z M353.78,601.882h-21.881v32.188h7.91v-12.433h11.935
	v-7.054h-11.935v-5.65h13.971V601.882z M310.154,625.662l-5.2,5.152c2.622,2.622,5.021,3.525,8.773,3.525
	c6.054,0,12.113-3.662,12.113-11.302v-21.156h-7.911v20.976c0,3.075-1.766,4.433-4.202,4.433
	C311.961,627.29,311.149,626.657,310.154,625.662z M302.062,601.882h-7.91v32.188h7.91V601.882z M276.023,601.882h-7.91v32.188
	h21.429v-7.054h-13.519V601.882z M321.36,414.046l3.851,4.402c1.625-0.429,2.762-1.306,3.188-2.554
	c-1.914,0.252-3.55-0.311-5.999-1.156C322.07,414.404,321.712,414.282,321.36,414.046z M321.943,537.985l1.777,0.02
	c0.043-0.103,0.083-0.107,0.139-0.271c0,0,0,0,0.815,0.281l-0.954-0.01c-0.171,0.409-0.307,0.488-0.96,0.262L321.943,537.985z
	 M256.779,471.394v-41.968h6.476c13.907,0,18.227,7.195,18.227,20.385c0,14.389-4.318,21.584-18.227,21.584L256.779,471.394
	L256.779,471.394z M306.427,426.598l2.196-1.069c0.534,1.1,0.534,1.1,1.635,0.562c0.816,0.282,0.533,1.1,1.069,2.197l-0.281,0.816
	l-1.914,0.256l-2.451-0.847L306.427,426.598z M311.495,438.403l1.411-4.085c0.815,0.28,2.45,0.845,2.985,1.943
	c0.818,0.282,2.448,0.845,3.548,0.311c0.817,0.279,1.918-0.254,2.197-1.07c1.918-0.254,3.833-0.507,4.931-1.042
	c1.916-0.254,3.833-0.507,5.747-0.761c3.549,0.31,5.717,1.972,6.509,4.986c-1.1,0.534-1.1,0.534-1.382,1.354
	c-0.283,0.815-1.099,0.534-1.915,0.254c-1.098,0.534-2.732-0.029-3.268-1.129c-0.535-1.098-2.171-1.662-3.271-1.127
	c-1.098,0.537-3.013,0.788-5.746,0.762c-2.731-0.029-4.929,1.042-6.027,1.577L311.495,438.403z M325.274,427.615l-0.282,0.814
	c-1.1,0.537-3.014,0.789-5.211,1.859c-0.818-0.282-1.636-0.563-3.549-0.311c0,0-1.636-0.562-2.17-1.661
	c0.026-2.732,1.125-3.268,3.041-3.521c2.451,0.845,3.55,0.311,4.929-1.043C323.666,424.318,325.021,425.698,325.274,427.615z
	 M323.497,467.222c1.099-0.537,3.014-0.789,4.111-1.323c1.635,0.562,3.549,0.311,4.648-0.228c4.366,0.593,7.635,1.719,8.985,3.102
	l-1.663,2.167c-3.295,1.606-6.027,1.577-8.76,1.551c-0.816-0.283-2.451-0.846-3.549-0.311c-1.636-0.562-2.988-1.944-3.521-3.044
	L323.497,467.222z M256.779,535.9v-23.501h2.639c17.507,0.479,19.185,8.635,19.185,24.94c-0.72,34.291,0.961,43.885,3.597,55.154
	h68.824v-36.449c-7.912-3.117-7.912-13.188-7.912-20.146V524.15c0-5.759-0.579-10.508-1.744-14.578l-3.009-6.749
	c-4.064-6.401-10.98-10.317-22.106-12.964v-0.123c-21.278-3.483-43.121-4.031-65.937-1.046l2.521-3.277
	c10.624-1.391,21.377-1.812,33.221-1.396c12.81,0.291,23.813,1.8,32.887,3.562c0.524,0.101,1.053,0.217,1.577,0.319
	c3.396-1.244,6.515-2.702,9.163-4.521l-3.537-7.931c1.098-0.534,2.197-1.068,3.015-0.788c1.916-0.254,3.549,0.311,4.9,1.691
	c1.007,0.348,1.822,0.598,2.629,0.812c4.012-4.814,6.546-10.68,8.127-17.136c-1.6-0.478-3.264-0.896-4.557-1.649l-0.282,0.817
	l0.028-2.734c0.881-0.429,3.143-0.878,5.771-0.938c0.316-1.887,0.618-3.782,0.792-5.746c-1.142-0.566-2.203-1.334-3.463-2.303
	c-0.848,2.451-3.045,3.523-6.594,3.213c-2.732-0.028-6.282-0.34-8.732-1.184c-3.268-1.129-7.1-0.62-10.396,0.983
	c-0.534-1.099-1.069-2.197-0.788-3.014l1.125-3.269c4.086,1.408,6.537,2.255,8.451,2.001c2.733,0.027,5.748-0.761,8.762-1.549
	c3.015-0.789,6.282,0.339,8.45,2.001l3.396-1.343c0.027-0.702,0.07-1.396,0.083-2.104l-21.652-24.763
	c-0.502,0.133-0.844,0.409-1.485,0.403c-1.917,0.254-3.831,0.508-5.183-0.875c-1.637-0.562-3.551-0.31-5.468-0.056
	c0.281-0.817,0.849-2.45,1.945-2.985c1.1-0.535,2.197-1.068,3.297-1.605c0.829-0.402,1.953-0.016,3.043,0.716l-3.016-3.448
	l1.915-0.252c1.634,0.562,2.731,0.027,3.296-1.606c1.354,1.382,2.984,1.944,5.437,2.79c1.354,1.379,2.704,2.761,4.057,4.14
	l1.324,4.114l2.479-1.889c2.812,2.279,5.532,4.821,8.26,7.347c-2.713-12.31-8.858-23.166-20.707-30.104
	c-13.909-8.395-33.812-8.154-49.64-8.154h-88.968v36.451c7.674,4.796,6.955,12.47,6.955,20.144v56.966
	c0.373-0.164,0.701-0.375,1.076-0.537c8.442-3.065,16.882-6.136,25.449-8.238c8.568-2.102,17.135-4.205,25.83-5.342
	c-0.966,0.125-1.807,1.218-2.646,2.311l0.966-0.125c-16.827,3.156-33.433,8.225-50.675,15.17V535.9c0,7.676,0.72,15.35-6.955,20.146
	v36.451l77.936-0.002v-36.449C256.058,551.25,256.779,543.574,256.779,535.9z M37.393,407.957c-0.566-0.568-1.134-1.135-0.566-2.268
	c0,0-0.567-1.135-1.134-1.701c-1.134-0.565-1.7-0.565-2.834,0.566c0,1.701-1.134,2.834-1.699,3.967l-12.985,6.701v8.209
	c0.413,0.258,0.566,0.607,0.932,0.882c10.297-3.562,20.213-8.104,29.621-14.092c5.102-3.399,10.201-7.366,15.302-12.468
	c0,0-0.566,0-1.133-0.566c0.566-0.565,0.566-1.134,0-1.701c-0.566,0-0.566,0-1.134,0.567c-2.267,3.968-5.667,6.234-9.634,7.935
	c-1.7-0.565-3.401-1.133-4.534-0.565c-1.134,0.565-2.267,0.565-3.968,1.132c0-0.564,0-1.132-0.566-1.699
	c-1.133-0.565-1.701,0-2.833,1.135C40.227,405.689,39.093,406.822,37.393,407.957z M145.833,538.704
	c-7.684,8.862-13.183,19.405-16.622,30.664c0,0-0.967,0.125-2.059-0.714c2.728-9.198,7.261-19.616,13.852-29.32L145.833,538.704z
	 M126.104,575.668l1.934-0.252c0.126,0.965,0.126,0.965-0.713,2.058l-1.093-0.841C126.231,576.633,126.231,576.633,126.104,575.668z
	 M146.293,534.712c0,0,0,0-0.965,0.127c5.394-6.069,11.503-11.574,18.062-16.685h-50.254l0.001,6.716
	c-0.24,16.785-0.001,23.979-19.185,23.979h-3.837v-41.486h40.526v-40.047H92.558c-1.314,4.56-3.035,8.985-5.292,13.182
	c-4.534,7.367-10.768,13.602-18.703,17.569c-10.767,5.668-22.669,7.934-34.569,7.367c-2.961-0.142-5.922-0.461-8.865-0.97
	L25.127,535.9c0,7.676,0.72,15.35-6.954,20.146v36.449h153.955v-74.34H166.7c-6.879,5.107-13.016,10.879-18.35,17.271l-0.966,0.124
	C146.42,535.677,146.42,535.677,146.293,534.712z M74.427,335.971c0.392,7.488,1.486,14.939-5.755,20.012l0.972,18.535
	c0.216-0.07,0.465,0.156,0.621,0c1.133,0,2.268,0,3.4,0c0.566-1.134,0.566-1.699,0.566-1.134c0,0.568,0.567,0.568,1.134,0.568
	s1.134,0,0.567-0.568c-0.001-0.565,0.566-0.565,1.133-1.133c0.567,0.565,0.567,0.565,1.134,0.565s1.134,0,1.7,0.566
	c3.4-9.634,3.968-19.835,1.7-30.037c-1.588-7.146-4.392-13.84-7.846-20.236L74.427,335.971z M84.999,426.657
	c0,0.567,0,0.567,0.566,0.567s0.566,0.565,0.566,1.136v0.564c-1.132,0.565-2.266,1.699-2.833,2.267c0,1.134-1.7,1.701-3.4,1.701
	l-2.834-2.834c0-2.269,0.567-3.401,1.7-3.968C79.898,425.526,82.166,426.091,84.999,426.657z M77.064,435.724
	c0.567,0.568,0.567,0.568,1.133,0.568c0.567,0,0.567,0.566,1.135,1.135v1.131c-0.567,0.568-1.701,1.136-3.401,1.136
	c-0.567,0-1.132-0.566-1.132-2.267C75.365,436.292,76.498,435.726,77.064,435.724z M47.027,445.361l-0.566,0.564l-0.567,0.568
	c-0.565-0.568-0.565-0.568-1.132-0.568c0,0,0,0-0.567-0.564c1.135-1.136,1.7-1.7,1.135-1.7
	C46.46,443.661,47.027,444.226,47.027,445.361z M37.393,475.964l-0.566,1.135c0,0-0.566,0.565-1.7,1.133h-1.7l-2.834-3.969
	c0.567-1.7,2.267-2.832,4.534-2.832c0.566,0,1.134,0.565,1.7,1.132L37.393,475.964z M83.298,403.422h-0.566l-5.668,0.566
	c-0.565,0.564-0.565,0.564-0.565,1.134c0,0,0,0-0.567,0.565c-0.567-1.699-2.267-2.834-6.233-3.399
	c-4.533,6.233-9.635,11.336-15.303,16.435c-5.667,5.102-11.9,9.067-18.135,12.469c-3.663,1.833-7.51,3.296-11.346,4.782
	c0.185,2.477,0.213,5.018,0.213,7.603l0.001,55.663c1.648,0.558,3.323,1.137,4.896,1.663c5.102,1.699,10.77,2.266,16.437,1.699
	c9.067-0.568,17.568-3.399,24.937-7.937c7.368-4.534,13.035-11.333,17.002-19.835c1.047-2.445,1.855-4.968,2.611-7.514h-0.896
	v-36.692h1.745C89.997,421.516,87.185,412.652,83.298,403.422z M19.824,413.625l4.533-3.402c0.567-0.565,0-2.266-1.133-3.968
	c-1.134-0.565-1.7,0.002-2.834,0.567c0,0.558-1.102,1.104-2.217,1.121v5.68C18.723,413.625,19.274,413.623,19.824,413.625z
	 M155.248,234.448l-0.046-6.689c-0.013,0.012-0.022,0.021-0.034,0.033c-1.422,1.502-2.846,3.004-4.268,4.506
	c0.889,0.804,1.611,1.769,2.221,2.849c0.023-0.021,0.021-0.048,0.045-0.071C153.879,234.876,154.312,234.521,155.248,234.448z
	 M155.3,241.788l-0.022-3.108l-0.636,0.23C154.897,239.806,155.117,240.779,155.3,241.788z M155.662,234.379
	c-0.194-0.008-0.259,0.056-0.414,0.068l0.029,4.231l1.847-0.672c1.431-1.296,2.331-2.895,1.034-4.326
	C157.327,233.915,155.961,233.846,155.662,234.379z M158.765,221.406c-1.407,0.566-2.513,1.248-3.596,1.916l0.032,4.437
	c1.719-1.817,3.438-3.633,4.86-4.921L158.765,221.406z M99.091,200.402c-0.3,0.533-0.3,0.533-0.3,0.533
	c-0.266-0.15-0.312,0.085-0.415,0.115l-0.717,0.649l0.301-0.533c0.149-0.267,0.312-0.087,0.416-0.116L99.091,200.402z
	 M139.668,220.462l1.5-2.661l2.428,0.666C143.297,219,143.297,219,143.297,219c0.532,0.299,0.532,0.299,0.231,0.833
	C142.696,220.064,141.564,220.828,139.668,220.462z M141.69,186.736l-81.665,4.28l1.864,35.567c7.733,4.288,7.424,11.812,7.816,19.3
	l3.79,72.303c0.052,0.08,0.116,0.145,0.169,0.227c5.101,8.5,8.501,17,10.202,26.636c1.699,9.636,1.699,19.269-0.567,28.905
	l6.801,3.398l6.802,11.336c-1.134-1.135-2.267-1.135-3.968,0.565l-0.565,6.801l1.699,2.835L90.1,398.32
	c-0.565,0-1.133,0.568-0.565,1.701c0,1.699,0,2.834-0.567,3.4c-0.566,0.566-1.132,0-2.834-1.701c-0.566,0-1.133,0-1.7,0.567
	c0.566,1.7,1.7,2.834,1.7,3.966c1.134,1.702,1.134,2.834,1.701,4.536c2.472,6.922,4.37,13.399,5.603,19.834l0.518,0.002
	c17.266,0,19.184,5.756,19.184,19.663l0.001,6.235h58.992V386.98h-25.576l-1.833-34.984c-7.732-4.288-7.424-11.812-7.938-21.639
	l22.229-1.166c12.384-0.648,22.34-2.619,30.443-5.683l-25.914-2.733l1.648-15.688l9.819,1.032l0.252-2.405l-1.118-0.119
	c0,0,0.349-4.073,0.431-4.088c0.412-0.075,0.797-0.177,1.161-0.297l0.447-4.25c-1.524,0.397-3.261,0.395-5.055-0.517l-5.447-0.572
	l-1.045,9.929l-15.785-1.658l1.785-16.92c-2.452,1.365-5.696,2.237-10.224,2.474l-5.85,0.308l-2.606-49.74
	c-0.09,0.033-0.2,0.102-0.285,0.125l-0.764-1.132c-0.233-0.832-0.166-2.197,0.435-3.26c0.146-0.042,0.244-0.198,0.375-0.283
	l-0.138-2.628c-0.2,0.202-0.148,0.543-0.403,0.714c-0.299,0.532-1.132,0.766-1.964,0.999l-10.576-33.48
	c-0.026,0.048-0.053,0.085-0.081,0.133c-0.232-0.833-0.996-1.964-0.928-3.327l1.009,3.194c0.872-1.548,1.744-3.067,2.551-3.292
	l0.601-1.065c0.53,0.3,1.063,0.599,1.063,0.599l0.697,2.497c-1.364-0.069-3.028,0.397-4.46,1.694
	c0.231,0.833,0.697,2.497,1.461,3.626c0.231,0.833,0.697,2.497,0.929,3.33c1.199-2.128,2.631-3.425,3.995-3.358
	c0.232,0.832-0.067,1.365-0.667,2.428c-1.131,0.766-1.729,1.829-2.864,2.595c0.233,0.83,0.233,0.83,0.233,0.83
	c0.532,0.302,0.532,0.302,0.765,1.131c0.464,1.665,0.93,3.33,1.927,5.293c0.464,1.663,0.928,3.327,1.394,4.992l3.859-0.63
	c-0.6,1.065-1.199,2.128-1.799,3.193c0.232,0.833-0.366,1.896-0.668,2.429l0.233,0.832c1.895,0.366,4.392-0.331,8.087-3.156
	l-0.233-0.831l2.497-0.697c0.232,0.831,0.465,1.663-0.135,2.728c-0.833,0.233-1.665,0.464-2.497,0.697
	c-1.132,0.764-1.73,1.829-2.631,3.424c-0.012,0.258-0.289,0.367-0.339,0.604l4.698-0.246c0.325-0.019,0.544,0.033,0.856,0.023
	c0.095-0.029,0.145-0.083,0.24-0.11l0.71,0.137c3.441-0.023,6.273,0.348,8.43,1.22c1.025-1.313,2.18-2.633,3.572-4.01
	c0.877-0.795,2.319-1.848,4.027-2.903l-0.041-6.004l-1.384,0.558c-1.433,1.296-2.332,2.892-3.231,4.49
	c-1.132,0.764-1.73,1.829-3.163,3.125c-1.432,1.297-2.863,2.593-5.06,2.757c-0.165-2.195,0.436-3.261,0.967-2.961
	c1.132-0.764,2.496-0.697,3.328-0.928l0.435-3.26c0.833-0.233,2.496-0.698,3.097-1.763c1.363,0.069,1.963-0.997,2.795-1.228
	c0.708-0.641,1.487-1.415,2.206-2.224l-0.042-5.93c-0.821,0.756-1.647,1.492-2.427,2.397c-1.73,1.829-4.525,3.059-7.022,3.755
	l-0.697-2.497c1.665-0.464,3.096-1.76,4.827-3.589c1.431-1.296,3.164-3.125,4.595-4.422c0.229-0.405,0.457-0.811,0.686-1.217
	l-0.04-5.709c-0.1,0.019-0.213,0.159-0.309,0.106c-1.131,0.764-1.432,1.296-2.263,1.527l-1.2,2.128
	c-1.896-0.367-2.796,1.229-2.631,3.427c-0.301,0.53-0.6,1.063-1.431,1.296c-0.833,0.231-1.433,1.297-2.496,0.697
	c-0.601,1.063-1.433,1.296-2.265,1.527c-1.433,1.299-2.031,2.362-2.931,3.958c-0.067,1.365-1.199,2.128-2.332,2.894
	c-1.432,1.296-2.795,1.229-3.627,1.46c-0.765-1.132-0.997-1.964-0.098-3.56c0.833-0.233,1.965-0.997,2.797-1.229l1.499-2.659
	c1.364,0.066,2.195-0.167,3.327-0.93c0.833-0.233,1.433-1.296,1.499-2.661c0.067-1.363,0.668-2.428,1.8-3.192l3.026-0.397
	c-0.23-0.833-0.164-2.197,0.969-2.961c1.132-0.764,2.795-1.229,3.858-0.63c1.132-0.764,1.433-1.297,1.799-3.192l0.985-0.5
	l-0.018-2.461c0.532,0.3,0.532,0.3,0.765,1.132c-0.299,0.532-0.299,0.532,0.232,0.832l-0.979,0.497l0.021,2.89
	c0.461-0.094,0.972-0.701,1.655-0.891c0.465,1.663,1.229,2.794,1.462,3.627c-0.833,0.233-1.665,0.464-1.964,0.996
	c-0.833,0.233-1.132,0.764-0.899,1.596c-0.071,0.127-0.143,0.254-0.214,0.381l0.039,5.572c1.32-1.213,2.647-2.397,3.9-3.854
	c0.232,0.833,0.997,1.965,1.229,2.796c-1.432,1.296-2.33,2.893-3.23,4.488c-0.455,0.807-1.123,1.673-1.857,2.499l0.012,1.434
	l2.244-0.903l3.693-2.826c1.561,7.186,2.286,14.608,2.182,22.259c0.427,7.952-0.21,15.306-1.381,22.359l-2.195,0.165l1.229,2.796
	c-0.066,1.363-0.135,2.728-0.203,4.092c-0.149,0.264-0.129,0.429-0.26,0.668l8.007,0.84l-1.031,9.821l4.485,0.47
	c1.854-1.762,5.681-0.522,5.681-0.522s-1.6-2.784,1.021-4.575l0.517-4.917l-9.817-1.032l1.648-15.688l37.025,3.878l-1.66,15.784
	l-9.929-1.044l-0.495,4.71c2.081,1.5,0.514,5.199,0.514,5.199s2.874,0.115,4.552,1.261l5.533,0.581l1.032-9.819l12.178,1.28
	c0.012-2.671,0.106-5.26-0.042-8.086l-0.834-15.913c-0.27-5.147,1.327-37.377-22.523-53.725
	C181.69,184.406,158.771,185.842,141.69,186.736z M192.291,307.854l9.93,1.042l-0.891,8.489c3.549-2.534,6.36-5.539,8.781-8.803
	l-6.568-0.691l1.045-9.931l-6.06-0.637c-1.573,0.655-3.396,0.038-5.03-0.967l-0.491,4.679c0.312,0.229,0.633,0.458,0.99,0.682
	l-0.412,3.922l-1.05-0.11L192.291,307.854z M171.676,263.81l10.113,1.063l-0.669,6.367c3.018,0.083,6.263,2.701,6.263,2.701
	s3.354-1.303,6.347-0.986l0.711-6.762l9.713,1.021l1.131-10.749l-32.478-3.415L171.676,263.81z M178.334,297.748
	c2.738-2.355,3.131-6.036,3.131-6.036s-1.06,1.167-2.724,2.158L178.334,297.748z M189.028,292.506c0,0-1.133,3.223,1.943,6.698
	l0.459-4.359C190.006,293.643,189.028,292.506,189.028,292.506z M198.732,318.802l0.805-7.641l-9.715-1.02l0.511-4.844l-12.651-1.33
	l-0.509,4.832l-10.113-1.062l-1.131,10.757l27.876,2.93C195.528,320.602,197.209,319.749,198.732,318.802z M172.079,285.493
	c0,0-1.668-2.732-1.194-6.092l-6.154-0.647l1.063-10.114l-6.161-0.647c-0.124,0.404-0.48,0.855-0.502,1.292
	c-0.821-0.462-1.46-0.274-2.004,0.251c-0.019,5.989-0.856,10.517-3.731,13.587l-1.772,16.864l10.748,1.129l1.021-9.712l6.229,0.653
	C169.466,289.282,172.079,285.493,172.079,285.493z M157.021,264.94c0.404-0.562,0.749-1.33,1.315-1.712
	c-0.415-0.233-0.904-0.285-1.396-0.308C156.974,263.602,156.996,264.285,157.021,264.94z M161.853,230.856l-1.963,0.997l0.464,1.665
	c0,0,0,0,0.833-0.233C161.785,232.221,162.086,231.689,161.853,230.856z M219.706,274.307l-9.982-1.05l-1.065,10.114l-6.564-0.691
	c-0.293,2.474-2.735,5.766-2.735,5.766s2.794,3.759,1.255,6.87l6.728,0.708l-1.021,9.712l5.183,0.545
	C217.006,297.688,219.439,286.958,219.706,274.307z M251.431,608.979c2.168,0,2.847,1.356,2.847,2.621
	c0,1.269-0.679,2.625-2.847,2.625h-4.927v-5.246H251.431z M246.504,621.322h5.333c2.17,0,2.895,1.445,2.895,2.803
	s-0.725,2.849-2.895,2.849h-5.333V621.322z M251.927,601.882h-13.336v32.188h14.014c5.743,0,10.037-3.347,10.037-9.494
	c0-4.521-2.668-6.194-3.979-7.008c0.995-0.679,3.524-2.711,3.524-6.372C262.189,605.633,258.618,601.882,251.927,601.882z
	 M221.503,608.979c2.17,0,3.438,1.584,3.438,3.257c0,1.671-1.268,3.255-3.438,3.255h-4.477v-6.512H221.503z M221.865,601.882
	h-12.747v32.188h7.909v-11.98h2.667l5.697,11.979h9.178l-6.963-13.427c2.53-1.268,5.244-4.023,5.244-8.408
	C232.851,606.945,229.008,601.882,221.865,601.882z M203.511,601.882h-21.88v32.188h21.88v-7.054h-13.968v-5.651h11.936v-7.051
	h-11.936v-5.381h13.968V601.882z M159.389,601.882h-8.182l10.624,32.188h5.877l10.669-32.188h-8.229l-5.334,17.991L159.389,601.882z
	 M136.877,608.934c1.989,0,3.074,0.725,3.797,1.811c0.632,0.903,0.859,1.809,0.859,7.231c0,5.471-0.228,6.329-0.859,7.232
	c-0.723,1.086-1.808,1.809-3.797,1.809h-3.481v-18.083H136.877z M137.419,601.882h-11.936v32.188h11.936
	c3.346,0,6.465-0.949,8.681-3.164c3.751-3.752,3.345-7.867,3.345-12.931c0-5.062,0.407-9.178-3.345-12.929
	C143.884,602.831,140.765,601.882,137.419,601.882z M98.452,605.229c-3.392,3.389-3.256,7.91-3.256,12.747
	c0,4.839-0.136,9.356,3.256,12.748c2.35,2.353,5.198,3.616,8.95,3.616c3.525,0,6.601-0.768,9.358-3.616
	c2.441-2.484,3.255-5.516,3.255-10.713v-4.476h-12.613v6.6h4.747v0.451c0,1.222-0.316,2.532-1.222,3.436
	c-0.723,0.771-1.853,1.269-3.525,1.269c-1.446,0-2.531-0.59-3.119-1.356c-0.724-0.948-1.176-2.081-1.176-7.957
	c0-5.878,0.452-6.962,1.176-7.91c0.587-0.77,1.673-1.401,3.119-1.401c2.713,0,3.979,1.175,4.61,3.616h7.957
	c-0.768-5.289-4.294-10.668-12.567-10.668C103.515,601.612,100.802,602.876,98.452,605.229z M73.769,601.882h-7.911v20.886
	c0,7.052,5.471,11.572,12.16,11.572c6.69,0,12.251-4.521,12.251-11.572v-20.886h-7.912v20.704c0,2.984-1.717,4.703-4.339,4.703
	c-2.621,0-4.25-1.719-4.25-4.703L73.769,601.882L73.769,601.882z M60.795,601.882h-21.88v32.188h21.881v-7.054h-13.97v-5.651h11.935
	v-7.051H46.826v-5.381h13.969V601.882z M17.171,625.662l-5.199,5.152c2.622,2.622,5.019,3.525,8.771,3.525
	c6.058,0,12.115-3.662,12.115-11.302v-21.156h-7.912v20.976c0,3.075-1.764,4.433-4.203,4.433
	C18.979,627.29,18.165,626.657,17.171,625.662z M33.932,14.205l-3.968,2.834c-1.7-0.567-2.833-2.267-2.834-4.535
	c0-0.566,0.566-1.133,1.134-1.7l3.4-0.567l1.133,0.567c0,0,0.565,0.567,1.134,1.701L33.932,14.205L33.932,14.205z M14.663,26.673
	l-0.567,3.966c-0.567,0.567-1.701,1.134-3.401,1.7l-3.967-2.267c0.567,0,0-1.133-0.566-2.833c0.566-2.268,2.267-3.401,5.668-3.401
	L14.663,26.673z M56.602,17.604c1.632-4.9,2.158-10.329,1.699-15.772L5.835,0L4.744,31.233c3.015,2.034,4.348,4.582,4.977,7.362
	l3.808-2.854l1.135,0.566c0.565,0.568,1.699,1.134,2.266,1.702l3.401,10.199c0,0.568,0,0.568-0.567,1.134c0,0,0,0.568,0,1.134
	h-0.564c-0.567,0-0.567,0-0.567,0.566c0,0,0,0-0.567,0l-7.854-5.543c-0.036,1.065-0.07,2.126-0.107,3.203l-0.91,26.037
	c9.537-3.963,17.418-9.582,23.606-16.896c6.8-7.368,13.035-15.301,17.569-24.37C53.201,28.373,54.9,22.706,56.602,17.604z
	 M37.898,115.084c-1.134,1.134-2.833,2.266-5.667,2.834l-4.534-1.7c-0.565-1.134-0.565-2.268-1.699-3.968c0-1.7,0-2.834,1.134-3.968
	c0-0.566,1.133-0.566,2.833-1.134l0.566,1.134C33.364,108.851,36.198,111.117,37.898,115.084z M25.997,119.052l0.566,0.566
	l3.967,0.566c1.7,1.133,2.833,2.833,2.833,5.101c-0.565,1.7-1.133,2.834-0.565,4.534c0.565,1.701,0,3.4-0.567,3.968l-9.067-5.668
	c-1.134-1.134-1.7-2.834-1.135-5.102C22.03,121.318,23.163,120.185,25.997,119.052z M16.928,126.986
	c0.001,0.566-0.565,1.134-1.133,1.7c-1.7,0-2.268-0.566-2.834-1.7c0.566-0.568,0.566-0.568,0.566-1.134s0-0.566,0.567-1.134
	l1.133-0.566C15.795,124.152,16.363,125.286,16.928,126.986z M147.347,36.213l1.091-31.233L81.658,2.647L80.566,33.88
	c6.434,4.34,5.585,10.894,5.356,17.469l-0.66,18.903l-20.958-0.73l0.659-18.904c0.078-2.246,0.18-4.449,0.423-6.588
	c-1.228,0.314-2.457,0.464-3.685-0.356c-2.268,0-3.968-1.131-4.534-2.266c-0.566-1.7-0.567-2.833-0.567-4.534
	c0.001-1.701,0.567-2.833,1.134-3.968c0.567-0.567,1.7-1.133,2.833-1.133c1.134,0,2.268-0.567,3.4-1.134l0.567,0.567l5.101,3.966
	c0.003,0.024-0.005,0.038-0.002,0.061c0.628-0.558,1.062-1.189,1.892-1.669l1.092-31.232L60.625,1.914
	c0.451,3.886,0.695,7.797,0.51,11.724C60.568,25.539,57.167,37.44,49.8,48.208C42.999,58.41,34.498,66.911,23.73,73.145
	c2.833,2.268,5.101,4.534,5.667,6.236c-1.133,0.566-2.267,1.7-3.967,2.266c-1.7,1.134-3.967,1.134-5.668,0.565l-2.834-4.534
	l0.567-1.132c-2.655,1.592-5.779,2.653-8.496,3.716l-1.661,47.549c-0.139,3.978-0.241,7.89-1.643,11.279l0.466,0.93
	c-0.566,0.566-0.566,1.132,0,0.566c-0.154,0.154-0.341,0.341-0.566,0.565c-0.419,0.421-0.648,0.202-0.839,0
	c-0.93,1.392-2.164,2.664-3.979,3.71L0,167.097c0.73,0.628,1.462,1.279,2.193,1.826c2.833,1.7,5.101,3.968,7.368,6.234
	c1.7-0.566,2.268-1.7,2.268-4.534l4.533-3.966l3.967-15.303c0-0.566,0-1.132-0.567-1.7l6.802-3.966v-2.834l2.833-3.402l4.535-0.566
	c0.566,0.566,1.133,1.134,2.268,1.7c0,1.134,1.133,2.268,2.267,2.833c0.567,0.566,1.133,1.7,0.566,2.268
	c-0.566,1.132-0.566,2.266-1.134,3.4c1.135,1.7,0.567,2.834-1.699,1.7c-2.268,0-3.968,0-4.534,1.7c0,0.568,0,1.134,0.565,1.7
	c0.567,0,0.567,0.568,1.133,1.134l-2.267,1.134v5.099c0,0-0.567,0.568-2.267,1.134l1.671,14.483l35.965,1.254l1.09-31.232
	c-6.432-4.338-5.585-10.892-5.354-17.469l0.903-25.89l20.958,0.732l-0.903,25.89c-0.23,6.575,0.156,13.172-6.562,17.053
	l-1.091,31.232l66.782,2.333l1.091-31.233c-6.433-4.34-5.586-10.894-5.357-17.469l2.764-79.108
	C141.016,46.689,140.629,40.093,147.347,36.213z M290.201,197.666c0,1.7-0.566,2.834-1.136,3.968
	c-0.564,0.566-1.696,1.134-2.834,1.134c-1.132,0-2.265,0.565-3.398,1.134l-0.565-0.568l-5.103-3.968c-0.565-3.966,0-6.8,2.834-8.5
	c1.702-0.568,3.398-1.134,5.102,0c2.27,0,3.966,1.134,4.534,2.266C290.203,194.832,290.203,195.966,290.201,197.666z
	 M303.694,178.245l-41.978,2.202c14.608-7.199,23.784-20.828,24.642-45.361l1.456-41.726c-4.174,5.276-8.764,9.467-14.349,13.021
	c-6.233,3.968-13.601,6.802-21.534,7.934c-6.791,0.886-13.412,0.47-19.738-1.187l-0.794,22.712
	c-0.042,1.234,0.139,13.789-11.165,13.396c-11.302-0.396-10.247-12.909-10.203-14.141l1.175-33.627
	c-8.44-7.343-14.833-16.286-18.216-27.392c-2.267-6.233-2.834-13.035-2.267-19.269c0-6.233,1.701-13.035,5.102-19.269
	c2.834-3.968,6.799-7.935,10.77-11.901c3.966-3.968,9.067-5.101,14.167-4.535c1.134,0.566,2.267,1.133,3.402,1.701
	c1.131,1.132,1.131,2.267,0,2.834c-3.402,1.7-6.805,2.833-10.204,4.534c-3.399,1.7-6.8,3.399-9.634,5.667
	c-6.8,5.668-10.2,12.467-11.336,20.969c-1.133,8.501,0,16.436,3.399,23.803c3.429,7.711,8.655,14.132,14.918,19.901l1.508-43.142
	c0.041-1.234-0.142-13.585,11.158-13.189c11.3,0.395,10.255,12.702,10.21,13.935l-1.938,55.56
	c5.512,1.585,11.311,2.089,17.419,1.508c9.636-1.134,18.137-4.534,24.938-11.335c6.316-5.832,10.619-12.603,13.604-19.743
	l0.74-21.196c0.557-15.892-2.676-27.473-8.787-35.949c-0.348-0.485-0.726-0.954-1.08-1.43C268.215,9.866,249.155,5,225.301,4.167
	c-38.836-1.356-65.93,8.602-67.451,52.164l-2.59,74.178c-1.521,43.561,24.811,55.385,63.646,56.742
	c1.188,0.042,2.259-0.036,3.424-0.016l1.615,30.855c7.734,4.289,7.425,11.812,7.817,19.301l2.308,44.06l9.853-12.282l18.231,31.782
	L247.5,269.815l26.415-33.324l-6.692,63.7l1.333,0.139l6.695-63.697l18.913,38.086l-20.812,27.408l23.102-25.796l-0.908-17.305
	c-0.786-1.232-1.848-2.227-2.511-3.554c-5.666-10.767-7.936-22.668-7.368-34.57c0.564-11.901,3.968-23.802,11.335-34.57
	C298.97,183.376,301.421,180.902,303.694,178.245z M363.308,195.966c3.384,14.09,9.584,27.055,17.455,39.459
	c-0.266-9.784-2.212-32.053-18.758-46.305C362.485,191.397,362.742,193.692,363.308,195.966z M364.445,271.91
	c-0.566,0-0.566,0-0.566,0.566s-0.569,0.566-1.136,0.566h-0.565c-0.565-1.132-1.702-2.266-2.269-2.834c-1.132,0-1.698-1.7-1.698-3.4
	l2.834-2.833c2.265,0,3.4,0.568,3.967,1.702C365.576,266.808,365.01,269.076,364.445,271.91z M355.377,263.975
	c-0.568,0.568-0.568,0.568-0.568,1.134s-0.568,0.566-1.134,1.134h-1.132c-0.568-0.568-1.138-1.7-1.138-3.4
	c0-0.568,0.568-1.133,2.27-1.133C354.809,262.274,355.377,263.409,355.377,263.975z M347.442,232.238c0,1.134-0.566,1.7-1.702,1.7
	l-0.565-0.568l-0.565-0.566c0.565-0.566,0.565-0.566,0.565-1.134c0,0,0,0,0.565-0.566
	C346.875,232.238,347.442,232.804,347.442,232.238z M340.641,207.302c-0.567,2.266-2.268,3.399-5.668,3.399l-2.832-2.834
	l0.564-3.965c0.565-0.568,1.699-1.134,3.399-1.702l3.968,2.268C339.505,204.468,340.073,205.602,340.641,207.302z M338.375,190.298
	l-0.567,5.102l-4.535,3.4l-1.131-0.566c-0.569-0.568-1.703-1.134-2.27-1.702l-3.398-10.199c0-0.568,0-0.568,0.564-1.134
	c0,0,0-0.565,0-1.133h0.566c0.567,0,0.567,0,0.567-0.566c0,0,0,0,0.564,0L338.375,190.298z M319.67,222.037
	c0,0.566-0.567,1.134-1.134,1.7l-3.399,0.566l-1.135-0.566c0,0-0.565-0.565-1.134-1.7v-1.7l3.968-2.834
	C318.537,218.069,319.67,219.769,319.67,222.037z M381.71,255.577l-0.27-5.133c-3.141-2.878-6.141-5.889-9.063-9.138
	c-5.1-5.668-9.069-11.902-12.47-18.135c-5.1-10.202-9.066-20.971-10.768-32.873c-0.431-3.025-0.551-5.937-0.828-8.899
	c-10.896-3.66-23.588-4.011-35.268-3.554c-6.405,7.055-12.303,14.604-16.609,23.222c-2.834,5.1-4.536,10.768-6.234,15.867
	c-1.7,5.102-2.268,10.77-1.7,16.437c0.512,8.196,3.088,15.811,6.887,22.665l-1.848-35.258l5.851-0.306
	c18.485-0.97,18.335,9.598,19.33,28.55c0.637,12.206,1.287,20.842-3.389,25.692c0.345,0.168,0.588,0.433,0.938,0.595
	c11.901,5.1,24.938,6.8,39.672,4.534c8.626-1.363,16.945-4.042,25.431-7.297C381.838,267.212,382.028,261.64,381.71,255.577z"/>
</svg>
