<?xml version="1.0" encoding="utf-8"?>
<!DOCTYPE svg PUBLIC "-//W3C//DTD SVG 1.1//EN" "http://www.w3.org/Graphics/SVG/1.1/DTD/svg11.dtd">
<svg version="1.1" id="Layer_1" xmlns="http://www.w3.org/2000/svg" xmlns:xlink="http://www.w3.org/1999/xlink" x="0px" y="0px"
	 width="1016.258px" height="1171px" viewBox="0 0 1016.258 1171" enable-background="new 0 0 1016.258 1171" xml:space="preserve">
<path d="M486.085,0c16.333,0,32.667,0,49,0c-11.179,6.343-5.364,25.752-17,31c-12.564,5.667-30.322-1.631-47,3
	C479.288,25.871,475.743,5.993,486.085,0z M411.085,42c-4.239-0.149,2.196-4.484,2-7c-0.761-12.427,1.429-21.904,7-28
	c16.612-1.72,32.299-4.368,49-6c-11.241,8.229-2.318,29.372-16,35c-5.901,2.427-15.098,0.873-22,2
	C424.11,39.139,418.475,41.69,411.085,42z M600.085,8c-9.512,7.489-10.044,23.958-21,30c-13.562-2.771-29.17-3.498-44-5
	c-3.128-2.174,3.519-4.851,5-8c3.58-7.612,3.264-20.604,12-23C569.129,2.956,583.715,6.37,600.085,8z M401.085,11
	c0.133-0.115,0.917,0.144,1,0c-4.33,7.546-1.627,25.925-8,35c-15.688,3.645-29.818,8.848-45,13c7.115-8.775-2.864-29.31,7-36
	C370.802,18.717,386.172,15.087,401.085,11z M664.085,25c-10.549,6.119-11.974,21.36-24,26c-14.571-3.762-28.603-8.065-45-10
	c9.318-5.823,8.469-17.159,15-24C622.177,4.334,646.648,23.375,664.085,25z M337.085,29c2.674,1.726-0.883,6.014-1,10
	c-0.269,9.066,4.74,20.333-2,26c-14.91,5.09-27.222,12.779-42.001,18c5.548-12.593-6.505-25.207,1-35
	C306.58,40.496,322.373,35.289,337.085,29z M726.085,50c-14.259,2.899-14.021,21.665-28,22c-11.572,0.277-28.462-15.77-43-16
	c12.407-3.718,12.252-24.077,25-25C693.731,30.012,712.53,46.746,726.085,50z M277.084,55c-2.125,11.347,6.144,25.454,1,37
	c-14.019,6.315-26.081,14.585-38,23c0.081-14.047-9.857-23.105-5-36C248.761,70.677,263.113,63.029,277.084,55z M784.085,82
	c-14.509,2.222-15.938,18.572-30,18c-14.44-0.587-25.856-18.521-42-21c2.309-1.357,4.459-2.875,8-3c5.61-4.832,6.674-11.676,12-15
	C748.504,50.752,769.134,77.863,784.085,82z M220.084,89c-2.185,13,9.683,21.319,6,36c-13.437,8.23-24.663,18.671-36,29
	c0.479-14.812-10.331-18.336-9-34C192.766,108.349,207.16,99.409,220.084,89z M838.085,122c-16.084,0.481-18.621,16.147-33,14
	c-12.261-1.831-24.905-22.729-38-26c1.123-3.209,6.802-1.865,9-4c6.146-3.42,7.622-9.704,13-12
	C806.961,86.368,823.632,116.419,838.085,122z M565.085,583c-15.949-0.384-29.98-2.686-47-2c0.77-123.77-2.271-243.728-10-359
	c-10.964,112.371-10.952,235.712-11,359c-17.395-0.727-31.576,1.757-48,2c-4.293-52.231-21.979-92.477-40-133
	c-17.701-39.804-39.831-78.903-43-129c-3.381-53.435,19.556-96.461,47-126c28.817-31.018,67.515-55.256,95-82
	c25.95,29.42,63.741,48.227,91,78c26.143,28.556,49.764,67.676,50,118c0.256,54.453-23.546,95.824-42,137
	C587.876,488.854,570.725,530.408,565.085,583z M168.084,130c-1.604,13.492,13.601,20.536,10,34c-3.003,11.233-27.841,22.423-31,35
	c-0.885-15.21-15.653-18.641-13-33C136.894,150.798,161.052,143.201,168.084,130z M884.085,169c-16.332-1.056-18.752,12.39-33,9
	c-11.788-2.805-22.601-27.028-35-31c15.948-0.025,18.513-15.558,33-13C862.329,136.338,876.074,162.874,884.085,169z M121.084,178
	c1.899,13.731,16.42,18.101,15,31c-0.709,6.444-9.565,13.906-14,20c-5.155,7.087-8.315,14.548-14,19c0.654-16.65-16.92-15.943-16-30
	c0.375-5.735,9.634-15.294,14-21C111.241,190.26,117.63,184.632,121.084,178z M926.085,220c-12.638-2.216-21.48,10.098-36,6
	c-8.828-13.172-20.021-23.98-29-37c14.758,4.396,20.37-12.034,36-7C906.917,194.501,916.142,207.609,926.085,220z M82.084,231
	c1.937,14.409,18.081,15.444,18,29c-0.087,14.683-18.644,26.574-21,43c-2.023-14.705-20.221-14.235-21-28
	C57.289,260.952,78.318,243.524,82.084,231z M935.085,235c8.431,13.902,17.494,27.172,24,43c-13.63-4.486-24.814,7.359-36,0
	c-6.437-14.231-15.69-25.643-23-39C913.135,242.37,920.743,230.165,935.085,235z M49.084,289c4.864,11.803,18.895,14.439,23,27
	c-5.342,14.658-11.625,28.375-16,44c-4.256-12.597-23.399-11.971-25-25C29.431,321.534,47.688,303.162,49.084,289z M986.085,338
	c-8.285-2.922-27.618,2.692-36-3c-5.211-14.79-12.404-27.596-18-42c12.448,4.013,25.641-6.673,36,1
	C973.92,308.832,979.987,323.43,986.085,338z M25.084,350c4.364,12.969,22.297,12.369,26,26c-4.312,13.687-7.97,28.03-10,44
	c-7.229-9.771-23.868-10.132-29-22C15.702,381.285,20.299,365.548,25.084,350z M433.085,585c-19.767,2.234-39.86,4.14-58,8
	c-10.052-42.691-46.074-97.458-100.001-74c-24.376,10.604-40.322,41.696-31,78c-71.646,6.81-122.938-53.342-118-127
	c5.251-78.321,88.315-148.377,177.001-109C377.786,394.168,421.966,488.111,433.085,585z M202.084,447
	c-10.056,4.278-19.712,8.954-28,15c10.5,1.501,21.606,2.394,31,5c2.151,9.516,3.815,19.519,5,30c7.489-6.844,9.192-19.474,16-27
	c10.839,0.495,19.603,3.065,30,4c-3.261-7.745-16.072-14.589-21-24c5.337-8.33,9.22-18.114,14-27c-11.352,2.981-18.796,9.87-29,14
	c-7.274-7.725-14.113-15.886-23-22C198.385,426.032,200.783,435.968,202.084,447z M771.085,598c9.791-47.487-14.825-85.988-59-84
	c-41.576,1.871-61.521,43.989-72,79c-17.968-4.367-39.473-5.195-59-8c6.959-61.887,25.156-111.286,54-154
	c26.146-38.72,65.641-80.091,127-81c72.916-1.08,132.111,61.748,127,138C884.941,549.79,841.646,600.988,771.085,598z M793.085,437
	c-8.169-5.499-17.229-10.105-27-14c4.587,9.413,9.392,18.608,14,28c-3.005,3.355-6.861,7.861-11,12c-3.715,3.714-10.898,7.688-9,11
	c9.781-1.218,18.699-3.299,29-4c5.528,8.804,8.464,20.203,15,28c2.489-10.176,2.715-22.619,6-32c10.919-0.415,20.088-2.579,30-4
	c-6.787-7.546-19.656-9.01-27-16c-0.133-10.221,6.515-24.03,3-31C808.674,422.589,802.161,431.077,793.085,437z M956.085,350
	c10.601,5.232,28.95-3.124,36,6c3.717,15.616,8.093,30.574,12,46c-6.421-4.586-30.813,0.151-36-9
	C965.563,377.187,959.649,364.768,956.085,350z M972.085,409c6.925,8.408,28.813,1.853,35,11c2.744,14.921,5.206,30.127,6,47
	c-0.746,4.616-3.954-3.472-7-3c-6.449-2.776-11.894-0.267-17-2C971.939,456.183,979.275,425.242,972.085,409z M9.084,415
	c6.053,10.948,24.341,9.659,29,22c-2.89,13.777-3.899,29.434-5,45c-7.937-8.73-25.293-8.04-31-19
	C3.873,446.456,5.609,429.858,9.084,415z M981.085,471c7.12,10.439,25.16,2.601,32,13c7.393,11.241-0.681,32.414,1,49
	c-3.296,1.156-5.308-3.116-10-5c-13.047-5.237-21.271-2.009-21-20C983.254,496.805,981.331,484.248,981.085,471z M1.084,481
	c6.611,9.389,25.451,6.549,31,17c-0.096,15.763,0.456,30.877,2,45c-2.021,2.633-5.071-2.628-9-4c-8.718-3.043-22.592-1.654-25-11
	C0.451,512.367-0.829,495.087,1.084,481z M982.085,534c7.395,9.605,26.865,7.134,31,20c-1.692,15.641-4.313,30.354-6,46
	c-4.209-0.334-4.635-4.346-9-7c-7.546-4.585-18.281-4.669-21-14C979.764,565.013,980.485,549.068,982.085,534z M2.084,547
	c9.112,9.955,28.743,2.351,34,16c4.526,11.75,1.351,29.485,6,43c-7.724-6.942-28.135-1.198-34-10
	C5.265,580.486,2.462,564.955,2.084,547z M974.085,595c5.332,12.592,25.551,9.316,28,23c2.735,15.287-10.777,30.197-12,47
	c-5.107-12.719-24.438-10.987-26-25C962.582,626.521,975.124,612.777,974.085,595z M463.085,600c48.235-2.709,114.017-2.094,162,8
	c14.966,3.148,39.176,9.453,39,19c-0.276,14.984-53.444,20.893-69,23c-69.531,9.421-150.816,8.242-213-7
	c-11.574-2.837-30.168-6.558-31-15c-1.37-13.889,36.764-19.021,48-21C420.765,603.182,440.356,601.276,463.085,600z M612.085,620
	c-33.595-3.98-76.594-8.411-111-6c-44.262,3.102-95.153-0.162-130,13c76.39,16.409,194.098,15.018,272,1
	C636.188,620.335,623.36,621.336,612.085,620z M11.084,613c7.63,7.036,28.756,0.578,35,9c3.47,15.531,8.497,29.503,13,44
	c-8.828-6.354-28.062,2.252-36-6C18.586,644.831,14.447,629.304,11.084,613z M962.085,654c2.926,14.116,21.937,13.202,23,27
	c1.023,13.293-18.465,34.188-23,45c-1.033-15.724-19.128-14.939-19-29C943.176,686.914,960.406,669.075,962.085,654z M433.085,669
	c-7.934,43.645-33.384,118.913-93,108c-29.89-5.471-47.64-30.449-53.001-63c41.418,19.451,88.464-7.576,92.001-49
	c-0.045-1.711,0.742-2.59,2-3C397.604,665.146,415.52,666.896,433.085,669z M727.085,713c-5.747,36.429-29.481,65.243-67,64
	c-26.798-0.888-42.517-21.29-54-40c-12.885-20.99-21.713-42.961-25-68c17.668-1.979,34.812-3.771,49-7
	c6.477-1.474,6.455,10.481,9,17C651.169,709.957,688.118,731.12,727.085,713z M496.085,672c3.937,40.729,1.619,87.713,11,123
	c10.087-34.579,8.516-80.818,11-123c16.586,0.873,35.082-1.521,48-1c6.377,44.289,22.922,78.412,44,108
	c-15.834,33.029-39.447,58.134-71,79c-7.856,5.195-23.129,18-32,18c-8.506,0-24.295-12.717-32-18
	c-29.957-20.539-53.772-45.507-70-78c21.212-29.127,35.683-66.757,43-107c0.107-0.596,1.388-4.216,2-2
	C465.851,670.9,479.693,672.725,496.085,672z M29.084,677c11.42,5.934,27.314-4,36,4c5.255,14.745,12.295,27.705,18,42
	c-12.828-4.155-25.519,6.405-36-1C41.149,706.935,34.448,692.636,29.084,677z M936.085,713c1.996,14.82,20.885,14.954,21,29
	c0.055,6.634-8.017,15.195-12,22c-4.401,7.517-7.817,14.534-12,21c-2.695-14.188-18.691-15.99-18-30
	C915.813,740.219,933.331,728.852,936.085,713z M92.084,738c6.092,14.574,15.99,25.344,23,39c-13.483-4.361-23.09,9.798-36,3
	c-8.364-13.302-15.65-27.683-24-41C67.225,741.312,81,731.102,92.084,738z M905.085,768c1.049,14.307,19.92,15.492,17,31
	c-2.61,13.86-23.193,28.378-30,39c0.23-16.234-14.447-16.876-13-31C880.593,792.286,901.015,783.116,905.085,768z M125.084,790
	c8.048,12.621,21.273,25.391,28,36c-15.247-3.748-21.562,15.802-35,8c-4.499-2.612-10.29-12.845-15-19
	c-5.397-7.055-9.471-14.465-14-19C103.186,796.454,110.623,785.972,125.084,790z M867.085,818c2.248,13.266,16.604,18.848,14,32
	c-2.245,11.332-28.349,26.604-35,35c1.033-16.254-12.338-18.916-9-33C840.4,838.003,862.901,832.357,867.085,818z M199.084,869
	c-16.225-0.025-19.218,16.05-34,13c-12.088-2.494-26.592-29.065-34-35c16.103,0.274,19.57-13.22,33-9
	C178.129,842.413,184.315,863.619,199.084,869z M824.085,862c0.488,14.465,12.875,20.252,9,36c-12.688,9.645-25.453,19.214-38,29
	c2.078-12.773-10.005-21.387-6-36C801.35,881.933,813.679,872.928,824.085,862z M248.084,906c-14.024,2.642-16.708,16.626-32,18
	c-13.258-9.742-26.078-19.922-39-30c16.097-0.615,18.068-16.505,33-14C221.986,881.996,234.833,903.095,248.084,906z M302.085,937
	c-14.35,2.735-14.585,21.282-29.001,21c-6.39-0.125-15.314-8.074-22-12c-7.521-4.417-14.055-8.674-21-12
	c13.029,0.548,20.035-24.38,32-18C272.407,921.505,290.555,931.714,302.085,937z M722.085,932c-3.656,9.639,5.33,24.808,0,36
	c-15.923,7.411-32.316,14.35-50,20c6.573-8.426,1.396-28.604,8-37C694.565,945.148,709.366,939.615,722.085,932z M638.085,953
	c-11.471,0.836-22.944,11.621-35,14c-3.973,0.783-8.467-0.445-12,0c-10.819,1.364-17.44,7.709-25,13
	c-6.848-5.674-21.685-13.623-20-24c1.811-11.159,41.099-20.9,57-20C618.904,936.896,633.147,942.871,638.085,953z M509.085,963
	c-5.238,8.428-14.378,12.957-25,16c-12.616-6.051-31.307-6.027-50-6c-0.356-15.689,7.668-22.998,15-31
	C478.286,939.798,496.591,948.494,509.085,963z M420.085,943c2.779,5.891-8.091,20.491-3,32c-10.816,12.184-25.441,20.559-33,36
	c-11.462-3.56-21.924-16.707-21-27C364.389,969.454,404.185,943.604,420.085,943z M360.085,960c-12.529,4.471-12.536,21.465-26,25
	c-15.95-5.05-29.978-12.023-45.001-18c10.637-3.544,11.615-15.025,19.001-20C322.975,936.97,341.475,959.527,360.085,960z
	 M535.085,959c2.285,13.714,11.402,20.598,18,30c-18.451,17.148-39.039,35.452-77,30c-0.98-13.312,1.58-23.086,7-30
	C509.848,988.431,520.497,971.746,535.085,959z M472.085,989c-3.206,9.794-8.957,17.043-8,31c-24.225-1.109-43.188-7.479-61-15
	c8.026-7.312,12.223-19.513,24-21C439.859,982.387,455.142,992.099,472.085,989z M580.085,1020c-14.043,1.564-33.555,2.131-45-2
	c8.641-8.026,19.67-13.663,27-23c10.436-0.898,18.281-4.385,26-8C592.554,997.224,586.211,1013.729,580.085,1020z M355.085,1000
	c5.079,12.92,11.446,24.553,28,26c-0.865,21.531,9.582,31.752,19,43c-6.746,7.5-24.134,6.562-37,5
	C352.126,1057.67,345.737,1024.414,355.085,1000z M660.085,1058c-10.328-6.005-21.248-11.419-33-16c3.725-5.166,8.817-15.401,4-23
	c10.209-6.791,23.188-10.812,34-17C675.367,1016.574,671.697,1048.096,660.085,1058z M471.085,1039c-8.33,7.337-15.597,15.738-24,23
	c-8.739-4.007-20.241-4.454-32-3c-7.256-6.745-12.994-15.006-17-25C421.687,1027.426,451.502,1032.493,471.085,1039z M625.085,1050
	c-16.735,1.932-27.146,10.188-38,18c-25.976-0.358-34.232-18.434-57-22C551.532,1025.388,606.406,1031.573,625.085,1050z
	 M552.085,1072c-4.493,11.507-15.421,16.58-25,23c-17.313-14.02-40.686-21.982-65-29c9.565-7.434,20.059-13.941,30-21
	C515.428,1050.656,537.298,1057.787,552.085,1072z M363.085,1090c-5.328,5.005-11.784,8.883-16,15c-9.197-7.688-21.229-20.188-38-14
	c9.089-12.244,17.764-24.902,33-31C349.252,1069.833,351.955,1084.129,363.085,1090z M676.085,1098
	c-14.973-6.404-28.519,4.404-36,12c-10.177-14.491-20.766-28.568-38-36C626.163,1043.938,667.434,1075.952,676.085,1098z
	 M416.085,1076c10.373,3.893,19.118,4.483,27,3c-0.664,15.867-7.183,30.236-19,32c-16.604,2.479-34.802-14.945-46-21
	C392.301,1086.883,412.331,1089.58,416.085,1076z M595.085,1078c-2.498,7.28,18.077,18.748,18,23c-0.11,5.962-22.134,12.303-29,13
	c-17.756,1.803-34.039-4.877-44-10c8.541-9.459,21.39-14.61,26-28C574.453,1077.82,585.549,1080.473,595.085,1078z M457.085,1077
	c16.284,3.715,32.573,7.426,46,14c-14.048,12.62-28.936,24.398-56,24C450.588,1106.878,462.816,1094.428,457.085,1077z
	 M335.085,1115c-4.916,5.751-10.249,11.084-16,16c-9.022-6.645-17.76-13.574-24.001-23
	C307.198,1098.036,328.45,1104.933,335.085,1115z M691.085,1116c-7.717,8.284-15.984,16.016-26,22c1.492-5.136-15-11.594-15-16
	c0-4.094,14.899-12.775,22-13C680.164,1108.745,685.51,1114.076,691.085,1116z M287.084,1118c8.941,6.061,15.78,14.22,23.001,22
	c-8.402,1.926-14.931-14.057-24.001-18C285.661,1119.91,286.77,1119.354,287.084,1118z M301.085,1150
	c-3.396,3.938-5.938,8.729-9.001,13c-10.061-7.939-17.562-18.438-25-29c2.988-3.012,7.723-4.278,10-8
	C286.333,1132.751,294.333,1140.751,301.085,1150z M698.085,1129c-8.128,5.93-15.281,17.975-25,19c5.954-8.045,15.2-12.799,21-21
	C696.812,1126.271,696.097,1128.987,698.085,1129z M717.085,1143c-7.737,10.263-16.158,19.842-26,28c-2.683-4.984-5.282-10.051-9-14
	c6.946-8.387,16.422-14.244,23-23C710.286,1135.798,713.045,1140.04,717.085,1143z M776.085,900c-4.832,12.521,11.312,26.058,4,36
	c-8.104,11.017-31.997,15.994-43,24c4.494-13.224-6.553-23.281-1-35C749.651,916.9,763.635,909.217,776.085,900z M661.085,956
	c-5.282,8.377-0.223,23.998-5,36c-18.383,8.618-34.527,19.473-57,24c-2.652-1.845,1.967-5.771,3-10c1.97-8.065-0.188-19.293,3-26
	C623.091,971.339,642.017,963.6,661.085,956z"/>
</svg>
