<?xml version="1.0" encoding="utf-8"?>
<!DOCTYPE svg PUBLIC "-//W3C//DTD SVG 1.1//EN" "http://www.w3.org/Graphics/SVG/1.1/DTD/svg11.dtd">
<svg version="1.1" id="Layer_1" xmlns="http://www.w3.org/2000/svg" xmlns:xlink="http://www.w3.org/1999/xlink" x="0px" y="0px"
	 width="1170px" height="1170px" viewBox="0 0 1170 1170" enable-background="new 0 0 1170 1170" xml:space="preserve">
<path d="M1170,560c0,16.333,0,32.667,0,49c-10.967,172.553-79.488,296.487-172,389c-92.513,92.513-216.311,161.188-389,172
	c-16,0-32,0-48,0c-172.689-10.812-296.485-79.486-389-172C79.494,905.494,10.942,781.566,0,609c0-16.333,0-32.667,0-49
	c4.803-85.357,26.981-166.276,58-229c32.629-65.984,72.668-118.668,120-166C270.111,72.889,404.702,0,585,0
	c178.174,0,314.087,72.086,407,165C1088.051,261.051,1158.168,381.197,1170,560z M567,62c-8.207,1.849-6.651,13.238-9,21
	c-1.562,5.156-7.473,8.626-5,11c12.371-1.627,27.175-0.825,41-1c11.773-4.558,7.882-24.785,19-30
	C599.081,61.25,582.408,62.257,567,62z M506,69c-7.22,4.738-3.835,16.999-6,25c-0.905,3.341-5.688,6.297-3,8
	c15.203-5.461,40.132-1.202,48-14c-1.814-11.378,6.897-22.66,6-25C535.926,64.926,520.235,66.235,506,69z M620,68
	c-6.979,7.604-2.281,20.208-13,25c15.672,0.662,29.354,3.31,45,4c9.976-5.691,9.982-21.349,20-27
	C654.899,70.685,630.614,56.438,620,68z M448,83c-8.274,7.898,1.019,27.187-7,35c13.699-4.966,28.041-9.291,43-13
	c5.089-4.76,3.633-12.804,4-20c0.299-5.86,4.892-10.273,3-13C475.778,74.778,461.995,78.997,448,83z M676,80
	c-5.072,6.925-4.704,16.687-13,20c17.302-0.966,30.407,11.515,44,9c12.397-2.294,10.365-21.192,24-24
	C709.516,82.757,688.094,63.489,676,80z M392,105c-6.646,9.571,2.704,25.508-1,35c11.796-7.204,25.895-12.105,39-18
	c8.352-8.134-2.361-24.42,5-34C419.323,92.323,405.777,98.777,392,105z M741,90c-11.08,4.587-11.84,19.496-24,23
	c14.439,4.892,28.209,10.458,42,16c12.526-3.472,13.816-18.182,27-21C771.635,101.365,758.227,93.773,741,90z M339,134
	c-5.482,13.72,8.819,23.077,2,35c13.215-7.785,25.775-16.223,39-24c4.5-10.894-4.672-24.077-1-34
	C365.503,118.503,351.729,125.729,339,134z M790,116c-5.969,2.998-6.718,11.408-14,15c-1.824,1.509-5.605,1.061-7,3
	c15.502,2.236,25.919,19.428,40,20c13.264,0.539,15.014-14.717,29-17C823.979,133.064,805.545,108.19,790,116z M291,169
	c-7.724,13.708,11.073,18.177,7,34c9.831-7.504,24.353-18.979,35-29c1.111-13.855-8.787-22.51-5-33
	C320.91,149.767,296.296,159.599,291,169z M850,146c-11.266-6.975-19.479,17.924-32,15c6.191,3.199,11.69,8.523,18,13
	c5.347,3.795,14.11,12.312,19,13c12.971,1.824,16.337-13.388,31-14C874.544,163.774,860.094,152.25,850,146z M675,472
	c15.899-35.869,36.109-72.917,39-116c3.963-59.101-21.449-96.703-49-125c-24.361-25.021-55.869-42.575-79-68
	c-50.729,50.409-129,84.483-129,180c0,47.451,20.962,86.342,38,124c17.343,38.333,33.477,76.068,38,124
	c13.282-2.383,29.661-1.67,44-3c-0.375-109.707,1.314-217.351,9-319c6.562,101.841,10.517,211.391,8,319
	c14.846,1.154,31.198,0.8,45,3C642.081,545.379,658.531,509.147,675,472z M248,212c-2.706,13.63,10.967,17.407,12,32
	c4.078-13.913,25.891-19.338,29-33c3.039-13.354-9.832-17.167-9-33C274.143,188.882,250.47,199.559,248,212z M895,183
	c-13.831-2.483-16.322,12.029-32,12c12.871,7.872,23.312,23.247,34,30c14.41,1.677,18.055-12.52,32-8
	C920.006,209.568,907.537,185.251,895,183z M210,260c-0.589,13.236,15.095,14.349,16,29c3.355-11.986,22.984-24.924,25-36
	c2.58-14.189-12.865-16.257-13-32C233.497,232.397,210.575,247.082,210,260z M904,233c8.887,12.114,19.178,22.822,28,35
	c13.179,3.161,21.566-7.7,34-5c-8.988-12.679-18.237-25.097-28-37C921.512,223.023,918.011,236.629,904,233z M179,311
	c0.439,13.055,17.506,13.444,20,27c1.399-13.518,19.801-27.857,20-40c0.217-13.266-16.089-13.981-17-29
	C198.425,281.1,178.557,297.878,179,311z M974,275c-12.182-5.897-23.736,5.896-36,3c8.981,11.017,16.575,23.423,23,37
	c12.054,6.469,24.937-6.433,35,1C990.557,300.444,981.282,288.716,974,275z M155,366c1.87,12.72,20.327,11.003,23,25
	c1.106-16.421,15.291-28.498,15-42c-0.298-13.839-18.103-14.035-21-28C169.871,337.607,152.719,350.489,155,366z M985,366
	c8.613,6.538,26.336-1.847,35,5c-5.242-15.425-11.177-30.159-18-44c-11.276-5.463-26.574,3.652-35-1
	C974.186,338.148,979.961,351.706,985,366z M138,422c2.146,13.483,21.865,9.807,26,23c0.15-16.343,11.553-30.186,10-43
	c-1.674-13.808-20.722-11.211-24-25C148.299,392.842,135.702,407.578,138,422z M1002,419c6.214,8.453,27.748,1.585,34,10
	c-2.796-15.872-7.781-29.552-11-45c-7.775-8.35-27.436,0.335-35-7C993.573,391.424,999.143,403.857,1002,419z M473,455
	c-23.214-35.297-55.796-72.26-108-76c-74.19-5.314-125.271,50.729-125,118c0.244,61.029,43.11,109.243,108,107
	c-9.559-41.898,16.814-81.474,58-76c34.25,4.552,49.938,39.811,59,71c18.064-2.601,36.062-5.271,55-7
	C515.314,538.262,498.987,494.517,473,455z M907,567c60.013-77.16,2.198-197.082-101-188c-50.892,4.479-84.561,40.708-107,76
	c-24.474,38.486-42.404,81.188-47,137c18.444,2.221,37.327,4.004,55,7c9.142-31.215,25.312-67.694,61-71
	c39.241-3.635,65.566,32.917,56,76C865.277,606.711,889.306,589.75,907,567z M1012,475c3.948,6.304,14.541,4.392,23,7
	c4.77,1.471,6.12,7.008,9,4c-1.592-15.41-2.81-31.192-6-45c-6.729-7.605-26.354-2.312-33-10
	C1007.794,445.206,1010.743,459.255,1012,475z M129,482c4.933,11.067,23.98,8.018,29,19c-2.569-17.557,6.766-31.375,4-44
	c-2.91-13.284-22.679-8.872-27-22C132.354,450.021,129.257,464.59,129,482z M1015,531c5.859,9.806,23.526,7.805,30,17
	c0-15.667,0-31.333,0-47c-6.428-9.241-25.854-5.48-32-15C1014.341,500.326,1015.24,515.093,1015,531z M127,542
	c2.968,7.036,14.342,5.37,22,8c4.35,1.494,7.86,7.479,10,5c-1.535-13.465-2.104-27.898-2-43c-6.308-9.36-23.432-7.904-30-17
	C127,510.667,127,526.333,127,542z M1010,586c2.786,13.477,22.607,8.854,27,22c2.832-14.835,5.847-29.486,6-47
	c-5.262-10.74-23.83-8.17-29-19C1016.697,559.692,1007.403,573.448,1010,586z M134,602c3.458,6.156,15.321,3.213,23,5
	c5.15,1.199,7.919,6.625,10,4c-3.082-13.251-5.392-27.277-7-42c-5.621-9.713-25.752-4.914-32-14
	C129.156,571.511,131.04,587.294,134,602z M998,641c1.493,13.581,20.457,11.466,24,25c1.849-15.572,14.563-30.514,12-45
	c-2.37-13.386-21.777-9.849-26-23C1008.11,614.567,996.562,627.935,998,641z M490,610c-12.084,2.045-46.102,5.996-46,19
	c0.105,13.915,43.651,19.771,62,22c50.452,6.127,107.935,6.323,160,0c13.73-1.668,61.896-7.763,62-22
	c0.063-8.949-16.827-13.438-33-17c-42.321-9.32-96.356-10.269-144-8C529.48,605.024,513.949,605.947,490,610z M148,660
	c7.721,7.433,25.021-0.531,34,6c-3.576-14.425-9.145-26.857-12-42c-6.226-8.442-27.852-1.483-34-10
	C139.407,629.926,143.385,645.282,148,660z M979,693c0.42,12.987,17.152,13.908,19,28c7.101-13.899,14.724-27.276,21-42
	c-3.24-13.093-17.975-14.693-22-27C995.099,667.904,978.563,679.499,979,693z M470,662c-5.822,28.419-26.464,53.326-60,51
	c-8.602-0.597-18.615-6.312-24-5c5.771,33.652,28.4,63.312,67,58c40.722-5.605,59.409-61.026,67-100
	c-18.312-0.688-34.685-3.317-50-7C470,660,470,661,470,662z M701,660c-13.419,0.92-31.291,6.039-49,6
	c7.684,39.596,22.192,82.065,55,96c40.814,17.337,77.396-21.315,78-57C745.287,725.121,704.969,697.575,701,660z M533,668
	c-7.283,39.717-21.991,72.01-41,100c21.919,38.748,52.142,69.191,95,87c40.645-20.021,73.13-48.203,93-89
	c-19.974-26.028-34.578-57.422-40-98c-14.675,0.66-29.267,1.402-45,1c-2.854,37.146-0.431,79.571-10,110
	c-6.271-33.396-5.467-73.868-9-110C560.977,669.356,546.92,668.747,533,668z M170,716c11.555,5.512,26.458-3.417,35,1
	c-7.263-11.738-12.379-25.621-18-39c-8.642-8.678-26.492,2.17-35-6C157.242,687.425,163.175,702.158,170,716z M953,745
	c-0.439,13.363,16.11,14.11,17,29c3.77-11.976,22.849-28.112,23-41c0.16-13.768-17.437-14.06-20-28
	C971.565,718.47,953.394,733.025,953,745z M176,727c5.884,15.782,14.801,28.532,23,42c13.254,3.694,22.993-6.447,35-4
	c-9.083-10.917-16.585-23.415-23-37C199.035,721.756,186.146,734.661,176,727z M921,791c-1.772,13.639,12.802,15.476,13,31
	c4.656-11.262,27.576-25.911,28-39c0.423-13.097-15.032-14.392-16-29C942.202,766.134,922.298,781.011,921,791z M206,780
	c9.002,12.664,18.146,25.185,28,37c16.565,2.9,18.007-9.326,34-7c-9.021-11.981-19.108-22.892-28-35
	C224.861,773.513,216.864,782.922,206,780z M883,832c-3.104,13.316,9.556,15.967,8,32c6.137-7.136,30.73-20.672,33-33
	c2.357-12.826-7.231-15.4-10-24c-1.093-3.39,0.805-5.014-2-8C907.948,813.088,886.213,818.218,883,832z M292,834
	c-4.812-4.716-10.53-13.518-16-15c-13.724-3.72-15.965,9.645-32,8c6.493,10.843,20.538,22.793,31,33
	c17.173,1.84,19.148-11.517,34-12C303.186,844.404,297.821,839.705,292,834z M840,867c-3.974,13.984,7.077,22.635,5,35
	c9.427-10.23,30.146-18.422,36-30c5.699-11.275-11.146-19.324-7-33C863.352,849.018,851.948,858.283,840,867z M319,857
	c-17.01-1.675-18.268,12.4-33,13c11.145,4.707,25.495,27.104,38,28c13.479,0.967,14.799-15.673,30-16
	C341.433,874.567,330.087,865.913,319,857z M792,898c-5.187,11.401,5.994,22.289,0,34c14.887-6.446,27.885-14.781,41-23
	c4.427-13.504-7.358-24.441-3-35C818.223,882.889,804.89,890.224,792,898z M362,889c-12.912-0.018-13.896,15.38-28,17
	c11.622,3.592,27.761,22.55,40,23c13.878,0.511,14.688-17.601,29-20C389.327,907.403,374.59,889.018,362,889z M742,921
	c-5.616,8.055-4.241,28.419-7,36c15.135-6.865,32.482-11.516,46-20c4.673-10.338-3.299-24.614,0-34
	C769.288,910.29,755.515,915.515,742,921z M679,908c-22.074-2.524-57.363,8.504-59,18c-1.64,9.497,12.021,18.251,19,23
	c7.258-4.718,12.896-10.701,23-12c3.241-0.417,7.268,0.776,11,0c11.224-2.334,22.11-12.352,33-13
	C701.985,916.318,691.053,909.378,679,908z M532,913c-5.693,8.307-13.991,14.009-13,29c10.144,1.032,19.483-0.571,30,1
	c5.921,0.885,11.554,4.984,16,5c10.721,0.038,15.161-9.105,24-13C579.511,918.085,557.896,910.482,532,913z M454,952
	c4.729,10.936,7.936,23.396,22,25c5.839-14.494,18.951-21.714,29-32c-2.873-12.056,1.79-23.836,6-32
	C483.687,917.688,465.647,931.646,454,952z M413,915c-10.671,0.59-11.541,11.36-20,17c-2.162,0.838-3.411,2.589-7,2
	c10.14,4.15,31.152,20.564,44,19c13.081-1.593,11.405-19.981,25-23C441.284,929.151,425.877,914.288,413,915z M673,948
	c-1.552,12.116-1.66,25.674-7,34c22.16-3.838,37.824-14.173,55-23c2.337-6.726,3.791-14.141,1-21c0.57-4.454,5.991-9.304,4-13
	C708.027,932.36,689.5,939.166,673,948z M562,956c-3.2,7.801-6.375,15.625-5,28c35.59,5.458,55.818-11.843,72-29
	c-8.149-6.851-15.652-14.348-17-28C597.658,938.994,587.918,955.585,562,956z M513,951c-11.342,1.5-15.171,13.084-23,20
	c17.48,6.518,34.369,13.629,58,14c-2.073-10.694,3.584-21.539,8-29C539.9,958.57,525.52,949.344,513,951z M660,953
	c-7.386,3.616-15.283,6.717-25,8c-7.046,8.622-17.088,14.247-26,21c9.504,5.585,29.601,4.48,43,3
	C658.5,979.434,663.227,961.651,660,953z M458,1033c10.937,3.28,27.206,2.488,34-4c-8.486-10.848-18.362-20.305-18-40
	c-15.9-1.101-20.33-13.671-26-25C440.28,985.74,443.197,1021.591,458,1033z M697,982c3.17,8.24,0.555,16.369-4,22
	c4.85,2.866,9.562,3.836,16,7c3.296,1.62,12.502,9.487,15,9c6.01-1.174,11.008-19.691,11-30c-0.009-8.741-3.569-15.659-4-23
	C718.755,971.088,708.196,976.863,697,982z M486,997c3.289,9.71,10.608,15.391,15,24c11.162-2.457,21.465-1.402,31,2
	c8.058-6.942,15.021-14.977,23-22C535.818,994.724,507.314,989.932,486,997z M605,1008c22.158,1.396,30.977,24.713,54,20
	c9.261-1.896,22.337-20.927,37-15C678.554,994.474,625.866,986.943,605,1008z M573,1006c-7.039-1.964-22.657,18.114-29,20
	c21.939,7.061,44.075,13.923,60,27c9.089-5.911,19.24-10.758,23-22C615.912,1017.938,589.823,1010.694,573,1006z M404,1052
	c12.245-11.732,29.062,2.312,37,10c4.032-6.299,11.254-9.412,16-15c-9.753-5.582-14.912-15.755-18-28
	C422.005,1024.007,410.754,1040.085,404,1052z M671,1034c16.065,6.6,25.237,20.094,35,33c6.841-10.637,26.408-17.161,37-10
	C732.77,1037.872,693.516,1001.049,671,1034z M503,1034c-3.368,11.721-22.262,11.821-35,11c5.91,7.789,26.846,24.425,43,22
	c11.931-1.791,17.186-14.741,18-30C518.88,1037.453,509.772,1036.895,503,1034z M614,1060c16.541,12.274,56.479,14.247,69-3
	c-8.704-4.629-12.891-13.777-18-22c-7.228,4.201-18.888,0.052-27-1C634.282,1046.951,622.045,1051.378,614,1060z M529,1070
	c25.028,3.131,41.791-10.037,55-22c-13.467-5.869-28.204-10.462-45-13C545.482,1049.756,535.666,1062.097,529,1070z M393,1064
	c5.956,9.043,14.628,15.371,23,22c4.312-6.021,10.728-9.939,15-16C425.162,1059.176,403.39,1053.36,393,1064z M714,1075
	c3.928,7.072,10.404,11.594,16,17c7.36-7.305,16.532-12.8,23-21C742.692,1059.95,721.747,1064.928,714,1075z M385,1076
	c8.423,4.643,12.973,18.271,23,18c-1.45-7.812-13.223-13.254-18-21c-1.278-0.056-1.387-1.281-3-1
	C386.987,1073.987,384.271,1073.271,385,1076z M378,1079c-3.156,3.511-7.844,5.491-11,9c8.843,8.49,14.572,20.093,25,27
	c2.112-5.887,6.546-9.453,9-15C392.585,1093.748,387.244,1084.421,378,1079z M755,1080c-5.641,7.427-18.33,12.915-20,21
	c9.406-1.006,17.67-11.604,24-19C757.013,1081.987,757.729,1079.271,755,1080z M765,1086c-6.726,7.943-15.714,13.622-22,22
	c3.878,3.789,5.974,9.359,9,14c9.507-7.826,17.661-17.004,25-27C772.834,1092.166,769.731,1088.27,765,1086z M359,490
	c-7.086-6.25-13.75-12.916-20-20c5.004-7.662,8.552-16.781,13-25c-8.938,4.064-17.146,8.854-26,13c-5.478-5.021-15.497-18.912-20-18
	c1.473,8.86,3.715,16.952,4,27c-8.829,3.504-16.973,7.696-24,13c9.774,1.224,20.342,1.658,28,5c1.274,9.391,2.059,19.274,5,27
	c3.877-8.789,7.455-17.876,13-25C341.256,487.087,352.146,490.84,359,490z M833,471c-7.084,6.25-13.75,12.916-20,20
	c9.171-1.496,17.938-3.395,28-4c4.445,8.219,7.993,17.338,13,25c1.316-9.348,3.52-17.814,4-28c9.681-1.653,20.312-2.353,29-5
	c-9.232-3.434-17.115-8.218-25-13c-0.268-9.609,4.454-19.531,3-27c-7.409,5.924-12.658,14.009-21,19c-6.462-4.88-17.54-10.451-24-12
	C825.005,453.662,828.553,462.781,833,471z M708,630c-70.959,12.696-173.05,12.735-244,0c24.965-12.28,65.035-7.918,99-12
	c24.582-2.954,52.188,0.459,77,2C664.963,621.551,690.245,620.9,708,630z"/>
</svg>
