<?xml version="1.0" encoding="utf-8"?>
<!DOCTYPE svg PUBLIC "-//W3C//DTD SVG 1.1//EN" "http://www.w3.org/Graphics/SVG/1.1/DTD/svg11.dtd">
<svg version="1.1" id="Layer_1" xmlns="http://www.w3.org/2000/svg" xmlns:xlink="http://www.w3.org/1999/xlink" x="0px" y="0px"
	 width="401.758px" height="679.18px" viewBox="0 0 401.758 679.18" enable-background="new 0 0 401.758 679.18"
	 xml:space="preserve">
<g>
	<path fill-rule="evenodd" clip-rule="evenodd" d="M65.866,98.064c-7.091-7.979-13.109-0.888-21-7c-11.193-8.671-3.929-34.114,5-36
		c20.006-4.227,23.615,29.355,29,39c11.523-2.319,23.412,1.19,34-1c0.363-7.854,6.621-19.21,5-26c-1.051-4.404-8.532-9.421-11-12
		c-3.606-3.769-8.447-7.342-10-12c-8.036-24.108,14.496-52.536,40-40c9.615,4.726,23.773,22.824,25,37
		c0.911,10.524-4.723,16.428-7,25c-1.841,6.931-0.783,13.818-5,21c4.13,8.55,11.84,11.155,15,19c1.631,4.05,1.069,8.708,2,13
		c1.814,8.363,6.161,16.541,7,23c4.54,34.941-26.833,47.592-48,66c-7.098,15.405,9.658,36.218,5,51
		c-4.977,15.794-14.411,26.141-13,42c1.566,17.597,20.919,40.982,41,41c26.721,26.994,68.203,41.053,65,100
		c-1.158,21.305-7.299,54.255-28,57c-32.397,4.296-61.64-11.276-75-29c-6.07-8.052-8.474-23.218-12-36
		c-3.608-13.08-8.409-25.66-13-36c-9.075-20.438-19.691-45.19-30-69c-10.453-24.144-21.659-43.601-32-67
		c-9.964-22.548-21.022-54.603-20-77c0.292-6.386,3.547-15.558,0-20c-2.537-3.463-9.514-2.486-12-6c-0.381-13.061-6.595-31.806,6-34
		c10.431-1.817,19.81,9.159,21,22c6.28-5.72,5.769-18.231,12-24C52.112,116.977,56.389,104.92,65.866,98.064z"/>
	<path fill-rule="evenodd" clip-rule="evenodd" d="M75.866,23.064c16.773-1.235,21.861,41.321,5,43
		C61.803,67.963,48.306,25.094,75.866,23.064z"/>
	<path fill-rule="evenodd" clip-rule="evenodd" d="M20.866,125.064c-12.031-6.427-7.175-29.292,3-32
		C51.516,85.705,55.658,132.533,20.866,125.064z"/>
	<path fill-rule="evenodd" clip-rule="evenodd" d="M271.866,267.064c11.414,0.244,21.456-5.808,33-7c12.962-1.338,24.412,4.839,37,3
		c5.301-6.949,7.215-16.564,16-18c14.798-2.419,27.452,17.394,18,29c-3.607,4.43-8.488,1.226-13,7c2.611,9.722,6.644,18.023,14,23
		c-7.15-11.899-4.962-32.181,9-33c9.311-0.546,18.896,22.005,15,31c-2.928,6.759-9.05,4.65-17,7c1.051,8.713,9.598,11.728,12,19
		c2.593,7.847,3.588,22.904,4,34c1.318,35.493-8.342,72.991-14,112c-2.644,18.225-4.678,36.476-8,55c-4.558,25.412-9.34,48.169-8,77
		c0.309,6.644,1.834,12.55,0,19c-5.383,18.938-24.391,39.935-44,48c-8.232,3.386-19.358,6.79-26,6c-8.072-0.961-21.76-14.633-26-21
		c-16.257-24.413-21.069-75.064-5-102c4.38-7.341,12.93-16.547,19-22c10.612-9.535,25.876-8.949,28-25c1.163-8.787-0.75-22.305-2-34
		c-3.162-29.58-15.436-58.441-33-73c-4.94-4.095-11.409-5.178-15-10c-5.67-7.614-4.946-18.68-10-26c-4.217-6.108-13.371-8.859-18-15
		c-13.264-17.595-7.72-43.572-8-66c2.676-5.324,7.152-8.847,9-15c-1.895-5.029-5.275-5.275-8-9c-3.094-4.23-4.039-11.256-7-16
		c-4.122-6.604-10.005-10.125-10-22c0.005-11.723,8.437-32.71,17-39c18.128-13.314,44.438,3.762,47,22
		c2.487,17.702-10.364,23.056-10,37c-2.955-0.121-5.261,4.506-5,7C263.396,255.132,274.976,258.218,271.866,267.064z"/>
	<path fill-rule="evenodd" clip-rule="evenodd" d="M286.866,193.064c13.688-6.889,27.462,2.023,29,14
		c1.334,10.385-6.807,25.191-16,26C283.687,234.488,280.168,207.106,286.866,193.064z"/>
	<path fill-rule="evenodd" clip-rule="evenodd" d="M315.866,255.064c-11.095-13.252-2.525-41.613,13-40
		c9.496,0.986,17.273,17.235,14,28C340.228,251.741,328.373,257.459,315.866,255.064z"/>
</g>
</svg>
