<?xml version="1.0" encoding="utf-8"?>
<!DOCTYPE svg PUBLIC "-//W3C//DTD SVG 1.1//EN" "http://www.w3.org/Graphics/SVG/1.1/DTD/svg11.dtd">
<svg version="1.1" id="Layer_1" xmlns="http://www.w3.org/2000/svg" xmlns:xlink="http://www.w3.org/1999/xlink" x="0px" y="0px"
	 width="335.823px" height="550.105px" viewBox="0 0 335.823 550.105" enable-background="new 0 0 335.823 550.105"
	 xml:space="preserve">
<g>
	<path fill-rule="evenodd" clip-rule="evenodd" d="M315.823,388.045c0.265,4.122-7.75,3.52-10,2
		C306.43,386.954,314.034,383.735,315.823,388.045z"/>
	<path fill-rule="evenodd" clip-rule="evenodd" d="M42.823,411.045c1.307,4.372,1.787,5.027,1,10
		C29.436,425.484,24.149,399.571,42.823,411.045z"/>
	<path fill-rule="evenodd" clip-rule="evenodd" d="M287.823,173.045c-3,5.001-10.188,3.67-14,3c-10.885-1.915-22.365-12.971-30-18
		c-26.387-3.454-47.629-8.255-74-10c-5.457,6.691-7.751,18.021-11,28c-8.167,25.09-13.512,54.315-21,82
		c-1.451,5.363-3.267,11.43-4,16c-1.31,8.162-2.479,23.202,1,29c3.39,5.65,12.817,5.288,13,12c-3.202,8.197-12.501,4.654-19,3
		c-7.026-1.788-14.943-4.125-20-6c-1.77-8.103,5.492-7.175,9-10c-2.289-6.262,0.087-13.531,1-20c6.882-48.769,21.863-94.346,36-133
		c-5.618-5.673-15.753-3.229-24-4c-11.368-1.063-21.674-4.437-31-4c-4.263,3.115-4.939,10.836-6,18c-3.432,23.18-9.566,51.468-8,82
		c0.545,10.624,1.479,23.872,5,29c3.616,5.268,13.052,4.314,14,12c-9.458,10.92-32.361,1.493-41-4c0.829-4.504,4.631-6.036,9-7
		c-5.442-46.022,4.407-89.556,12-132c-9.074-11.662-30.79-14.892-39-27c-9.757-14.389,0.345-35.624,8-49
		c15.003-26.217,39.707-48.85,71-60c4.54-1.618,11.635-5.373,16-1c-0.208,8.631-7.605,6.104-12,8c-13.805,5.958-27.805,19.281-38,31
		c-14.014,16.108-28.582,35.963-38,58c10.206,8.794,21.499,16.501,36,21c10.551-8.057,12.191-21.703,18-33
		c1.295-2.519,4.385-4.321,6-7c1.662-2.757,2.334-6.343,4-9c9.254-14.761,22.573-28.256,36-40c-7.99-4.343-20.433-4.234-20-17
		c28.185-4.221,48.205,4.296,69,13c23.077,9.659,42.385,19.631,61,33c3.128,5.243,10.6,14.418,6,21c4.795-1.465,10.672-3.271,15,0
		c-0.396,10.271-13.902,7.431-17,15c17.477-5.309,31.546,13.241,31,32c-0.277,9.532-7,21-16,24c-4.661,1.554-9.292,3.528-16,5
		c0,0.667,0,1.333,0,2c1.658,1.562,6.083,3.04,10,7C281.859,166.343,287.799,166.736,287.823,173.045z M261.823,72.045
		c-27.487-16.72-59.253-39.616-97-41c-0.361-0.013-1.724-0.203-2,0c-27.628,20.28-47.256,56.228-59,94
		c15.495,6.172,36.494,6.839,57,8c12.854-20.018,23.87-48.473,39-67c4.273-5.233,12.8-15.519,21-9c-3.229,6.46-8.594,11.442-13,17
		c-13.798,17.406-25.451,36.964-32,61c17.631,1.753,36.98,7.668,54,4c5.092-25.908,16.96-45.04,36-57
		C260.947,82.255,261.801,76.734,261.823,72.045z M279.823,124.045c0.074-4.26,1.673-6.994,1-12
		C268.408,106.189,266.359,124.432,279.823,124.045z"/>
	<path fill-rule="evenodd" clip-rule="evenodd" d="M49.823,3.045c0.789,10.789-4.927,15.073-7,23c6.767,0.566,11.776-8.319,19-12
		c7.267-3.703,16.316-6.304,25-3c2.132,3.804-0.055,6.578-1,10c-15.82,2.869-25.146,6.53-33,18c-5.57,8.134-12.086,18.436-13,29
		c-4.879,1.384-4.379-4.25-7-7c-5.274-5.535-12.846-7.598-14-17c-0.828-6.744,3.657-22.596,10-31
		C33.188,7.262,41.626,0.283,49.823,3.045z"/>
	<path fill-rule="evenodd" clip-rule="evenodd" d="M36.823,353.045c-6.86-14.201-25.964-25.138-34-41c-0.45-0.889-0.289-1.428,0-1
		c-4.134-6.119-2.709-19.436-2-31c1.212-19.745,6.114-42.621,8-59c1.18-10.241-0.851-24.404,3-32c1.825-3.599,7.472-7.05,12-11
		c7.629-6.655,12.445-12.56,23-15c4.548-7.452,5.438-18.562,7-29c4.04-3.349,14.92-2.535,18,1c0.03,15.228-3.393,30.706-6,46
		c-7.155,41.972-15.633,90.125-13,134c0.167,2.794,0.347,8.305,1,11c4.086,16.858,19.175,27.234,22,46
		c-8.812,2.085-17.021-4.026-23-8c-3.358,8.879-3.424,26.421,2,31c4.882-6.479,0.276-17.87,10-19c3.755-0.437,9.238,4.468,10,5
		c2.174,1.52,6.51,4.319,8,7c5.281,9.5-2.973,20.444-1,29c1.443,6.261,12.382,11.928,19,14c4.407-9.205-0.623-33.501,11-36
		c8.583-1.846,20.413,16.212,22,24c2.094,10.275-1.648,19.058-1,27c4.265,4.734,12.762,5.238,20,7
		c-12.108-35.971,2.897-86.536,8-131c1.803-15.709,1.872-30.935,4-46c2.224-15.743,5.63-30.589,8-45c1.281-5.948-6.713-2.62-6-8
		c2.131-14.489,15.778-26.611,29-35c2.734-1.735,5.374-4.916,8-6c7.274-3.002,21.666-5.576,33-7c21.269-2.673,35.843,0.591,37,17
		c0.829,11.76-4.432,29.317-12,35c-3.101-5.655-0.746-14.481,0-23c0.747-8.53,2.106-17.308-1-24c-28.779,1.84-52.615,4.58-67,22
		c-2.087,30.215-12.354,60.941-17,94c-2.814,20.026-2.677,42.28-6,64c-4.036,26.379-10.229,53.764-8,75
		c0.817,7.787,5.236,14.484,5,22c14.232,4.928,29.206,11.932,45,7c3.157-0.986,5.802-4.872,9-6c6.077-2.144,14.471,0.533,18-5
		c-0.471-11.471,0.473-21.527,1-32c-9.438-1.379-20.474,0.505-30,4c-3.895,1.429-6.689,4.933-10,5c-5.637,0.114-8.414-4.476-13-8
		c-2.061-68.874,18.827-118.942,30-179c7.953-8.324,21.506-12.856,34-14c3.394-0.311,7.411-0.459,11,0
		c13.228,1.691,37.381,13.778,43,27c1.957,4.605,2.694,12.673,2,16c-1.267,6.068-6.456,9.999-8,18c-5.006,25.941,5.302,57.322-4,82
		c-2.08,3.125-5.036,0.708-8,3c-2.94,2.273-4.301,8.729-7,12c-2.877,3.485-6.538,7.906-11,8c-7.032,0.147-14.382-7.938-14-20
		c5.091-6.242,13.398-9.269,17-17c-7.501,1.812-12.364,3.479-19,2c-6.246,6.814-1.931,25.872-6,32c-13.435-2.609-7.566-17.062-6-32
		c2.292-21.856,4.614-49.124,9-67c-5.693-6.973-12.276-13.057-21-17c-6.156,5.305-7.194,14.783-9,23
		c-7.376,33.566-18.146,73.47-14,114c15.924-2.076,32.271-3.729,41-13c3.114,0.552,6.517,0.816,9,2c8.681-2.319,17.247-4.753,26-7
		c4.146,0.812,3.755-2.912,6-4c5.973,2.361,17.554-0.887,22,3c-1.851,10.778-15.387,10.629-25,13c-10.718,2.644-22.057,3.945-30,8
		c-2.851,14.385,0.692,37.11,1,52c-8.301,1.6-17.533,1.06-20,9c-25.791,5.583-54.625-2.4-79-7c-47.448-8.954-84.708-36.047-115-60
		c-0.81-0.19-0.997-1.003-2-1c1.732-3.86-5.913-7.301-8-13C34.165,378.895,29.584,362.172,36.823,353.045z M27.823,194.045
		c0.003-0.555-0.81-1.135-1,0c5.674,14.792-8.393,36.802-11,61c-0.915,8.49,0.722,19.346,0,29c-0.75,10.019-4.676,20.265-2,27
		c1.443,3.633,9.059,8.003,12,11c4.465,4.55,7.588,10.688,14,10c-8.208-48.271,0.101-95.992,3-148
		C35.104,184.659,32.731,190.621,27.823,194.045z M239.823,242.045c-6.392,7.132-5.845,15.596-9,27
		c17.186-3.087,23.027,15.675,36,17c7.012,0.716,15.115-3.673,24-5c1.312-9.021,1.248-19.419,6-25
		C290.676,241.263,254.088,226.125,239.823,242.045z M258.823,310.045c5.155-3.179,10.143-6.524,12-13
		c-4.423-0.243-7.285-2.048-12-2C257.227,298.154,257.227,306.937,258.823,310.045z M124.823,443.045c-2.442-0.558-2.131-3.869-6-3
		C117.104,444.176,123.355,445.407,124.823,443.045z"/>
	<path fill-rule="evenodd" clip-rule="evenodd" d="M324.823,380.045c-8.386,0.858-6.819-11.52-7-18
		c-0.956-34.279,5.289-78.601,9-108c-5.499-9.847-11.691-20.003-18-30c-1.894-3.001-4.227-5.053-6-8c-3.302-5.486-4.857-13.226-9-18
		c-3.125-3.602-11.515-4.883-12-10c-0.367-1.701,0.78-1.887,2-2c9.574-0.574,10.202,7.798,17,10c11.831,17.502,20.828,37.839,35,53
		c-1.427,32.162-6.466,67.25-9,100c-0.239,3.096-1.863,5.971-2,9C324.495,365.304,328.776,373.715,324.823,380.045z"/>
	<path fill-rule="evenodd" clip-rule="evenodd" d="M93.823,353.045c-11.022,2.081-23.43-2.369-26-12
		C77.643,337.046,92.88,341.836,93.823,353.045z"/>
	<path fill-rule="evenodd" clip-rule="evenodd" d="M122.823,367.045c-0.973,0.027-0.776,1.224-1,2c-10.584,1.383-18.299-1.982-25-8
		c-0.319-2.319,0.161-3.84,1-5C108.972,353.008,120.709,357.743,122.823,367.045z"/>
	<path fill-rule="evenodd" clip-rule="evenodd" d="M170.823,527.045c4.547-3.063,1.632-10.66,2-17c0.707-12.169,4.002-25.543,11-31
		c16.859,3.559-0.799,26.753,7,40c9.125-0.875,12.677-7.323,19-11c1.507-7.603-0.661-13.828,1-20c11.354-1.354,11.853,8.147,13,17
		c1.731,4.269,9.905,2.096,11,7c-8.563,10.77-22.812,15.855-33,25c2.172,2.386,2.637,7.583,1,11c-3.835,0.503-10.833,2.419-13,2
		c-17.902-3.461-38.422-11.188-59-17c-10.311-2.912-20.576-4.937-30-8c-9.153-2.976-16.545-8.754-25-12
		c-15.625-5.998-32.525-5.785-44-16c-7.859-0.474-14.579-2.088-19-6c-5.382-17.36,4.045-41.445,10-57c3.744-1.923,8.433-2.9,8-9
		c3.059-0.726,2.941,1.726,6,1c0.138,1.862,0.658,3.342,2,4c1.02,4.687-1.646,5.688-3,8c6.891,13.794-6.326,26.323-2,39
		c2.914,8.537,20.375,13.745,30,18C93.538,508.181,137.948,519.944,170.823,527.045z"/>
</g>
</svg>
