<?xml version="1.0" encoding="utf-8"?>
<!DOCTYPE svg PUBLIC "-//W3C//DTD SVG 1.1//EN" "http://www.w3.org/Graphics/SVG/1.1/DTD/svg11.dtd">
<svg version="1.1" id="Layer_1" xmlns="http://www.w3.org/2000/svg" xmlns:xlink="http://www.w3.org/1999/xlink" x="0px" y="0px"
	 width="526.099px" height="380.762px" viewBox="0 0 526.099 380.762" enable-background="new 0 0 526.099 380.762"
	 xml:space="preserve">
<g>
	<path fill-rule="evenodd" clip-rule="evenodd" d="M0.099,76.172c8.403-6.477,21.458-5.454,25,5c0.513,4.18-4.589,2.744-6,5
		c0.777,0.89,1.075,2.258,1,4c9.141-3.915,17.783-19.14,10-28c-13.249-2.583-16.179,5.154-24,8c4.284-6.63,10.387-15.84,19-17
		c10.995-1.48,22.374,7.079,20,22c-1.081,6.793-7.798,21.279-12,27c-1.326,1.806-4.425,3.067-6,5c-3.693,4.534-6.377,9.18-14,8
		c-10.47-1.621-16.381-21.136-10-33C4.465,77.806-0.773,80.044,0.099,76.172z"/>
	<path fill-rule="evenodd" clip-rule="evenodd" d="M456.099,176.172c1.862,4.473,2.837,9.83,6,13c15.389-3.156,27.23,4.363,34,13
		c-0.308,4.693-3.024,6.977-3,12c-12.044,10.059-35.693,3.527-41-8c-6.159-2.84-13.419-4.58-14-13c3,0,6,0,9,0
		c-0.395-5.938-5.973-6.693-6-13C442.386,174.689,451.093,175.094,456.099,176.172z"/>
	<path fill-rule="evenodd" clip-rule="evenodd" d="M30.099,331.172c8.196-6.555,21.159-3.004,29,1c0.207,4.725,9.166,9.324,11,14
		c6.708,17.102-6.513,39.881-24,28c-5.211-3.541-15.003-23.941-16-30C29.469,340.348,30.56,335.068,30.099,331.172z M55.099,361.172
		c5.498-6.115-1.282-18.244-6-17C52.432,348.506,49.569,359.035,55.099,361.172z"/>
	<path fill-rule="evenodd" clip-rule="evenodd" d="M30.099,105.172c10.571,3.429,23.176,4.824,34,8c-4.442-5.901,3.147-13.199,2-22
		c21.125-8.484,47.92-12.97,72-12c4.594,0.185,10.219,1.964,15,2c2.945,0.022,6.473-1.426,9-1c5.505,0.927,9.703,6.433,15,8
		c2.512,0.743,6.282-0.38,9,0c6.362,0.89,15.462,4.654,24,7c14.159,3.891,24.257,7.756,31,18c9.992-20.605,18.507-41.418,35-56
		c6.306-5.575,14.978-10.884,23-16c22.035-14.051,50.87-28.094,81-32c-0.088,3.912-5.384,2.616-7,5c25.093-1.626,55.496-3.327,79-8
		c7.35,1.218,8.405,3.433,14,2c5.269-1.35,5.625-7.125,10-8c6.894-1.379,11.681,6.054,23,3c9.582,8.752,19.193,17.473,27,28
		c-0.836,8.165-5.104,12.896-8,19c-22.554,12.839-44.62,1.735-50-20c-0.763-5.429,1.233-8.1,1-13c-8.125-0.013-24.317,0.266-32,4
		c-3.756,5.911-9.273,10.06-15,14c-2.6,1.817-3.016-0.433-6,1c-23.007,15.993-48.663,29.337-65,52c-2.928-0.261-3.072,2.261-6,2
		c-11.647,16.686-29.766,26.901-41,44c9.535,1.027,18.252-1.447,27-2c31.598-1.999,58.122,6.409,80,18
		c5.106,8.57,26.958,17.469,23,32c-1.617,5.938-8.074,4.688-12,10c2.265,3.736,9.286,2.715,11,7c-2.996,10.816-20.513,9.797-30,7
		c-2.839-0.836-4.238-3.518-7-5c-5.07-2.721-18.218-6.852-25-8c-6.664-1.129-13.524-0.018-20,0c-0.622,6.311-0.387,17.693,0,22
		c10.851,19.816,16.501,44.832,23,69c8.734,4.807,23.194-5.031,28,5c1.357,12.357-14.77,7.23-20,13c2.48,6.398,18.317-3.416,23,4
		c-1.805,10.133-11.465,9.102-22,12c-3.592,0.988-6.932,3.311-10,4c-2.883,0.648-5.397-0.705-8,0c-10.201,2.764-19.613,9.678-31,9
		c-0.569-5.666,6.161-5.871,10-8c7.111-3.941,15.291-8.875,24-13c0-2,0-4,0-6c-10.86-0.445-24.142,5.133-30,13
		c-3.059-0.725-2.941,1.727-6,1c-16.976,10.027-33.472,20.32-48,34c-6.47,6.092-14.082,13.271-22,19
		c-6.977,5.049-17.626,13.002-28,8c-1.443-11.527,19.67-8.934,21-21c-4.681-2.977-7.342,4.631-14,3
		c-9.718-23.615-17.473-49.193-30-70c-2.596-15.402-10.33-25.67-19-35c-5.913-0.086-10.258-1.742-14-4
		c-18.393,7.299-35.139,13.713-49,26c-2.075,1.84-2.812,4.879-5,7c-3.305,3.205-7.039,4.541-10,9c-2.224,3.35-2.37,7.875-5,11
		c-2.317,2.754-7.63,6.281-11,9c-4.187,3.379-8.458,7.334-14,6c-2.825-8.617,5.346-9.336,9-13c4.448-4.459,7.892-10.949,12-16
		c7.4-9.098,12.818-15.334,23-23c1.782-1.342,3.991-2.334,6-4c4.834-4.006,11.692-9.078,19-13c20.02-10.744,51.3-22.061,77-12
		c2.538,20.797,20.07,26.598,25,45c-5.279-1.721-6.168-7.83-12-9c1.306,23.66,10.831,46.049,21,64c-1.415,4.496-4.756,7.219-1,12
		c19.877-13.123,37.543-28.457,58-41c-1.543-5.123-5.534-7.799-7-13c-0.261-2.928,2.261-3.072,2-6c-2.729-16.361-7.54-37.078-16-53
		c-3.771,0.787-8.471,1.75-12,0c-2.141-4.064-0.355-8.588,1-12c-5.868-13.465-16.873-21.793-26-32c-3.787,5.236,0.316,9.715-2,16
		c-10.107-4.107-12.297-15.424-18-23c-9.589-12.736-27.248-23.201-47-23c-9.964,0.102-24.489,5.08-36,10
		c-10.242,4.379-19.947,11.285-28,17c-8.587,6.096-18.061,12.125-26,20c-13.447,13.34-28.553,30.047-32,52
		c-2.616,16.66-1.217,29.75-3,43c1.465,5.535,10.306,3.695,10,11c-4.637,3.072-13.12,0.391-18-2c-1.93-9.4-2.309-20.939-2-33
		c0.321-12.543,4.674-27.023,9-37c3.849-8.875,7.736-12.713,13-20c2.337-3.234,3.75-7.439,6-10c5.327-6.057,13.299-11.264,20-17
		c18.83-16.119,44.553-30.115,70-39c-29.852-18.054-67.9-31.091-112-39C52.585,117.569,37.106,116.049,30.099,105.172z
		 M490.099,19.172c0.135,0.067-4.044-4.056-7-2c-7.521,18.912,4.318,32.66,20,22c-0.064-4.937-3.004-11.202-6-10
		C498.831,23.043,493.559,20.908,490.099,19.172z M278.099,138.172c5.927-10.326,12.658-18.276,20-26c4.914-5.17,10.227-9.619,15-15
		c5.646-2.126,12.145-7.245,13-11c9.268-4.791,15.008-20.021,25-23c4.172-8.058,15.207-11.769,20-18c1.604-2.086,1.058,0.189,3-2
		c0.675-0.761,1.188-3.436,2-4c-0.292,0.203,1.144,1.401,2,1c3.22-1.507,6.508-5.546,11-8c4.002-2.186,9.709-2.095,12-7
		c-10.085-1.974-24.701,1.696-36-1c-0.798-2.203-2.008-3.993-5-4c-5.186-0.519-6.199,3.134-10,4c-8.758,2.284-12.464,3.996-19,9
		c-5.541-0.117-8.634,4.021-14,7c-3.103,1.723-9.975,3.012-12,8c-3.736-0.481-7.582,3.381-11,6c-3.553,2.722-7.667,5.92-11,9
		c-7.55,6.977-18.423,18.637-20,27c-2.636-2.651-2.114,2.961-5,3c-0.573,11.3-10.773,14.895-11,24c-0.244,9.783,14.856,16.586,10,30
		c6.283,2.055,4.901,6.859,11,8C273.043,150.562,274.502,144.44,278.099,138.172z M81.099,115.172c8.287-2.386,10.729,4.027,18,1
		c-3.387-4.28-7.533-7.8-9-14c-1,0-2,0-3,0C88.56,109.967,80.629,108.369,81.099,115.172z M235.099,142.172
		c-1.103-9.563-7.393-13.941-13-19c-2.255,0.745-0.391,5.609-1,8C226.684,128.386,225.549,143.021,235.099,142.172z
		 M333.099,161.172c7.759-0.649,7.161-8.877,6-16c-3.716-0.688-2.614-0.482-7-1C334.385,148.92,334.498,155.215,333.099,161.172z
		 M292.099,156.172c4.727,0.394,7.207-1.459,7-6C294.173,149.58,291.398,151.139,292.099,156.172z M390.099,181.172
		c6.849,2.621,9.31,3.43,18,4c-0.777-6.607-6.343-10.912-10-15c-3.67-4.101-7.088-10.591-14-11
		C386.429,170.292,392.722,167.526,390.099,181.172z M327.099,180.172c2.235-3.721,8.372-8.951,6-17c-2.767,3.82-7.553,8.957-7,13
		c-2.555,0.518-7.959,10.188-5,14C324.547,187.641,325.291,183.182,327.099,180.172z M285.099,193.172
		c-2.525,5.832,0.246,8.949,6,10C296.002,192.389,288.747,184.75,285.099,193.172z M354.099,291.172c2,0,4,0,6,0
		c-0.513-6.152-0.81-12.523-6-14C354.099,281.84,354.099,286.506,354.099,291.172z"/>
</g>
</svg>
