<?xml version="1.0" encoding="utf-8"?>
<!DOCTYPE svg PUBLIC "-//W3C//DTD SVG 1.1//EN" "http://www.w3.org/Graphics/SVG/1.1/DTD/svg11.dtd">
<svg version="1.1" id="Layer_1" xmlns="http://www.w3.org/2000/svg" xmlns:xlink="http://www.w3.org/1999/xlink" x="0px" y="0px"
	 width="472.702px" height="594.334px" viewBox="0 0 472.702 594.334" enable-background="new 0 0 472.702 594.334"
	 xml:space="preserve">
<g>
	<path fill-rule="evenodd" clip-rule="evenodd" d="M215.091,39.215c-0.774-6.527,2.608-11.66,1-16
		c-27.106-16.297-56.884,3.457-81,17c-18.602,10.447-30.432,25.411-23,46c-8.822,9.382-22.403,7.819-33,13
		c-29.671,14.507-60.52,41.447-67,78c18.341,13.489,38.988-10.705,60-6c11.061,12.34-12.042,25.136-20,36
		c-9.357,12.775-18.096,44.372-13,59c11.184,32.102,73.616,9.845,97-1c7.279-3.376,18.992-9.535,21-14
		c2.012-4.474-3.427-21.388,5-24c5.745-1.781,14.323,7.94,15,10c2.461,7.492,0.792,10.343,1,16c0.172,4.701,0.39,10.724,0,16
		c-4.276,57.906-29.266,119.277-25,185c0.569,8.77,5.837,22.037,2,32c-1.958,5.083-10.094,8.391-12,12
		c-3.547,6.718-3.101,20.112-3,27c8.02,2.51,18.223-0.98,22-6c2.159-70.261,10.506-135.508,17-211c1.423-16.542,0.593-34.523,8-49
		c5.733-0.733,7.369,2.631,12,3c33.71-13.956,75.838-19.496,103-40c-2.871-24.129-29.644-24.356-43-38
		c-11.908-1.806-19.436,5.758-29,3c6.35-16.044,24.592-18.792,39-25c14.362-6.188,29.599-13.889,44-21
		c14.571-7.195,29.357-13.881,41-23c-2.006-8.045-9.801-15.729-17-20c-22.452-13.318-58.506-26.952-89-22
		c-12.26,1.991-22.21,8.433-35,8c-6.201-4.775-4.496-19.747,0-25c16.9,3.075,35.597-1.465,60,2c20.838,2.958,44.71,11.099,62,22
		c17.705,11.164,34.6,25.981,41,42c4,10.012,1.41,24.378-7,29c35.81,10.19,57.715,34.285,75,63c4.787,1.404,9.399-2.534,12,0
		c2.835,5.515,1.599,11.289-5,12c17.196,12.006,16.698,39.193,18,64c0.752,14.321,5.212,31.545,3,39
		c-7.644,25.764-43.363,28.84-70,18c-3.685,4.21-17.249,13.479-17,21c0.214,6.464,9.902,8.698,10,14c0.16,8.702-28.162,23.341-36,26
		c-15.816,5.366-32.661,0.185-44-6c-7.175-3.913-11.132-10.942-17-15c-8.166-5.646-17.092-5.126-20-16
		c-9.5,7.895-13.162,19.937-20,33c-3.186,6.086-8.294,12.453-10,18c-2.889,9.391-3.826,22.769-6,35
		c-4.688,26.371-10.944,56.673-1,86c10.895,3.536,13.715,13.081,3,19c-1.903,4.43-0.207,12.46-4,15c-7.264-0.069-7.66-7.007-13-9
		c-14.593-0.26-27.411,1.256-39,4c-2.61,8.147,1.52,17.671-6,19c-10.329,1.825-7.29-17.882-14-24c-0.53-8.455-3.764-19.314-7-28
		c-8.092,1.709-16.55-1.844-24-1c-3.634,0.411-5.77,3.148-9,3c-4.763-0.22-9.333-4.062-14-5c-10.19-2.05-22.686,0.715-30-7
		c3.859-7.808,21.858-1.476,27-8c4.257-0.591,6.614,0.72,10,1c5.067-13.933,5.862-32.138,14-43c1.459-16.119-2-31.496-2-47
		c0-60.324,13.893-115.195,20-167c-26.44,9.366-58.583,46.712-101,25c-23.727-12.145-38.386-44.086-29-76
		c1.635-5.558,7.309-11.284,7-19c-16.739,0.211-28.66-12.731-30-31c-0.944-12.877,5.57-28.448,13-38
		c18.647-23.975,52.34-46.98,76-57c-2.652-8.715,2.233-16.397,4-26c16.926-12.532,40.036-35.416,69-44
		c17.993-5.332,42.826-0.666,58,10c6.157,4.328,17.746,14.325,17,21C236.188,41.291,223.823,43.728,215.091,39.215z
		 M426.091,204.215c-7.77,0.437-10.739-3.928-19-3c-23.801,34.16-57.311,79.82-91,107c-7.964,6.425-26.113,15.263-29,23
		c-3.675,9.85-0.841,17.878-3,26c8.581,0.556,13.466-8.191,19-13c18.717-16.262,36.94-33.344,56-48c-0.056-4.389,3.309-5.358,4-9
		c3.061-0.606,5.21-2.123,8-3c6.961-9.107,13.905-17.791,21-26c4.276-4.949,10.171-9.553,15-15c9.271-10.458,12.743-21.325,26-25
		C431.817,212.49,428.083,209.224,426.091,204.215z M438.091,334.215c4.668-18.497,28.261-87.262-1-92
		c-11.014,13.818-21.664,27.615-33,41c-10.423,12.307-23.028,23.659-30,39c9.942,10.352,17.807-2.961,24-11
		c6.816-8.849,16.662-17.639,20-23c3.473-5.579,3.021-14.644,11-14c7.521,0.606,8.178,13.11,5,21c-5.229,12.982-25.699,26.179-25,45
		C419.339,344.069,431.543,339.839,438.091,334.215z M185.091,385.215c-2.57,40.152-7.625,80.184-5,117
		c0.485,6.805,0.337,15.251,5,20c25.841-42.395,26.559-104.953,47-156c-1.76-6.907-2.604-14.729-7-19c-5.932-0.599-8.912,1.755-15,1
		c-8.347-4.986-11.146-15.521-16-24C190.264,341.971,186.48,363.517,185.091,385.215z M364.091,329.215
		c-16.563,19.437-40.581,31.419-56,52c7.76,15.644,37.356,13.991,48,2c-10.934-18.401,11.639-33.072,18-47
		C371.015,333.625,368.829,330.145,364.091,329.215z M205.091,524.215c1.957,4.043,5.861,6.139,7,11c-2.674,2.66-8.687,1.98-12,4
		c-4.322,6.011-6.121,14.546-14,17c12.093,6.909,25.431-1.166,36-6c-3.07-16.357-4.661-34.562-5-51c-0.221-0.779-0.837-1.163-2-1
		C211.654,506.778,207.217,514.341,205.091,524.215z"/>
</g>
</svg>
