<?xml version="1.0" encoding="utf-8"?>
<!DOCTYPE svg PUBLIC "-//W3C//DTD SVG 1.1//EN" "http://www.w3.org/Graphics/SVG/1.1/DTD/svg11.dtd">
<svg version="1.1" id="Layer_1" xmlns="http://www.w3.org/2000/svg" xmlns:xlink="http://www.w3.org/1999/xlink" x="0px" y="0px"
	 width="389.339px" height="592.317px" viewBox="0 0 389.339 592.317" enable-background="new 0 0 389.339 592.317"
	 xml:space="preserve">
<g>
	<path d="M278.187,362.93l-0.315,0.271l-2.246,2.508c-2.082,0.15-3.533-0.248-4.312-1.781c-0.233-0.904-0.466-1.809,0.185-2.65
		c0.082-1.178,0.733-2.02,1.343-2.273c0.904-0.23,1.492-0.191,2.375-0.129c0.884,0.062,1.452,0.396,2.021,0.732
		c0.273,0.314,0.527,0.926,0.485,1.514C277.68,361.709,277.934,362.321,278.187,362.93z M369.035,432.506
		c0.717-1.25,1.676-2.414,3.217-3.377v-25.195H339.55c1.831-1.033,3.041-1.822,3.041-1.822c0.11-0.088,0.232-0.117,0.343-0.209
		c11.193-9.123,12.574-19.582,13.523-33.156l3.627-51.877c0.928-13.252,0.678-25.937-10.014-35.616
		c-9.046-8.035-22.053-9.304-33.592-10.126c1.135,3.037,2.026,6.118,2.376,9.442c0.533,5.066,0.184,10.072-1.344,14.994l3.409,2.014
		l3.121,6.136c-0.548-0.631-1.136-0.672-2.082,0.148l-0.541,3.514l0.78,1.533l-2.04-0.438c-0.295-0.021-0.609,0.252-0.356,0.863
		c-0.062,0.883-0.103,1.471-0.418,1.744c-0.314,0.273-0.589-0.041-1.409-0.986c-0.295-0.02-0.59-0.041-0.904,0.232
		c0.232,0.904,0.78,1.535,0.738,2.123c0.527,0.924,0.486,1.514,0.719,2.418c1.185,4.225,2.094,8.133,2.415,12.002
		s0.033,7.99-0.55,12.092c-0.603,4.395-2.363,8.414-4.691,12.096c-0.425,0.594-1.01,1.043-1.479,1.6l-1.017,14.529
		c-0.7,10.02-3.847,13.209-13.22,12.553l-3.394-0.236l1.251-17.895c-3.545,0.641-7.136,0.893-10.723,0.469
		c-6.162-0.727-12.221-2.926-17.547-7.145c-5.053-3.902-9.159-8.627-12.007-14.447c-0.592,0.643-1.173,1.197-1.723,1.656
		l-1.961,28.041c-0.489,4.676-1.269,8.844-6.263,10.605l-1.904,24.559l2.633,0.213c0.743,0.51,1.481,1.035,2.235,1.496v-1.316
		l7.956,0.643v4.926c2.895,1.541,5.734,3.318,8.679,4.639c15.803,7.373,32.376,12.139,49.728,14.836l-7.984-20.736
		c5.14,0.189,10.579,0.289,15.939,0.207c0,0,0.836-0.295,1.932-0.691v19.57c1.529,0.957,2.488,2.109,3.204,3.35
		c5.833,0.502,9.278,0.906,15.319,0.906l-2.491,2.49c-4.667,0-6.917-0.229-11.695-0.662c0.576,2.439,0.47,5.137,0.47,7.84v16.635
		l23.794-22.652l-12.17,48.811l1.022,0.256l12.17-48.812l10.547,31.691l-19.183,19.043l19.623-16.557v-28.414
		c0-2.844-0.066-5.66,0.618-8.197C362.687,435.407,363.88,433.182,369.035,432.506z M234.732,84.436l0.583-0.563l0.468-2.917
		l-3.188-0.056l-0.697,1.766c-1.156,0.554-2.303,0.533-4.042,1.649c-1.718-0.03-2.864-0.05-3.99-1.216
		c-0.502-0.008-0.594-0.988-0.963-2.369l-18.063-0.315l-0.254,14.529c-0.092,5.217,0.763,14.134-7.498,14.074
		c0.128,0.725,0.373,1.609,0.494,2.279c4.001,0.643,7.992,1.859,11.993,2.502c4.001,0.644,8.555,2.442,12.535,4.231
		c2.845,1.196,5.689,2.393,7.962,3.578c2.271,1.186,4.544,2.372,7.389,3.568c0.466,0.291,1.184,0.678,1.681,0.972
		c1.175-0.76,2.538-1.379,3.595-2.221l0.466-26.682c-0.223,0.165-0.378,0.364-0.678,0.508c-0.562-0.583-0.562-0.583-1.136-0.593
		c-0.573-0.01-0.573-0.01-1.136-0.593l-0.553-1.156c0.01-0.573,1.166-1.126,2.895-1.669c0.223,0.004,0.439,0.313,0.66,0.457
		l0.113-6.477c-1.148,0.879-2.666,1.338-4.694,0.794C236.954,88.487,235.828,87.321,234.732,84.436z M243.554,132.073l-20.096,0.702
		c4.021-1.213,8.15-2.324,11.624-4.119c-4.674-1.841-9.535-3.447-14.802-4.352c-7.429-1.276-14.857-2.552-21.723-3.245
		c-0.634,3.428-0.693,6.866-1.327,10.294c-0.014,0.833-0.283,1.58-0.458,2.353l-2.501,0.088c0.303-1.567,0.679-3.109,0.708-4.773
		c0.079-4.583,0.13-7.449-0.434-8.032c-11.986,0.271-23.57,1.612-35.124,3.828c0.212,0.216,0.358,0.45,0.581,0.664
		c6.241,6.098,17.694,9.294,30.126,10.415l1.381,39.533c0.415,0.096,0.83,0.177,1.248,0.369l3.051-7.265l-0.021-0.549l3.619-6.734
		l-3.599,7.283c0.037,1.1,0.058,1.65,0.626,2.181l-4.811,7.972l0.18,5.156c0.735-0.232,1.425-0.365,2.305-0.934
		c1.61-1.157,2.672-2.296,3.733-3.435l-5.968,6.399l0.13,3.7l27.169-0.949l-0.723-20.701c-0.196-5.606,0.992-8.67,6.45-9.005
		l0.926,26.499c3.335-5.25,6.329-10.567,8.553-16.029C239.425,157.512,242.418,145.116,243.554,132.073z M108.074,310.926
		c-0.352-0.471-0.352-0.471,0.121-0.82l0.471-0.35l-1.051-1.412c-1.763,0.578-3.876,0.686-6.11,1.615
		c-3.404,0.336-4.939,2.207-4.952,5.143l3.984,1.426c-0.108-2.113,0.484-3.285,2.126-3.043c0.471-0.35,1.292-0.229,1.763-0.578
		c1.171,0.592,1.643,0.242,2.114-0.107c-8.275,13.461-14.331,28.926-17.222,45.697c-0.821-0.121-1.643-0.242-2.113,0.107
		c-1.292,0.229-2.234,0.93-2.826,2.1c-1.412,1.051-2.354,1.75-3.646,1.98c-0.258-0.039-0.515-0.076-0.772-0.115
		c0.029,0.529,0.025,1.072,0.068,1.596c4.074-0.91,6.504-0.598,7.972,0.43l-0.12,0.82c-0.472,0.35-1.414,1.049-1.534,1.871
		c-0.942,0.699-1.884,1.4-2.826,2.1l3.634,0.955c-0.242,1.643-0.484,3.285-0.726,4.928c0.107,2.113-0.135,3.754-0.376,5.396
		c-0.121,0.82-0.121,0.82,0.229,1.293c0,0-0.007,0.049-0.029,0.199c1.334,1.912,2.837,3.807,4.742,5.666
		c3.732,3.59,8.356,5.844,13.234,7.564c2.709-10.18,7.145-20.08,14.164-29.25c1.441-1.666,3.001-3.174,4.465-4.807
		c-0.016-0.42-0.062-0.957-0.049-1.166l4.307-61.571c0.238-3.414,0.895-7.173,2.771-9.809c-2.095,1.557-4.246,3.03-6.242,4.723
		c-2.947,2.921-5.895,5.841-8.371,8.415C112.796,304.493,110.671,307.536,108.074,310.926z M103.886,302.34
		c-1.763,0.578-2.705,1.279-3.646,1.98c-1.414,1.049-2.705,1.277-3.997,1.506l0.699,0.943c2.113-0.107,3.756,0.135,5.519-0.445
		c0.472-0.35,1.413-1.051,2.234-0.93c0.471-0.35,1.412-1.049,1.884-1.398l-0.229-1.293L103.886,302.34z M101.315,299.865
		l0.713-1.992c-0.821-0.121-1.643-0.242-2.463-0.363c-0.351-0.471-0.821-0.121-1.643-0.242c-0.471,0.35-1.062,1.521-1.184,2.342
		c0.35,0.471,1.171,0.592,1.992,0.713C99.673,299.623,100.494,299.744,101.315,299.865z M87.914,331.026
		c-0.471,0.35-1.413,1.051-2.234,0.928c-0.471,0.352-1.292,0.23-1.642-0.24c-0.993,0.176-1.839,0.24-2.618,0.258l-0.185,2.637
		c0.736-0.088,1.33-0.068,2.439-0.432c1.764-0.58,3.405-0.338,4.227-0.217l3.298-2.449l-1.751-2.357
		C88.978,329.504,88.035,330.204,87.914,331.026z M84.358,312.465c1.291-0.229,2.584-0.457,3.646-1.979l-1.05-1.414l-3.176,1.629
		l-0.872-0.004l-0.172,2.461C83.234,312.809,83.754,312.573,84.358,312.465z M77.033,407.645c0.694,1.043,1.389,1.736,2.083,2.432
		l-5.208-5.209c-1.041-0.346-1.736-0.346-2.083,0.348c-0.694,0.693-1.389,1.041-2.083,1.389c-0.694,0-1.389,0-1.736-0.348
		l-2.43,0.348l-3.354-2.135c-0.813,0.26-1.678,0.438-2.466,0.736c0.139,0.23,0.245,0.459,0.612,0.703
		c-0.348,0.348-1.042,0.695-1.042,0.348c-0.694,0-0.694,0.348-1.042,0.695c0,1.041,0.348,1.389,1.39,2.082
		c1.041,0,1.736,0.695,2.083,1.389l-3.819-1.734c-0.694-0.348-1.041,0-1.389,0.693c0,0.695,0.348,1.041,0.694,1.389h-0.694
		c8.68,10.416,18.054,18.055,28.123,22.568c0.035,0.016,0.074,0.021,0.11,0.037c1.321-0.924,2.87-1.594,4.886-1.594
		c4.612,0,6.725,2.562,7.766,5.867c6.675,1.785,13.555,2.98,20.916,2.98l-1.042,1.041c-3.818,0-7.638-0.348-11.804-1.041
		c-3.094-0.477-5.41-1.213-7.85-1.902c0.626,2.641,0.799,5.559,0.799,8.139v2.652h41.274v-10.641
		c-0.316,0.098-0.572,0.271-0.894,0.363c-3.124,0.693-6.25,1.389-9.374,1.736c-3.125,0.346-6.25,0.693-9.374,0.693
		c0.347,0,0.694-0.348,1.041-0.693h-0.347c6.201-0.346,12.407-1.389,18.947-3.102v-21.84c-3.952-2.73-7.968-4.998-12.058-6.898
		l-0.293,0.244c0,0.695,0.347,1.041,0.694,1.041c-0.694,0-1.041,0-1.389,0.348s-0.695,0.695-0.348,0.695
		c0.348,0.693,0.348,0.693,0.695,0.693l-3.473,0.348c0,0-0.348,0.348-0.694,0.695c0,0.346,0.347,1.041,0.694,1.389
		c-1.041-1.043-2.083-1.389-3.125-1.389c-0.347,0-0.693,0-0.693,0.346c0,0.348-0.348,0.348-0.695,0.348s-1.041-0.348-1.736-1.041
		l-2.082,0.348c0-1.043-0.348-1.391-1.39-1.736c-1.042,0-1.736-0.348-2.083-0.695c0.347-0.348,0.347-0.693-0.348-1.041
		c0,0-0.693-0.348-1.041-0.695l-1.042-2.777l0.373-2.795c-2.119-0.441-4.228-0.918-6.397-1.213l-3.003,0.537
		c-1.041,0.346-0.693,1.041,0.695,2.082c-0.695,0-1.042,0-1.389-0.693c0,0-0.348-0.695-0.695-1.043
		c-3.125-0.693-5.555-0.693-7.985,0.348c-2.431,1.043-5.208,0.695-7.638-0.348c-0.348,0.348-0.694,1.043-1.042,1.736
		c-0.347,0.695-0.347,1.389-0.694,2.084l4.514,2.082h0.347l4.167,2.432l-4.514-2.432c-0.694,0-1.042,0-1.389,0.348l-7.985-5.207
		C75.991,404.522,75.991,405.909,77.033,407.645z M50.299,411.118c0,0.348-0.347,0.348-0.694,0.693
		c-0.262-0.262-0.358-0.246-0.523-0.262c-0.587,0.486-1.059,0.977-1.592,1.459c-1.543,5.35-1.906,10.912-0.662,16.512
		c1.389,6.248,3.819,12.15,7.639,17.359c6.597,9.373,14.582,16.318,24.65,20.137c10.069,3.82,20.832,5.555,31.596,4.861
		c2.43-0.348,4.86-0.695,6.943-1.041c2.084-0.348,4.167-1.043,6.597-1.736c0,0.348,0,0.348-0.347,0.348h-0.348v1.041
		c1.042,0.348,2.083,1.041,3.473,1.389c1.735,1.041,3.124,0.693,4.165-0.695l-1.389-2.082c-0.694,1.041-1.389,1.389-2.083,0.693
		c-0.347,0-0.693-0.346-1.041-0.346c-0.348-0.695-0.695-0.695-1.042-0.695c1.188-0.477,2.298-1.242,3.472-1.783
		c-8.982-5.688-22.663-9.406-32.979-12.146c-3.647-0.994-9.945-2.984-12.432-5.635c-2.321-2.322-2.652-5.141-2.652-7.957
		c0-3.002,1.057-5.523,2.907-7.242c-5.625-2.715-10.932-6.02-15.255-9.678c-4.861-4.166-9.375-8.68-13.542-13.889
		c-0.347-0.346-1.041-0.346-1.388,0c-0.695,0-1.389,0-2.083,0c-0.348,0.695-0.348,1.043-0.348,0.695s-0.348-0.348-0.694-0.348
		C50.299,410.77,49.952,410.77,50.299,411.118z M45.438,428.477c-0.79-4.477-0.737-8.953-0.177-13.43
		c-6.647,6.957-8.602,14.279-9.135,26.514v3.15c0,30.666,15.085,37.131,41.938,43.762c12.267,2.982,21.384,4.143,21.384,18.729
		c0,5.141-2.652,10.941-8.62,10.941c-3.314,0-6.464-1.824-7.956-4.641c-1.492-2.984-1.326-9.283-1.326-17.736H38.282v38.123
		c14.422,11.438,33.483,14.92,51.552,14.92c42.269,0,54.368-20.223,54.368-47.572v-0.664c0-6.631-0.993-13.428-3.314-19.561
		c-0.548-1.643-1.548-2.863-2.362-4.256l-0.038-0.018c-1.042,0.346-1.736,0.346-2.431,0c-0.694-0.348-1.389-0.695-2.43-0.348v1.041
		l2.083,0.348l1.388,1.041l-7.291,1.041c-0.694-0.693-1.041-1.041-1.389-1.041c0,0-0.347,0-1.041,0v0.348v0.693
		c-0.694,0-1.39,0-2.083,0.348c-0.694,0-1.389,0-2.084,0c-13.888-0.348-27.081-3.471-39.927-8.68
		c-12.847-5.207-23.609-14.234-31.595-26.734C48.563,439.588,46.48,434.379,45.438,428.477z M122.169,473.612l1.041,1.043
		c1.042,0.346,1.736,0.346,2.431,0.346c1.042,0,1.736,0.348,2.431,0.695V475c-1.041-0.693-1.736-1.389-2.777-1.734
		c-0.348,0-1.042,0-1.389-0.348c-0.348,0-1.042,0-1.389,0L122.169,473.612z M123.558,476.737l-1.041,0.695
		c0.347,0.348,0.693,0.693,1.041,1.041c0,0.348,0.348,0.348,0.694,0.695c0.348,0,1.042-0.348,1.389-0.695
		c0-0.348-0.347-0.693-0.694-1.041C124.252,477.432,123.905,477.084,123.558,476.737z M80.865,339.897l-0.241,3.447
		c0.85-0.402,1.678-0.836,2.312-1.309c1.884-1.4,4.468-1.857,6.931-1.494c0.121-0.822,0.242-1.643-0.107-2.113l-1.4-1.885
		c-2.355,1.75-3.769,2.801-5.061,3.029C82.583,339.807,81.674,339.786,80.865,339.897z M83.355,353.422
		c-1.402,0.664-2.555,1.357-3.45,2.037c-0.033,0.965-0.062,1.93-0.067,2.875c2.379,0.314,4.122-0.227,5.847-0.793
		c0.472-0.35,1.413-1.051,2.233-0.93c0.943-0.699,1.534-1.871,1.655-2.691l-0.229-1.293c-0.821-0.121-2.113,0.107-2.935-0.012
		C85.468,353.315,84.177,353.543,83.355,353.422z M89.475,323.286c-0.471,0.35-0.121,0.82-0.242,1.643l0.35,0.471l1.292-0.229
		l1.413-1.051l-0.229-1.291l-1.643-0.242C90.296,323.407,90.296,323.407,89.475,323.286z M155.842,390.95l0.47-0.35
		c0.821,0.121,1.642,0.242,1.642,0.242C157.133,390.721,156.662,391.071,155.842,390.95z M130.902,369.825
		c-5.226-0.363-6.98-3.629-7.64-6.326c-1.621,1.871-3.289,3.578-4.884,5.572c-6.666,8.338-10.681,17.436-12.802,26.83
		c6.89,2.209,14.322,3.199,21.295,3.688c11.902,0.832,25.106,0.215,36.946-3.582l0.22-0.912c-0.699-0.941-1.521-1.062-1.992-0.713
		c0.942-0.701,1.413-1.051,1.535-1.871c0.12-0.822,0.241-1.643-0.23-1.291c-1.171-0.594-1.171-0.594-1.641-0.242l4.36-3.973
		c0,0,0.121-0.82,0.241-1.641c-0.35-0.473-1.521-1.064-2.343-1.186c2.464,0.363,4.227-0.215,5.64-1.266
		c0.472-0.35,0.942-0.701,0.593-1.172c-0.351-0.471,0.12-0.82,0.592-1.17c0.471-0.35,1.763-0.58,3.404-0.338l2.477-2.57
		c1.05,1.412,1.872,1.533,3.633,0.955l3.88-55.488c-13.862,4.443-26.933,11.205-39.403,20.473l0.362-2.465
		c5.183-3.85,10.713-7.229,17.065-10.486c6.823-3.609,13.055-6.047,18.344-7.783c0.945-0.311,1.95-0.539,2.897-0.848l-48.16-3.367
		l-1.887,26.988l5.554,0.389c0.828-0.668,1.565-1.457,2.419-2.092c-0.472,0.35-0.592,1.172-0.714,1.992l0.472-0.35
		c-0.209,0.174-0.395,0.385-0.602,0.559l0.306,0.021l-0.43,6.143C139.969,358.606,140.437,370.493,130.902,369.825z
		 M151.399,443.053v63.818c0,5.305,0.498,10.607-4.807,13.924v25.195H253.01v-45.344c-3.738-1.945-7.519-3.803-11.082-6.041h-29.694
		v4.641c-0.166,11.604,0,16.576-13.261,16.576h-2.652v-28.678h28.014v-5.162c-7.832-6.594-14.906-14.285-21.579-22.52h-6.435v-8.631
		c-1.819-2.547-3.865-4.801-5.578-7.482c-7.475-12.457-12.459-24.916-14.949-39.035c-0.023-0.127-0.028-0.254-0.051-0.381h-29.149
		v25.195C151.897,432.444,151.399,437.749,151.399,443.053z M250.585,494.606h-0.617c0.211,0.09,0.404,0.207,0.617,0.295V494.606z
		 M221.909,477.809v-18.346h-18.099C209.46,466.211,215.399,472.471,221.909,477.809z M171.407,268.25
		c-13.696,3.888-26.638,10.002-38.299,18.095c1.076-0.409,2.151-0.823,3.682-0.717c9.534,0.667,7.418,12.374,6.987,18.515
		l-0.215,3.07l41.533,2.904l2.441-34.907c-3.451-3.047-7.212-5.647-11.152-7.927C174.728,267.64,173.059,267.781,171.407,268.25z
		 M186.211,376.491l-1.718,24.564l36.38,2.879H176.25c0.179,0.959,0.227,1.914,0.439,2.873c3.181,14.311,8.73,27.818,17.206,39.881
		v-12.586h2.652c11.935,0,13.261,3.979,13.261,13.594v4.309h40.776v-42.65c-2.921-1.746-5.626-3.553-8.38-5.42h-5.236l1.765-23.771
		c-4.945-3.592-4.099-8.73-3.737-13.902l4.352-62.217c0.361-5.173,0.238-10.378,5.636-13.249l1.717-24.564l-52.522-3.673
		l-1.718,24.565c4.946,3.593,4.1,8.73,3.737,13.903l-4.35,62.219C191.485,368.415,191.609,373.622,186.211,376.491z M228.85,231.798
		c-1.158,0.246-2.326,0.219-3.485,0.414c-0.538,0.72-1.107,1.429-2.007,2.037l0.763,21.85l46.719-1.632l-0.763-21.85
		c-4.7-2.714-4.43-7.33-4.591-11.93l-0.292-8.379c-3.438,3.022-6.942,6-10.844,8.689
		C246.274,226.235,238.141,229.822,228.85,231.798z M285.875,274.122c-5.626-3.121-11.723-5.04-18.068-6.416l-12.219-0.854
		l-1.542,22.059c0.106,0.017,0.204,0.158,0.312,0.166c0.295,0.021,0.589,0.042,0.61-0.253c0.02-0.294,0.314-0.273,0.608-0.252
		c0.294,0.021,0.863,0.356,1.41,0.986l1.787-0.171c-0.062,0.883,0.213,1.198,1.074,1.555c0.884,0.062,1.453,0.397,1.726,0.712
		c-0.314,0.274-0.335,0.568,0.233,0.904c0,0,0.568,0.335,0.842,0.651l0.719,2.416l-0.897,4.375l8.346-0.895
		c0.904-0.232,0.651-0.842-0.466-1.809c0.589,0.043,0.884,0.062,1.138,0.672c0,0,0.253,0.609,0.526,0.924
		c2.609,0.775,4.669,0.918,6.792,0.18c2.122-0.738,4.457-0.279,6.456,0.748c0.315-0.273,0.65-0.842,0.986-1.41
		s0.377-1.158,0.713-1.727l-3.704-2.033l-0.295-0.021l-3.389-2.307l3.684,2.329c0.589,0.041,0.884,0.062,1.197-0.213l6.464,4.891
		c0.609-0.254,0.691-1.432-0.089-2.965c-0.527-0.924-1.075-1.555-1.623-2.185l4.108,4.726c0.862,0.355,1.45,0.396,1.786-0.172
		c0.63-0.547,1.239-0.801,1.85-1.055c0.588,0.043,1.178,0.084,1.45,0.398l2.082-0.15l3.095,2.287
		c0.274,0.314,0.567,0.336,0.883,0.062c0.294,0.02,0.589,0.041,0.884,0.061c0.314-0.273,0.356-0.861-0.486-1.514
		c0.315-0.273,0.924-0.525,0.903-0.232c0.589,0.041,0.609-0.252,0.925-0.525c0.062-0.885-0.212-1.199-1.055-1.85
		c-0.883-0.062-1.43-0.691-1.684-1.301l3.136,1.697c0.568,0.336,0.883,0.062,1.218-0.506c0.042-0.588-0.231-0.904-0.505-1.219
		l0.588,0.041C301.642,285.579,294.146,278.546,285.875,274.122z M292.429,311.561c-0.274-0.314-0.548-0.631-0.212-1.197
		c0,0-0.254-0.611-0.527-0.926c-0.568-0.336-0.863-0.355-1.493,0.191c-0.062,0.883-0.691,1.432-1.026,2l-9.457,4.07
		c0.315-0.273,0.631-0.547,0.945-0.82c0.295,0.021,0.609-0.254,0.925-0.527l0.062-0.883c0.295,0.021,0.295,0.021,0.568,0.336
		c0.295,0.02,0.589,0.041,0.883,0.061l2.479-1.602c0.315-0.273,0.083-1.178-0.443-2.102c-0.569-0.336-0.884-0.062-1.493,0.191
		c-0.021,0.295-0.63,0.549-1.219,0.508l-10.009-0.701c-0.316,0.273-0.631,0.549-0.905,0.232c-0.273-0.314-0.862-0.355-1.156-0.377
		l-3.007,0.678c-1.745-0.418-3.512-0.541-5.299-0.371c-1.334,0.129-2.683,0.49-4.03,0.822l-0.777,11.104
		c6.685,0.1,13.203-0.254,19.752-1.412c7.484-1.252,14.481-4.018,21.247-7.686c1.04-0.594,2.105-1.531,3.153-2.223l0.104-1.504
		c-0.428,0.195-0.81,0.453-1.265,0.611c-0.863-0.355-1.726-0.713-2.335-0.459s-1.198,0.211-2.102,0.445
		c0.021-0.295,0.041-0.59-0.233-0.904c-0.567-0.336-0.884-0.062-1.513,0.486C293.982,310.485,293.354,311.034,292.429,311.561z
		 M296.074,331.342l-0.314,0.273l-0.314,0.273c-0.274-0.314-0.274-0.314-0.569-0.336c0,0,0,0-0.273-0.314
		c0.63-0.549,0.945-0.822,0.65-0.842C295.843,330.438,296.115,330.752,296.074,331.342z M289.958,346.889l-0.336,0.568
		c0,0-0.314,0.273-0.924,0.527l-0.883-0.062l-1.328-2.164c0.356-0.861,1.28-1.389,2.458-1.307c0.295,0.021,0.568,0.336,0.842,0.65
		L289.958,346.889z M283.612,336.09l-1.574,1.369l-2.04-0.438c-0.273-0.314-0.527-0.926-0.76-1.828l1.322-1.979
		c-0.021,0.295,0.588,0.041,1.492-0.191C283.21,333.401,283.736,334.325,283.612,336.09z M277.368,336.542l-0.335,0.568
		c-0.314,0.273-0.651,0.842-0.965,1.117l-5.424,1.395c-0.294-0.02-0.294-0.02-0.567-0.334c0,0-0.295-0.021-0.589-0.043l0.02-0.295
		c0.021-0.293,0.021-0.293-0.273-0.314c0,0,0,0,0.021-0.295l3.883-4.758l2.63,0.48L277.368,336.542z M297.917,360.559l2.995-42.826
		c-0.016,0.012-0.027,0.025-0.043,0.039c-3.129,2.443-6.512,4.279-9.873,5.818c-5.485,2.279-11.223,3.949-17.467,4.398
		c-5.771,0.418-11.244,0.27-16.657-0.533l-0.252,3.59c0.122,0.498,0.411,0.988,0.6,1.721c1.711,5.148,4.366,9.477,7.967,12.982
		c3.581,3.801,7.477,7.328,12.021,10.012c2.547,1.658,5.429,2.746,8.017,3.814c2.588,1.07,5.512,1.57,8.477,1.48
		C295.147,361.067,296.52,360.764,297.917,360.559z M315.383,271.034l-42.458-2.97c1.79,0.566,3.841,1.085,5.269,1.675
		c2.589,1.068,5.177,2.137,7.743,3.5c4.841,2.706,9.345,5.979,12.946,9.485c3.875,3.821,7.435,7.917,10.658,12.579
		c0.273,0.314,0.863,0.355,1.178,0.082c0.589,0.041,1.178,0.082,1.767,0.125c0.335-0.57,0.355-0.863,0.335-0.57
		c-0.021,0.295,0.274,0.316,0.568,0.336c0.294,0.021,0.589,0.041,0.314-0.273c0.021-0.294,0.315-0.273,0.631-0.547
		c0.273,0.314,0.273,0.314,0.568,0.335c0.294,0.021,0.588,0.041,0.862,0.356c2.116-4.881,2.781-10.16,1.975-15.542
		c-0.442-2.948-1.229-5.799-2.265-8.562C315.444,271.039,315.413,271.036,315.383,271.034z M316.783,312.043
		c0.015,0.992,0.154,1.783,0.073,2.941l-0.559,7.99c0.079,0.023,0.1,0.008,0.181,0.031c-0.021,0.293-0.021,0.293,0.274,0.314
		c0.295,0.02,0.274,0.314,0.253,0.609l-0.021,0.293c-0.319,0.135-0.532,0.352-0.814,0.564l-1.84,26.307
		c0.727-0.979,1.55-1.832,2.165-2.941c3.081-5.996,4.438-12.707,3.796-20.443C319.834,322.446,318.536,317.362,316.783,312.043z
		 M334.787,209.8l-37.519,1.31l0.513,14.692c0.277,0.132,0.434,0.268,0.721,0.399c1.119,0.512,2.219,0.473,3.338,0.985l3.05-7.264
		l-0.019-0.55l3.618-6.733l-3.6,7.283c0.038,1.1,0.058,1.649,0.627,2.18l-7.434,12.319l0.025,0.758
		c0.813,0.753,2.664,0.685,5.081-0.883c1.611-1.157,2.673-2.295,3.734-3.433l-7.961,8.537c-0.492,1.669-0.453,2.768,0.665,3.28
		c1.139,1.061,1.727,2.142,2.315,3.222c0.003,0.102-0.045,0.154-0.042,0.254c6.149,3.802,12.894,6.361,20.002,7.752
		c7.496-8.312,13.45-16.935,17.979-25.832c-1.407-0.653-2.643-1.603-3.408-2.934C335.091,222.599,335.044,217.131,334.787,209.8z
		 M297.826,486.106l-1.61-0.402l1.897-7.609l-4.643-1.158c-1.295,0.34-2.646-0.342-3.807-1.303l-0.894,3.586
		c0.216,0.213,0.441,0.426,0.695,0.641l-0.75,3.006l-0.805-0.201l-0.444,1.779l7.609,1.898l-3.016,12.096l-28.368-7.084
		l2.997-12.021l7.525,1.875l0.459-1.844l-0.857-0.213c0,0,0.716-3.131,0.781-3.135c0.33-0.012,0.64-0.051,0.937-0.104l0.812-3.258
		c-1.229,0.143-2.579-0.049-3.875-0.953l-4.175-1.041l-1.896,7.609l-3.053-0.76v25.664c11.255,3.604,22.774,6.139,34.479,7.512
		c0-0.061,0-1.33,0-1.391V486.106z M295.31,475.602l5.156,1.285l-1.691,6.781l0.324,0.785l7.747,1.932l6.205-24.889l-8.244-2.055
		l-1.933,7.75l-5.031-1.256c-0.498,1.893-2.757,4.186-2.757,4.186S296.848,473.352,295.31,475.602z M276.248,447.936l7.75,1.932
		l-1.216,4.879c2.338,0.395,4.575,2.785,4.575,2.785s2.751-0.646,5.045-0.074l1.292-5.182l7.443,1.857l2.054-8.236l-24.888-6.207
		L276.248,447.936z M286.223,482.243l-9.694-2.416l-0.923,3.703l-7.751-1.934l-2.055,8.246l24.888,6.205l2.054-8.236l-7.443-1.855
		L286.223,482.243z M277.718,475.059c2.387-1.531,3.095-4.354,3.095-4.354s-0.951,0.793-2.354,1.381L277.718,475.059z
		 M286.607,472.151c0,0-1.233,2.383,0.78,5.422l0.832-3.34C287.244,473.143,286.607,472.151,286.607,472.151z M263.348,475.54
		l1.584,0.395l1.855-7.443l4.773,1.191c0.184-2.178,2.631-4.838,2.631-4.838s-0.998-2.309-0.263-4.869l-4.717-1.176l1.933-7.75
		l-7.797-1.945V475.54z M263.348,447.375l10.062,2.508l-1.875,7.525l3.438,0.855c1.634-1.168,4.475,0.215,4.475,0.215
		s-0.939-2.34,1.295-3.447l0.939-3.768l-7.524-1.875l2.997-12.023l28.373,7.064l-3.016,12.096l-7.609-1.896l-0.9,3.609
		c1.456,1.395-0.167,4.1-0.167,4.1s2.222,0.404,3.4,1.477l4.243,1.059l1.876-7.523l12.021,2.996l-7.063,28.373l-8.306-2.07
		l8.887,21.518c0.009,0.002,0.019,0,0.027,0l8.241,20.049h0.011l7.342,17.775h42.931v-14.23l0.068,0.006V495.69l-6.953,7.42
		l-10.186-10.146l-1.549,1.605l2.863,0.715l-1.754,7.033l-4.812-1.199l5.923,15.195l-6.548-1.633l-1.989-4.66l-0.458,10.119
		l-8.81,7.367l-4.064-10.578l4.328-9.154l-3.98,3.039l-7.162-1.787l12.852-10.379l-5.093-1.27l1.774-7.121l3.359,0.838l-0.585-2.047
		l-13.757,4.178l-5.797-21.424l12.938-12.176l-10.056-26.119c-0.325-0.053-0.618-0.068-0.945-0.121
		c-10.797-1.662-19.933-4.154-27.407-6.645c-7.476-2.492-14.95-4.984-22.425-8.307c-3.012-1.416-5.759-3.178-8.679-4.736v15.432
		c5.304,3.316,4.807,8.619,4.807,13.924V447.375z M367.346,484.063l0.07,3.17l-2.062-2.443l-3.015,1.014l1.626-2.637l-1.907-2.596
		l3.027,0.756l1.831-2.623l0.236,3.229l0.292,0.072v-7.979l-21.446,18.109l-0.406,1.627l0.955,0.238l3.812-3.74l10.219,10.047
		l6.935-7.389v-2.676l-0.068,0.014v-6.238L367.346,484.063z M356.637,444.309l-10.533,42.246l0.66,0.164l18.091-18.273
		L356.637,444.309z M329.085,508.756l7.16-6.09l0.751-3.012l-10.503,8.455L329.085,508.756z M340.618,506.604l-3.945-0.982
		l-5.404,11.557l2.873,7.074l5.968-5.051L340.618,506.604z M325.11,474.754l-3.015,1.016l1.626-2.639l-1.907-2.594l3.026,0.754
		l1.832-2.621l0.236,3.229l3.154,0.785l-2.961,1.346l0.069,3.168L325.11,474.754z M322.211,490.741l13.739-4.072l1.578,4.994
		l1.426,0.355l0.24-0.965l-11.469-28.641l-10.514,9.912L322.211,490.741z M339.241,485.885l-7.601-24.541v5.58L339.241,485.885z
		 M351.981,443.147L333.394,460.6l7.394,24.629l0.66,0.166L351.981,443.147z M345.817,513.018l2.132,0.531l-4.601-12.604
		l-0.986,3.957L345.817,513.018z M346.574,554.875h-8.046v37.441h9.203v-18.826l11.989,18.826h8.047v-37.441h-9.203v18.826
		L346.574,554.875z M332.009,554.875h-25.453v37.441h25.453v-8.203h-16.25v-6.574h13.883v-8.203h-13.883v-6.258h16.25V554.875z
		 M258.541,545.991h44.092v-25.195c-0.608-0.381-0.906-0.867-1.371-1.299c-12.605-3.281-25.077-7.213-37.364-12.193
		c-0.191-0.078-0.358-0.197-0.55-0.273c0.009,5.25,0.444,10.482-4.807,13.766V545.991z M286.679,563.131
		c2.524,0,3.997,1.84,3.997,3.785c0,1.947-1.473,3.787-3.997,3.787h-5.206v-7.572H286.679z M287.1,554.875h-14.83v37.441h9.203
		v-13.936h3.103l6.626,13.936h10.676l-8.099-15.617c2.944-1.473,6.1-4.682,6.1-9.783C299.878,560.764,295.408,554.875,287.1,554.875
		z M265.75,554.875h-25.453v37.441h25.453v-8.203H249.5v-6.574h13.883v-8.203H249.5v-6.258h16.25V554.875z M219.315,563.079
		c2.314,0,3.576,0.842,4.418,2.104c0.736,1.053,0.999,2.104,0.999,8.414c0,6.363-0.263,7.361-0.999,8.414
		c-0.842,1.262-2.104,2.104-4.418,2.104h-4.049v-21.035H219.315z M219.946,554.875h-13.883v37.441h13.883
		c3.892,0,7.521-1.104,10.098-3.68c4.364-4.365,3.892-9.152,3.892-15.041c0-5.891,0.473-10.676-3.892-15.041
		C227.467,555.979,223.838,554.875,219.946,554.875z M177.299,554.875h-8.046v37.441h9.202v-18.826l11.99,18.826h8.047v-37.441
		h-9.204v18.826L177.299,554.875z M145.168,579.065l3.365-9.992l3.155,9.992H145.168z M144.747,554.875l-13.62,37.441l0,0h9.624
		l1.84-5.574h11.517l1.735,5.574h9.624l-13.62-37.441H144.747z M110.829,579.065l3.365-9.992l3.155,9.992H110.829z M110.408,554.875
		l-13.62,37.441h9.623l1.841-5.574h11.517l1.735,5.574h9.623l0,0l-13.62-37.441H110.408z M79.487,554.875h-9.203v37.441h24.927
		v-8.203H79.487V554.875z M44.411,554.875h-9.519l12.358,37.441h6.837l12.41-37.441h-9.571l-6.205,20.93L44.411,554.875z
		 M32.88,331.836c-0.231,0.182-0.463,0.545-0.231,0.91c0.231,0.363,0.231,0.727,0.463,0.908c0.232-0.727,0.232-1.455,0-2
		L32.88,331.836z M29.871,340.932c0-0.182,0-0.182-0.232-0.363l0.463,1.637L29.871,340.932z M29.176,338.749l-0.23,1.455
		c0.23,0,0.463,0.184,0.693,0.365L29.176,338.749z M43.065,317.102c-0.231,0-0.463,0-0.694,0c0,0.18,0.231,0.361,0.463,0.361
		s0.231,0,0.463-0.182c0,0,0,0,0.231,0v-0.363C43.297,316.918,43.297,316.918,43.065,317.102z M48.114,238.364
		c-7.906,0.276-7.781-8.508-7.812-9.37l-1.947-55.776c-0.03-0.863-0.763-9.472,7.144-9.749s7.776,8.364,7.807,9.226l1.947,55.776
		C55.283,229.334,56.021,238.087,48.114,238.364z M45.14,301.262c1.46,3.438,3.823,7.635,6.305,11.578
		c-1.825,1.572-4.051,2.83-6.526,3.715c0,0,0,0.182,0.23,0.363c2.084-0.727,4.398-1.818,6.481-3.273v-0.525
		c1.133,1.783,2.258,3.666,3.378,5.096c-0.306,0.176-0.624,0.367-0.793,0.498c-1.555,1.068-3.327,2.055-6.479,1.943
		c-4.397-0.152-8.078-4.684-7.904-9.646C39.965,307.178,41.564,303.395,45.14,301.262z M45.381,332.381l-1.064-0.836
		c0.341,0.023,0.535,0.188,0.887,0.201c0.013,0,0.029-0.006,0.042-0.006c0.169,0.285,0.299,0.588,0.598,0.824
		c0,0.545,0.464,1.09,0.695,1.637c0.231,0.363,0.231,0.908,0.231,1.637l-0.463-0.182l-0.695-0.547c0-0.18-0.23-0.727-0.463-1.273
		C45.148,333.11,45.148,332.565,45.381,332.381z M52.651,283.347c-1.722-2.431-3.5-6.444-3.402-9.264
		c0.071-2.054,1.018-3.598,2.507-4.527l3.578,4.975c0.681,1.146,0.993,2.382,1.531,3.562C55.865,280.17,54.489,282.1,52.651,283.347
		z M57.207,277.032c-0.381-0.833-0.707-1.667-1.179-2.501c-1.121-1.873-2.656-3.41-4.066-5.069c0.604-0.325,0.999-0.895,1.882-0.864
		c2.706,0.095,4.436,2.3,4.325,5.458C58.134,275.058,57.576,276.035,57.207,277.032z M57.437,295.029
		c1.163-1.063,1.725-2.217,2.699-3.302c0.002,0.156,0.06,0.294,0.06,0.451l0.694-0.546c0-0.236-0.075-0.493-0.082-0.728
		c3.956-4.663,6.702-9.515,6.902-15.272c0.229-6.533-3.275-10.331-7.917-12.726c2.594-0.561,10.408-1.612,12.697-2.47
		c10.103,10.583,9.002,22.101,8.539,27.74c-0.141,0.769-0.279,1.468-0.42,2.197l-15.324-0.262l-0.232,6.653l2.03,0.07
		c1.804,0.064,3.001,1.348,2.922,3.604c-0.051,1.466-0.471,3.821-2.117,5.683l-2.112,2.297c-1.739-2.576-3.769-5.832-5.687-8.985
		c0.102-0.477,0.271-0.955,0.338-1.434c0.231-1.637,0.463-3.273,0.463-4.91c0,0.182-0.231,0.364-0.463,0.545v-0.182
		c-0.112,1.591-0.682,3.25-1.013,4.861C58.748,297.205,58.004,296.007,57.437,295.029z M71.517,311.274
		c0.008-0.02,0.013-0.037,0.021-0.057c-0.007,0.012,0.007,0.051,0,0.062L71.517,311.274z M73.853,310.37l0.694-0.182
		c0.231,0.182,0.694,0.729,0.927,1.455c0.231,0.727,0.463,1.455,0.694,2.184c0.231,0.727,0.463,1.455,0.694,2l-0.694,0.184
		c-0.927-0.91-1.39-1.82-1.621-2.365c-0.463-1.275-0.694-2.365-0.463-3.275H73.853z M76.862,311.643
		c-0.231-0.545,0-0.91,0.231-1.455c-0.694,0-1.157-0.363-1.389-1.092c-0.231-0.545-0.464-1.273-0.464-1.818
		c0-0.479-0.425-0.887-0.759-1.312c0.196-0.324,0.366-0.713,0.559-1.053h0.664c0,0.908,0,1.455,0.231,1.818
		c0.231,0.547,0.694,1.092,1.157,1.637c0.464,0.547,0.464,1.273,0.231,1.82l1.389,1.273c0.232,0.547,0.232,1.092-0.463,1.273
		c-0.231-0.182-0.693-0.365-0.693-0.545C77.094,312.008,77.094,311.825,76.862,311.643z M78.482,313.463l0.464-0.365
		c0,0,0,0,0.231,0.182c0,0.365,0,0.547-0.231,0.729L78.482,313.463z M78.946,308.733c-0.232-0.182-0.232-0.182-0.464-0.182
		s-0.231-0.184-0.231-0.363c-0.231-0.184-0.231-0.547,0-0.729s0.231-0.547,0-0.729s-0.463-0.545-0.693-1.092
		c-0.232-0.545-0.695-0.908-0.927-1.09v-1.273h1.157c0,0.182,0,0.545-0.23,0.727c0,0.182,0,0.547,0.23,0.729
		c0,0.182,0.231,0.363,0.463,0.363c0.231,0.363,0.463,0.727,0.695,0.91c0.231,0.363,0.462,0.727,0.694,1.09
		C79.871,307.823,79.641,308.368,78.946,308.733z M79.641,301.819c-0.232,0.184-0.232,0.184,0,0.363
		c0,0.184-0.232,0.184-0.463,0.365h-0.231l-0.232-0.365v-0.545l0.464-0.182L79.641,301.819z M79.254,298.22
		c0.467-0.465,1.088-0.561,1.641-0.863c0.127,0.572,0.329,1.164-0.328,1.551L79.254,298.22z M80.335,305.276
		c-0.232-0.182-0.464-0.545-0.927-0.91c0-0.182,0-0.363-0.23-0.727c0,0,0-0.363,0.23-0.547c0.694-0.182,0.927,0,1.158,0.365
		c0,0.545,0.231,0.727,0.693,0.908c0,0.365-0.23,0.729-0.693,0.91H80.335z M82.418,303.276c0-0.365-0.231-0.729-0.463-1.094
		c0.231,0,0.694,0,0.926,0.184c0.192,0.15,0.385,0.303,0.577,0.453l-0.138,1.969c-0.245-0.107-0.537-0.104-0.671-0.422
		C82.418,304.002,82.187,303.639,82.418,303.276z M83.575,297.271h-0.463c-0.242-0.285-0.396-0.523-0.605-0.762
		c0.143-0.01,0.223-0.199,0.369-0.195l0.188-0.59c0.002,0.08,0.049,0.195,0.049,0.273C83.112,296.542,83.344,296.908,83.575,297.271
		z M55.741,137.071c-3.554-0.241-7.246-0.334-11.171-0.197c-27.169,0.948-45.591,9.22-44.526,39.696l1.812,51.895
		c1.041,29.805,13.631,36.984,39.845,36.403c-2.497,2.707-4.206,6.352-4.366,10.944c-0.157,4.51,0.805,9.285,2.354,13.404
		c-6.899,3.598-14.111,9.667-14.509,21.057c-0.295,8.477,3.752,17.186,14.062,20.125c-2.458,2.684-4.299,5.691-5.203,8.713
		c-1.158,3.094-1.621,6.369-1.39,9.824c0.231,2.365,0.695,4.549,1.853,6.914s2.546,4.549,4.167,6.549c1.851,2,3.935,3.457,6.48,4.73
		c2.547,1.273,5.556,2.184,8.797,2.547c5.324,0.545,10.417-0.363,14.815-2.912c4.397-2.547,7.639-5.82,9.259-10.006
		c0.927-2,1.158-4.184,0.927-6.184c0-2.002-0.695-4.184-2.084-6.186c-1.157-1.273-2.778-2.547-4.398-3.82s-3.703-1.639-5.787-1.457
		c-0.463,0.184-0.926,0.365-1.389,0.547c-0.463,0.363-0.463,0.729,0,0.91c1.389,0.545,2.777,0.91,4.166,1.455
		c1.39,0.547,2.778,1.092,3.936,1.818c2.778,1.82,4.168,4.002,4.63,6.732c0.463,2.729,0,5.275-1.389,7.641
		c-1.853,3.273-4.63,6.002-8.565,8.186c-3.935,2.365-8.333,3.275-13.194,2.912c-3.936-0.365-7.407-1.457-10.186-3.641
		c-3.009-2.182-5.092-4.729-6.25-7.457c-0.694-2.365-0.926-5.094-0.463-8.188c0.231-2.365,1.157-4.365,2.314-6.367
		c1.39-2,3.01-3.82,5.094-5.457c0.926-1.092,2.314-2.002,3.703-2.91c0-0.184,0-0.363-0.231-0.545c0,0,0-0.184,0-0.365
		c-0.231-0.182-0.463-0.363-0.463-0.547c0-0.182,0-0.363,0-0.363c-0.231-0.182-0.463-0.545-0.694-0.727
		c0-0.365-0.231-0.729-0.463-0.91l0.694-0.363l0.463,0.908v1.092c0,0.182,0.231,0.547,0.463,0.729v0.182
		c0,0.182,0.231,0.547,0.463,0.727l1.389-1.09c0,0,0-0.184-0.231-0.365l-0.694-2.182c-0.068-0.107-0.011-0.17-0.068-0.27
		c0.587-0.078,1.104-0.08,1.712-0.205c0.434,0.703,0.672,1.408,0.672,2.111c0.693-0.363,1.389-0.729,1.852-1.092
		c0.694-0.545,1.389-0.91,2.083-1.273c-0.154-0.484-0.308-0.834-0.462-1.211c0.285-0.113,0.551-0.291,0.835-0.418
		c0.123,0.434,0,0.676,0.321,1.266c0.464-0.363,0.927-0.729,1.621-0.91c0-0.182,0-0.182,0.231-0.363c0,0,0,0,0-0.184l-0.463-0.182
		c-0.117-0.09-0.175-0.229-0.234-0.367c0.286-0.15,0.571-0.26,0.853-0.426c0.035,0.354,0.155,0.732-0.155,0.975l0.463,0.184
		c0.231-0.184,0.463-0.365,0.694-0.547c0.231,0,0.463-0.182,0.694-0.363c-0.231-0.182-0.231-0.547-0.463-0.729
		c0-0.025-0.058-0.07-0.066-0.104c0.292-0.199,0.624-0.238,0.909-0.455l0.083,0.195l0.231,0.363v0.365l1.081-0.566
		c3.95,3.381,8.371,5.363,12.996,5.525c4.248,0.148,7.048-1.809,9.001-4.848c0.466-0.346,0.93-0.691,2.207-0.918
		c0,0,0.942-0.699,1.062-1.521c-0.459-1.398-1.257-1.336-2.136-1.312c0.565-1.805,1.563-3.104,1.646-5.441l0.152-4.396l-7.441-0.26
		l-0.134,3.834c-0.087,2.48-1.048,4.141-3.416,4.059c-1.579-0.057-3.739-2.842-4.901-5.139c-0.176-0.395-0.064-0.723-0.159-1.096
		c0.586,0.508,1.187,1.088,1.385,1.709c0.231,0.91,0.694,1.639,0.926,2.549c0.232-0.182,0.694-0.365,0.927-0.547
		c-0.232-0.545-0.232-1.092-0.232-1.637c0-0.547-0.231-1.273-0.462-1.818c-0.232-0.184-0.232-0.547-0.694-0.729
		c0-0.363-0.464-0.729-0.695-0.91l0.463-0.908c-0.231-0.184-0.694-0.365-0.926-0.729c-0.231,0-0.231-0.365,0.231-0.91
		c0.694,0.365,0.927,0.91,1.157,1.455c0.231,0.547,0.231,0.91,0.464,1.273c0,0.547,0,1.092,0.23,1.639l0.926,0.91l0.695,1.271
		c1.852-1.637,3.473-3.455,4.861-5.457c1.196-1.477,1.948-2.955,2.733-4.432l6.618-6.559c1.642,0.242,2.463,0.363,2.934,0.012
		c0,0,0.472-0.35,1.414-1.049l-0.35-0.472l-0.701-0.941c0.942-0.701,1.885-1.402,2.476-2.572c0.942-0.699,1.885-1.4,2.827-2.1
		c19.19-13.53,40.24-22.591,62.918-28.477c3.166-0.822,6.393-1.164,9.595-1.7c-4.175-1.985-8.627-3.327-13.065-4.675
		c5.337-1.014,10.571-2.577,15.224-5.476c-16.199-1.445-31.938-5.23-47.431-10.891c-9.023-3.296-17.332-7.982-25.081-13.593
		c1.176,9.005,3.916,16.61,12.15,23.336c1.884,1.532,4.281,1.806,6.388,2.834c-7.615,0.974-15.017,2.946-21.263,7.571
		c-7.726,5.611-10.984,13.452-12.546,22.03c-0.989-4.061-1.576-17.511-10.746-25.56c13.028-5.086,19.839-14.96,19.142-34.941
		l-0.217-6.18c-4.885-4.881-9.53-10.119-13.647-16.092c-5.236-8.076-8.824-16.209-10.801-25.5
		c-1.976-9.291-2.303-18.64-0.429-28.065l-6.715-3.069L55.741,137.071z M136.309,169.886c-0.16-4.6-0.753-9.185,3.747-12.221
		l-0.763-21.85l-9.322,0.325c-1.179,0.141-2.302,0.263-3.496,0.122l-5.394,0.188c-0.297,0.538-0.598,0.968-0.891,1.61
		c-0.512,1.119-0.474,2.219-0.985,3.338l7.265,3.05l0.55-0.019l6.733,3.619l-7.283-3.6c-1.101,0.039-1.649,0.058-2.18,0.626
		l-12.937-7.807c-1.081,0.588-1.004,2.788,0.742,5.48c1.157,1.611,2.296,2.672,3.434,3.734l-8.537-7.96
		c-1.669-0.492-2.769-0.454-3.28,0.665c-1.062,1.138-2.143,1.726-3.223,2.315c-1.101,0.038-2.199,0.077-2.769-0.455l-3.831,0.685
		l-1.191-0.701l0.638,18.266c2.753,1.59,3.73,3.862,4.159,6.37c9.05,7.433,18.396,13.396,28.119,17.353
		c3.709,1.576,7.485,2.887,11.296,4.082L136.309,169.886z M75.645,149.726c0.019,0.55-0.531,0.568-1.062,1.139
		c-0.569-0.531-0.569-0.531-1.119-0.512c-0.551,0.019-1.101,0.038-1.67-0.492c-2.972,9.464-3.177,19.381-0.631,29.203
		c2.545,9.822,6.721,19.036,13.058,27.073c2.863,3.78,5.885,7.259,9.047,10.483l-1.51-43.252
		c-0.372-10.668-3.048-18.318-7.391-23.894c-0.344-0.392-0.722-0.719-1.063-1.117c-0.568-0.53-1.668-0.492-2.199,0.077
		c-1.1,0.039-2.199,0.077-3.299,0.115c-0.512,1.119-0.492,1.668-0.512,1.119c-0.02-0.55-0.569-0.531-1.119-0.512
		C75.624,149.176,75.075,149.195,75.645,149.726z M71.047,117.334c-1.017-7.468-0.877-15.49-0.163-23.502
		c0.252-3,1.093-5.83,1.854-8.681l-21.643-0.378l-0.602,34.45c6.844,5.624,14.938,9.129,23.45,11.315
		C72.692,126.071,71.638,121.679,71.047,117.334z M143.492,44.583l0.528-30.256C129.666,4.038,114.299,0.324,96.924,0.021
		c-11.982-0.209-24.44,1.072-33.091,7.363C53.21,15.14,50.843,21.991,50.003,35.76l-0.05,2.846
		c-0.404,23.14,9.078,31.158,26.248,36.922c0.86-1.875,1.539-3.827,2.552-5.631c4.713-7.369,11.127-13.562,19.218-17.432
		c2.547-1.284,5.164-2.34,7.813-3.26c-0.573-0.163-1.217-0.358-1.77-0.515c-3.278-0.956-8.939-2.854-11.144-5.289
		c-2.061-2.133-2.316-4.685-2.271-7.231c0.083-4.793,2.845-8.491,7.938-8.401c7.788,0.136,7.8,8.077,7.701,13.769l-0.043,2.396
		L143.492,44.583z M135.94,77.2c-0.604,1.709-2.342,2.825-4.634,2.785c-0.573-0.009-1.136-0.593-1.699-1.176l-0.513-3.448
		l0.593-1.136c0,0,0.583-0.563,1.739-1.116l1.72,0.03L135.94,77.2z M121.679,106.182c-1.166,1.126-1.748,1.689-1.175,1.699
		c-1.146-0.02-1.71-0.603-1.69-1.749l0.584-0.563l0.582-0.563c0.563,0.583,0.563,0.583,1.137,0.593
		C121.116,105.599,121.116,105.599,121.679,106.182z M90.598,113.664c-0.593,1.136-1.749,1.689-2.321,1.679
		c-0.563-0.583-0.563-0.583-1.136-0.593c-0.573-0.01-0.563-0.583-1.126-1.166l0.02-1.146c0.583-0.563,1.739-1.116,3.458-1.086
		C90.065,111.362,90.628,111.945,90.598,113.664z M85.361,118.157l2.814,2.916c-0.04,2.292-4.907,4.853-6.063,5.405
		c-1.156,0.553-3.438-0.06-6.293-0.682c0.01-0.574,0.01-0.574-0.562-0.584c-0.573-0.01-0.563-0.583-0.554-1.156l0.011-0.573
		c1.155-0.553,6.597-3.104,7.18-3.667C81.913,118.67,83.643,118.127,85.361,118.157z M146.721,91.387l0.01-0.6
		c0.104-5.991-0.687-12.147-2.688-17.726c-1.703-5.423-5.082-9.229-9.671-12.455c-6.646-4.6-16.539-7.868-25.2-10.414
		c-4.982,1.304-9.776,3.087-14.126,5.661c-7.528,4.454-13.378,11.229-17.539,19.754c-0.05,0.11-0.076,0.229-0.125,0.339
		c3.052,0.985,6.266,1.933,9.776,2.865c11.037,2.89,19.257,4.082,19.026,17.263c-0.081,4.643-2.568,9.844-7.961,9.75
		c-2.996-0.053-5.813-1.75-7.116-4.32c-1.302-2.72-1.053-8.409-0.919-16.048l-16.136-0.281c-2.632,9.334-3.334,19.403-1.83,30.462
		c0.723,5.158,1.891,10.188,3.322,15.224c6.99,1.642,14.201,2.534,21.296,2.658c5.381,0.094,10.103-0.271,14.458-0.888
		c5.715-4.894,11.931-8.729,18.152-11.982c3.553-1.7,7.284-3.024,10.987-4.408c2.712-4.334,4.401-9.344,5.331-14.84
		c-2.224-0.635-3.332-2.35-3.273-5.743l2.915-2.815l1.181,0.189C146.613,92.469,146.711,91.955,146.721,91.387z M149.886,137.023
		c-1.101,0.038-1.65,0.058-2.239-1.022c0,0-0.141-0.241-0.281-0.469l-1.604,0.056l0.763,21.851
		c4.988,2.704,4.717,7.319,5.021,11.914l0.752,21.523c8.709,1.52,17.699,2.155,27.061,1.828l-1.592,1.708
		c-6.049,0.211-12.116-0.127-18.755-0.997c-2.402-0.285-4.503-0.707-6.664-1.102l1.162,33.248c0.085,2.444-0.27,8.789-7.313,9.035
		c-7.044,0.246-7.84-6.059-7.925-8.503l-1.316-37.688c-3.758-1.134-7.513-2.216-11.283-3.737
		c-9.502-4.072-18.493-9.265-25.854-15.063c-0.694-0.555-1.327-1.187-2.014-1.75c0.068,1.105,0.083,2.239,0.122,3.372l1.742,49.882
		c0.119,2.099,0.334,4.014,0.522,5.977c5.711,3.95,11.772,7.301,18.487,9.583c16.158,5.492,33.301,7.646,50.311,5.951
		c3.829-0.685,7.66-1.369,10.94-2.034c1.875-0.38,3.949-1.14,5.918-1.78c2.302-6.264,2.761-13.019,2.66-20.798l-0.851-24.348
		c-1.831,0.187-3.656,0.536-5.491,0.6c0.55-0.02,1.081-0.588,1.611-1.158l-0.55,0.02c1.459-0.132,2.93-0.461,4.389-0.641
		l-0.851-24.355c-0.16-4.6-0.05-9.854,2.281-11.927l-0.302-8.65l-2.694,0.327c0,0-0.53,0.569-1.06,1.138
		c0.019,0.55,0.606,1.63,1.176,2.161c-1.707-1.592-3.376-2.084-5.026-2.026c-0.55,0.019-1.1,0.037-1.08,0.588
		c0.019,0.55-0.531,0.568-1.081,0.588c-0.55,0.019-1.669-0.492-2.807-1.554l-3.281,0.666c-0.057-1.65-0.626-2.181-2.295-2.673
		c-1.649,0.057-2.769-0.454-3.338-0.985c0.531-0.569,0.512-1.119-0.607-1.63c0,0-1.119-0.512-1.688-1.042l-1.804-4.342l0.371-3.795
		l-15.226,0.532C148.65,135.958,149.022,136.422,149.886,137.023z M165.845,90.685c0,0,0,0-0.011,0.573l-7.046,9.62l-5.146-0.663
		l-3.358-4.644l0.593-1.136c0.583-0.563,1.176-1.699,1.759-2.262l10.374-3.258c0.572,0.01,0.572,0.01,1.136,0.593
		c0,0,0.572,0.01,1.146,0.02l-0.01,0.573C165.272,90.675,165.272,90.675,165.845,90.685z M172.971,76.48
		c-6.794-6.494-14.188-12.365-22.455-16.987L150.029,87.4c-0.158,9.054-0.453,17.844,2.224,25.775
		c2.138-0.424,4.138-1.134,6.345-1.41c12.063-1.509,23.533-1.882,34.973-0.536c-0.248-1.362-0.505-2.567-0.819-3.611
		c-1.806-1.389-2.479-3.651-2.713-6.127c-0.098-0.228-0.22-0.396-0.299-0.645C185.898,91.035,180.309,82.913,172.971,76.48z
		 M243.961,53.68l0.622-35.648C231.851,9.27,215.758,4.194,200.49,3.328c-15.117-0.863-29.401,2.034-38.215,9.072
		c-8.475,6.75-10.669,16.344-11.224,26.452c3.808-0.411,6.582,0.202,8.194,2.999c0.542,1.729,1.086,3.458-0.09,5.157
		c-0.04,2.292-1.216,3.991-2.373,4.543c-1.729,0.543-2.874,0.523-4.593,0.494c-0.662-0.012-1.015-0.322-1.536-0.468l-0.011,0.618
		c4.418,1.819,8.76,3.996,12.886,6.926c10.194,7.056,18.639,15.801,24.752,26.797c0.618-0.746,1.205-1.291,1.812-1.936l0.679-38.871
		c0.092-5.243-0.801-14.248,7.588-14.102c8.388,0.146,7.183,9.115,7.091,14.358l-0.134,7.639L243.961,53.68z M288.026,176.325
		c5.031-14.8,7.103-30.426,6.14-46.019l-49.181,1.718c-0.137,1.359-0.026,2.564-0.211,3.968c-0.851,7.188-2.288,13.294-3.766,18.301
		c-1.477,5.007-2.954,10.014-4.981,15.04c-2.841,6.629-6.359,12.771-10.116,18.522l1.192,34.173c0.102,2.91,0.234,5.767-0.716,8.276
		c1.346-0.245,2.691-0.414,4.034-0.762c9.822-2.545,19.036-6.721,27.074-13.059c2.728-2.066,5.174-4.282,7.616-6.501l-1.83-52.401
		c5.467-0.047,6.866,2.927,7.062,8.533l0.723,20.7l12.565-0.438C285.294,183.144,286.832,179.841,288.026,176.325z M310.738,150.895
		c-0.017,0.017-0.017,0.017-0.032,0.034h-0.348c0.098-0.194,0.177-0.387,0.36-0.584L310.738,150.895z M354.836,168.944l29.009-1.013
		l-1.015-29.038c-11.423-7.315-23.304-10.449-36.116-11.158c1.008,2.333,2.29,4.431,3.099,6.929c1.272,4.91,2.546,9.82,3.269,14.751
		c0.723,4.93,1.445,9.859,1.618,14.809c-0.02-0.55-0.589-1.081-1.158-1.611l0.021,0.55c-0.896-9.879-2.892-19.72-6.006-30.073
		c-0.589-1.958-1.61-3.551-2.35-5.386c-2.727-0.109-5.433-0.263-8.254-0.164c-11.5,0.401-23.381,2.255-31.359,8.723
		c-3.341,2.718-5.521,5.354-7.271,8.085c0.06,0.09,0.011,0.296,0.088,0.368c0.058,1.649,1.214,3.261,2.902,4.303
		c0.02,0.55,0.038,1.1-0.511,1.119c-0.55,0.019-0.531,0.57-0.512,1.12l0.552,0.616c-0.582,0.55-1.184,1.351-1.596,2.853
		c-0.655,2.378-1.173,4.767-1.842,7.468l-0.006-0.336c-0.82,2.538-1.531,5.092-2.453,7.616c-2.148,5.88-4.933,11.431-8.069,16.785
		l10.925-0.601l-0.018-1.077c-0.277-0.575-0.727-0.935-0.973-1.55l0.957,0.584l0.016,0.966c5.56,11.558,16.94,15.461,33.765,18.997
		c6.895,1.424,12.604,2.278,15.946,6.034c3.431-10.891,5.205-22.26,5.516-34.158c-2.366-0.58-4.688-1.119-6.812-1.605
		c-3.192-0.751-8.715-2.286-10.952-4.51c-2.082-1.943-2.456-4.376-2.541-6.82c-0.161-4.6,2.302-8.284,7.189-8.455
		c7.475-0.261,7.885,7.353,8.076,12.815l0.079,2.3l5.065-0.177c-0.015-0.667,0.055-1.302,0.031-1.972l1.707,1.593
		C354.856,168.728,354.832,168.841,354.836,168.944z M389.292,212.646l-0.021-0.575c-0.201-5.75-1.27-11.614-3.468-16.862
		c-1.905-5.115-5.338-8.593-9.899-11.457c-5.749-3.549-13.864-6.015-21.435-7.922c-0.128,3.783-0.079,7.461-0.614,11.549
		c-0.85,7.187-2.288,13.293-3.765,18.3c-0.509,1.722-1.183,3.449-1.713,5.171c1.308,2,2.151,4.605,2.28,8.326
		c0.156,4.456-1.968,9.568-7.144,9.749c-0.794,0.027-1.502-0.328-2.255-0.528c-3.356,6.576-7.036,12.872-11.215,18.174
		c-2.081,2.608-4.347,5.07-6.572,7.564c6.646,1.159,13.447,1.646,20.108,1.414C380.238,254.27,390.12,236.366,389.292,212.646z"/>
</g>
</svg>
