<?xml version="1.0" encoding="utf-8"?>
<!DOCTYPE svg PUBLIC "-//W3C//DTD SVG 1.1//EN" "http://www.w3.org/Graphics/SVG/1.1/DTD/svg11.dtd">
<svg version="1.1" id="Layer_1" xmlns="http://www.w3.org/2000/svg" xmlns:xlink="http://www.w3.org/1999/xlink" x="0px" y="0px"
	 width="484.812px" height="893.092px" viewBox="0 0 484.812 893.092" enable-background="new 0 0 484.812 893.092"
	 xml:space="preserve">
<path d="M247.003,648.427c3.584,5.433,4.608,15.734-6,14c-1.712-3.289-5.643-8.563-3-13
	C240.148,648.558,243.331,649.735,247.003,648.427z M235.003,658.427c0,3,0,6,0,9c-3.507-0.826-4.879-3.787-5-8
	C231.164,658.587,232.685,658.106,235.003,658.427z M246.003,714.427c4.325,4.342,11.457,5.875,12,14c-1.172,0.16-0.844,1.822-1,3
	c-4.457,0.312-9.019,2.06-13,0C242.111,724.077,240.978,719.552,246.003,714.427z M359.004,786.427c6.903,2.763,9.264,10.068,14,15
	c0.709,10.199-14.964,17.935-18,7c1.819-2.18,8.178,0.179,10-2C367.084,796.198,355.193,795.104,359.004,786.427z M306.004,806.427
	c-7.025,2.156-18.551,0.699-21-5C291.199,798.491,302.855,800.495,306.004,806.427z M418.004,52.426c-13.781,2.113-16.3-7.034-26-9
	c-3.955,5.983,3.786,8.191,6,14c4.51,11.845,1.131,27.385-1,40c-17.854,16.955-53.527-4.18-71,5c-0.252,9.919,0.836,18.496,5,24
	c9.93-3.737,10.489-16.843,23-18c1.141,7.142-6.431,5.571-6,12c11.592,7.811,16.887-11.09,28-7c-4.988,7.135,7.485,16.258,7,28
	c-0.341,8.187-5.062,10.438-8,18c22.918,2.43,18.805-28.294,9-41c8.311,6.016,14.891,17.901,13,29c-2.679,15.71-27.699,24.126-45,19
	c-7.589,4.079-9.271,14.062-15,20c4.346,31.157,3.659,61.339,5,90c12.637,9.362,29.563,14.434,39,27c0.741,4.077-3.224,3.443-2,8
	c4.227,9.024,15.653,10.812,24,16c6.465,4.02,17.889,11.596,20,17c4.354,11.147-2.115,23.462-12,25
	c-12.377,1.925-25.742-8.976-35-11c2.438,9.893,11.889,12.778,14,23c-10.089-2.913-15.293-10.707-26-13
	c-1.521,41.351,14.51,91.413,24,135c2.58,11.849,2.217,23.976,5,35c2.229,8.83,5.5,17.521,9,28c5.762,17.254,12.594,34.156,24,46
	c3.217,13.961-1.101,25.252-17,23c-3.06-3.608-7.082-6.252-9-11c4.602-11.928-2.283-20.123-7-34c-2.943-8.656-5.39-18.617-8-25
	c-1.97-4.809-5.834-8.674-7-13c-3.379-12.539-2.947-28.785-6-44c-5.47-27.254-8.476-56.309-16-86c-5.351-21.105-10.857-37.449-8-62
	c-3.15-4.139-7.011-9.622-6-15c-7.408-7.889-18.203-8.559-28-4c-5.392,19.528,2.791,43.784,4,60c1.108,14.885-0.82,25.575,2,44
	c3.797,24.799,7.957,50.206,14,79c6.422,30.599,6.371,74.32,31,84c-1.834,5.498-12.238,2.428-16,6c-0.582,14.582,7.891,20.109,18,24
	c-12.23,10.908-25.541-7.285-32-15c2.057-21.807-4.834-40.149-10-65c-3.726-17.912-3.896-37.434-7-54
	c-1.289-6.877-5.486-12.781-7-19c-3.623-14.875,2.883-31.457-9-39c-11.771,40.351-5.719,88.442-1,136
	c4.057,40.906,12.782,83.859,16,124c2.422,30.226,6.977,58.572,21,81c6.817,0.183,15.223-1.225,16,5c-2.818,1.849-8.806,0.529-11,3
	c12.178,36.82,30.778,67.219,61,86c21.311-10.733,33.985-39.58,42-68c6.401-22.711,14.934-46.67,16-69
	c0.678-14.18-0.748-29.418-1-44c-0.263-15.104-3.898-28.69-5-43c-0.695-9.022,0.032-18.182-1-27c-2.818-24.024-9.453-46.811-12-69
	c-1.884-16.406,1.188-30.561,0-44c-0.832-9.412-5.482-15.002-8-24c-3.83-13.692-0.759-29.315-4-41c-1.953-7.037-12.763-18.295-17-26
	c-5.386-9.783-10.578-18.246-13-29c21.237,18.371,33.252,49.32,44,78c5.198,13.875,7.034,31.521,10,47c3.1,16.185,3.896,32.681,7,49
	c2.26,11.892,6.625,23.219,9,35c9.491,47.08,16.205,89.176,13,143c-1.183,19.834-8.914,42.851-14,64
	c-5.492,22.836-13.189,42.299-23,55c-12.554,16.25-41.39,33.051-67,20c-12.767-6.506-21.896-19.485-32-33
	c-7.218-9.651-15.332-18.496-19-25c-5.875-10.416-9.035-29.746-18-34c-4.98-2.362-13.297,1.277-17-4c1.246-4.42,8.243-3.088,12-5
	c-8.801-20.199-16.657-41.344-26-61c-2.303,25.597-3.166,51.072,1,76c-3.644,0.691-4.611,4.056-9,4
	c-10.367-12.336-0.904-36.508-3-52c-8.623,2.314-16.979,10.605-30,9c-18.826-2.322-31.032-29.528-34-52
	c-1.105-8.365,0.141-15.772-6-20c-4.228-13.92-1.647-26.772-3-40c-1.836-17.953-12.253-34.971-10-57c-2.15-4.272-12.331-7.459-17-3
	c1.754,14.443,8.346,27.689,2,42c-4.346,1.32-6.713,4.619-10,7c-16.054-1.303-40.197,3.972-51-5c-6.572-13.725,2.885-35.487-7-49
	c12.215-2.115,29.184-10.457,43-10c6.002,0.197,11.772,4.013,19,5c9.799,1.34,19.644-0.817,26,2c16.604,7.361,7.947,31.691,18,48
	c8.223-0.11,4.077-12.59,9-16c1.809-4.524,10.065-2.602,11-8c-0.853-51.133-9.486-103.254-5-157c-1.706-1.961-7.017-0.317-8-3
	c1.972-6.362,6.707-9.959,7-18c-5.778-1.294-12.396,1.58-16,4c7.09,20.442,9.807,39.61,12,64c-14.197-12.481-12.089-37.61-20-57
	c-4.201-10.299-10.896-18.003-18-28c-5.408-7.609-12.287-22.749-20-25c-5.502-1.606-13.333,2.135-20,2
	c-6.624-0.134-11.744-3.89-16-4c-9.049-0.233-26.014,6.632-33,12c-11.523,8.854-19.172,38.402-23,58
	c-6.041,30.924-4.465,65.113-3,96c1.467,30.924,6.404,62.566,13,96c6.387,32.371,10.606,66.67,20,95
	c10.15,30.617,25.358,55.547,33,79c8.973,12.795,25.529,50.027,49,48c8.197-0.709,9.754-8.229,15-10
	c-3.794,27.051-49.62,12.695-53-7c-30.523-38.028-54.215-85.461-70-140c4.517-9.014-2.6-13.422-5-20c-3.414-9.354-3.27-24.065-7-38
	c-3.408-12.729-9.103-24.271-10-35c-0.946-11.299-1.438-19.414-4-29c-10.135-8.199-19.83-16.836-30-25
	c-1.012-11.346,2.857-17.809,2-29c-2.724-5.276-14.802-1.199-19-5c-0.117-19.451,2.676-35.99,10-48c8.52-0.153,8.438,1.109,15,0
	c6.986-55.362,20.58-99.693,61-125c-1.308-7.693,0.021-18.022-3-24c-9.881-4.895-20.382,0.973-30-1c-4.332-0.889-4.516-4.619-8-6
	c-5.585-2.213-9.779,3.354-14-2c1.141-7.174,9.243-7.553,15-8c36.631-2.844,85.326-1.847,122-9c4.033-15.138-1.662-31.094,1-47
	c1.346-8.04,5.889-14.774,3-25c-4.025-3.642-11.045-4.288-17-6c-3.498-5.77-4.156-16.602,1-21c4.212-3.186,7.94-0.852,13,0
	c3.199-10.005-3.312-18.586-4-28c-12.673-2.327-24.919-5.081-35-10c4.818-5.181,12.61-7.389,19-11c12.497,6.337,69.951,16.877,83,2
	c-15.304-17.505-46.617-19.444-78-16c-2.365,2.483-0.01,5.886,0,9c-5.398-0.602-13.904,1.904-15-3c4.895-20.196,30.008-10.585,44-14
	c4.242-1.036,8.084-6.325,12-7c14.452-2.491,44.844,13.208,42,29c-0.724,4.016-12.115,14.796-16,17c-13.918,7.896-34.318,0.223-52,3
	c0.762,10.571,5.485,17.18,14,20c2.27-5.07-3.171-16.043,5-17c11.076,3.755,4.471,20.989,5,27c1.86,21.166,8.852,42.84,12,65
	c1.548,10.897,2.678,21.547,5,32c2.254,10.143,6.915,19.732,9,30c5.225,25.727,2.479,52.582,13,77c8.811-3.895,12.397-15.799,17-26
	c8.143-18.053,13.945-39.073,24-58c5.476-10.307,12.474-19.03,14-31c0.567-4.456-0.646-8.829,0-13c1.374-8.88,6.75-22.424,11-30
	c2.895-5.164,8-7.467,9-13c0.94-5.214-0.763-12.553-1-18c-1.793-40.756-6.714-86.979-11-125c-15.444-11.557-55.829,1.829-70-11
	c-11.531-29.802-31.439-51.228-53-71c-5.719,2.28-4.767,11.235-9,15c-11.784,4.291-25.128,3.417-35,1
	c-3.287-5.468-2.857-10.457,0-16c10.856-4.476,28.741-1.925,39-7c4.248,2.521,10.221,4.854,15,4c25.971,14.029,44.39,35.61,55,65
	c13.016,12.654,37.607,4.674,55,6c6.452-4.547,9.93-12.07,20-13c10.545,5.59,0.594,14.377-9,14c26.852,3.553,60.481,3.662,87,6
	c2.09-8.81,4.196-20.071,2-28c-7.347-26.501-43.589-16.928-70-20c-2.56-15.636,16.223-13.021,27-16c3.791-1.048,7.639-5.399,11-6
	c9.727-1.737,19.508,6.854,26,0c-1.541-11.232-11.529-2.678-19-7c-8.554-27.632,24.6-14.812,30-2
	C417.678,13.156,433.32,38.992,418.004,52.426z M141.003,27.426c4.734,2.055,14.356,1.277,16-3
	C152.302,26.058,143.868,23.958,141.003,27.426z M418.004,43.426c-0.312-8.354-3.64-13.696-11-15c-0.668,0-1.334,0-2,0
	C405.736,37.027,411.034,41.061,418.004,43.426z M378.004,38.426c-0.115-3.553-3.312-4.024-7-4
	C371.116,37.979,374.312,38.45,378.004,38.426z M358.004,142.426c1.961,6.261,10.075,11.645,17,7c0-4.667,0-9.333,0-14
	C367.689,132.344,359.777,136.696,358.004,142.426z M326.004,257.426c0.416-14.421,5.2-41.865-5-49
	C320.477,227.268,320.156,240.606,326.004,257.426z M300.004,287.426c6.969-2.365,16.014-2.653,19-9c-3.054-2.082-7.595,1.785-11-1
	c-0.353-5.315,0.909-12.244-4-13C301.258,270.681,299.629,278.052,300.004,287.426z M173.003,356.426
	c7.485,7.003,22.965,16.749,28,28c1.881,4.202,6.099,15.557-1,19c-6.953-3.047-5.535-14.465-16-14c-0.603,7.733,10.465,12.104,10,23
	c4.795,4.872,7.588,11.745,15,14c3.955-36.469-13.564-64.408-18-94c-2.648-17.667-0.253-35.415-10-50
	C177.789,306.544,175.096,331.186,173.003,356.426z M309.004,294.426c-0.271,4.98-3.479,15.22,2,17c9.235-9.007,24.205-12.105,42-10
	c-0.117-15.183-15.711-6.418-22-3c-2.673-1.329-1.312-6.688-3-9C319.18,288.602,314.734,292.156,309.004,294.426z M319.004,329.426
	c2.709-7.958,9.446-11.885,15-17C322.827,306.925,313.061,321.088,319.004,329.426z M398.004,333.426
	c-7.896-6.327-18.365-13.332-27-16c-10.05-3.104-32.58,4.203-39,8c22.59,4.881,42.127,14.162,60,23c9.182,4.541,18.577,13.185,26,5
	C414.93,346.781,405.991,339.829,398.004,333.426z M160.003,349.426c6.266-5.289,7.938-19.757,6-30
	C148.45,311.646,151.343,345.821,160.003,349.426z M283.003,352.426c3.771-4.914,13.107-9.128,15-14c2.702-6.963-1.271-13.751-4-20
	c-19.163,13.504-20.925,44.409-33,65C271.162,379.541,274.916,362.968,283.003,352.426z M118.003,323.426
	c3.492-1.387,12.854,0.345,17-3C127.988,321.353,120.965,320.739,118.003,323.426z M101.003,335.426c-1.988,4.962-0.674,12.65,2,16
	c13.628-3.91,26.774,4.672,40,1c-0.531-7.426-1.294-11.331-1-21C126.723,332.91,113.84,333.321,101.003,335.426z M272.003,385.426
	c-6.459,8.782-17.072,21.637-21,31c-1.473,3.509-0.465,6.781-2,10c-2.943,6.173-10.426,11.376-12,19
	c-2.213,10.717-0.449,25.584,0,38c1.646,45.521,10.451,90.152,5,129c9.052,12.078,20.878,27.746,26,44
	c1.944,6.172-0.523,16.121,9,17c-8.54-24.426-0.229-53.33-5-78c-0.86-4.444-4.951-8.58-6-13c-2.815-11.858-3.995-30.014-5-45
	c-1.073-16.012-2.142-34.246,1-46c0.94-3.521,4.627-6.432,6-10c3.007-7.819,2.314-17.281,5-25c1.45-4.172,5.295-7.153,7-11
	c2.895-6.527,4.748-14.594,8-22c3.336-7.597,7.874-15.688,9-22c2.635-14.764-0.353-36.15-3-50
	C288.424,363.806,280.245,374.222,272.003,385.426z M102.003,367.426c-2.239,1.094-5.011,1.656-7,3c0.447,8.447-9.777,6.222-8,16
	c16.731-3.935,28.729-12.603,52-10c1.002-4.664,4.852-6.481,5-12c-12.633-3.034-25.312-6.022-41-6
	C102.961,361.718,101.315,363.405,102.003,367.426z M157.003,369.426c-2.342,3.991-4.543,8.123-12,7c7.48,5.112,23.389-1.206,35,5
	C180.402,373.244,169.787,367.73,157.003,369.426z M38.003,489.427c8.873-41.127,27.703-77.63,38-114
	C49.07,400.717,40.23,443.492,38.003,489.427z M9.003,521.427c2.945,1.388,6.309,2.357,10,3c1.332-8.754,6.631-29.723-5-33
	C10.492,499.581,9.324,510.081,9.003,521.427z M35.003,529.427c-6.998,9.017-8.686,32.967,5,35c-0.873-20.694,4.47-46.059-2-63
	C34.011,510.907,34.394,518.46,35.003,529.427z M124.003,595.427c0.143,4.857,0.725,9.275,3,12c10.643-0.643,18.272,1.726,29,1
	c0.748-7.416-0.771-12.562-4-16C143.09,590.241,130.474,591.944,124.003,595.427z M129.003,613.427c-2.7,4.402,1.184,10.789,2,15
	c5.817,6.32,19.549,3.117,29,2c1.249-5.364,0.626-8.489-1-14C149.5,617.325,137.658,612.696,129.003,613.427z M260.003,699.427
	c0.346-7.42,2.395-14.729,2-21c-1.25-19.885-12.904-52.11-32-43c-4.714,13.06-6.916,37.808-6,50c9.145,1.791,19.701-2.709,27-6
	c2.951,4.166,8.174,3.535,8,9c-0.42,13.205-24.184,1.125-34,9c0.842,17.451,4.698,28.595,17,36c1.236,6.57-4.931,5.736-4,12
	c3.199,4.802,5.681,10.318,15,9C261.9,740.854,259.005,720.872,260.003,699.427z"/>
</svg>
