<?xml version="1.0" encoding="utf-8"?>
<!DOCTYPE svg PUBLIC "-//W3C//DTD SVG 1.1//EN" "http://www.w3.org/Graphics/SVG/1.1/DTD/svg11.dtd">
<svg version="1.1" id="Layer_1" xmlns="http://www.w3.org/2000/svg" xmlns:xlink="http://www.w3.org/1999/xlink" x="0px" y="0px"
	 width="494.636px" height="674.769px" viewBox="0 0 494.636 674.769" enable-background="new 0 0 494.636 674.769"
	 xml:space="preserve">
<g>
	<path fill-rule="evenodd" clip-rule="evenodd" d="M325.572,0.769c4.177,7.188,2.406,18.055-5,18
		C309.592,18.688,311.682-4.459,325.572,0.769z"/>
	<path fill-rule="evenodd" clip-rule="evenodd" d="M484.572,6.769c6.902,0.098,8.808,5.192,10,11c0.582,3.582-2.96,3.041-6,3
		c0.634,3.699,2.714,5.953,2,11c-9.529,1.863-9.676-5.658-15-8c-2.328,1.95,0.105,7.555,0,8c-15.434,37.567-32.464,73.536-48,111
		c-7.733,3.53-13.811-0.577-20-2c-31.277-7.193-78.591-1.03-111,4c-26.126,4.055-46.181,9.067-59,24c-0.811-5.478,4.461-4.873,4-10
		c-40.118,23.215-61.843,64.824-88,102c13.746-29.922,34.601-61.398,56-87c-16.397,2.605-31.444,15.22-44,25
		c10.904-20.096,33.102-28.898,53-40c42.946-37.053,83.293-76.708,121-119c-1.695-1.971-5.04-2.294-4-7
		c5.111-13.863,20.334-8.152,39-9c25.943-1.178,55.335-4.667,81-6c8.156-0.424,16.355,2.438,20-6c4.178-0.844,4.723,1.944,8,2
		C483.582,11.113,483.194,8.058,484.572,6.769z M367.572,37.769c4.255,7.084,13.425,17.904,21,25c15.673-12.327,36.837-19.163,55-29
		C416.134,33.535,393.672,35.29,367.572,37.769z M392.572,70.769c12.623,16.044,18.476,38.857,25,61c8.252-2.633,10.6-13.425,14-21
		c7.475-16.65,14.106-33.562,21-50c3.27-7.798,9.815-16.872,7-25C435.134,45.331,409.287,53.483,392.572,70.769z M355.572,38.769
		c-10.068,15.371-21.123,28.248-35,40c-20.67,17.506-40.776,37.834-58,57c-1.733,1.929-6.069,4.657-5,8
		c22.159-8.841,39.306-22.694,58-35c-1.052-3.109-3.891-8.685,0-11c5.87-0.87,6.256,3.744,11,4c6.097-4.236,13.464-7.203,17-14
		c-3.478-3.855-11.114-3.552-10-12c8.664-2.831,13.076,6.802,21,8c5.101-4.233,12.979-5.687,16-12c-5.723-4.992-20.918-8.746-16-18
		c10.223,2.843,17.092,14.153,29,12C379.398,55.664,368.835,38.301,355.572,38.769z M396.572,92.769c-4.728,4.517-13.302-0.274-15-5
		c1.226-2.974,4.56-3.834,2-8c-8.433-4.421-19.122,4.386-24,10c2.373,7.636,13.592,11.73,11,21c-10.981,1.519-9.584-15.269-20-16
		c-6.99-0.491-13.753,7.943-20,12c1.449,6.884,7.666,9.001,9,16c-2.039,0.294-1.961,2.706-4,3c-7.56-1.773-8.768-9.899-16-12
		c-11.708,8.625-25.58,15.087-37,24c42.515-11.13,84.874-11.485,130-9c-6.091-20.909-10.475-43.525-24-57c-0.667,0-1.333,0-2,0
		C386.128,78.694,396.884,82.683,396.572,92.769z"/>
	<path fill-rule="evenodd" clip-rule="evenodd" d="M344.572,8.769c2.722,7.589-0.901,16.95-10,16
		C325.951,19.469,334.944,4.372,344.572,8.769z"/>
	<path fill-rule="evenodd" clip-rule="evenodd" d="M434.572,160.769c-5.21-1.457-9.973-3.36-14-6c2.553-4.918,8.785-9.893,14-9
		C438.354,150.193,439.42,156.697,434.572,160.769z"/>
	<path fill-rule="evenodd" clip-rule="evenodd" d="M435.572,184.769c-10.683,2.016-8.111-9.222-13-13
		C428.794,153.283,445.359,172.602,435.572,184.769z"/>
	<path fill-rule="evenodd" clip-rule="evenodd" d="M317.572,202.769c2.815,7.204-3.968,13.59-6,18c-0.618,1.341,1.865,3.246,2,3
		c-2.132,3.895-5.293,5.47-8,8c-6.969-2.698-13.437-5.897-13-16C302.322,212.853,306.954,204.818,317.572,202.769z"/>
	<path fill-rule="evenodd" clip-rule="evenodd" d="M428.572,207.769c13.597,18.438,5.344,44.522-2,72
		c-6.771,25.337-8.559,47.083-19,64c5.769,1.103,5.41-3.924,11-3c2.566,7.139,6.873,16.404-1,21c-14.224,3.557-10.741-10.592-19-13
		c13.581-16.495,12.382-47.594,19-75c4.083-16.908,10.126-32.54,11-48c-21.459-2.557-45.001,6.488-69,8
		c-12.85,0.81-25.78-0.878-39,1c10.99-8.068,26.247-7.398,40-10C383.676,220.398,406.907,212.925,428.572,207.769z"/>
	<path fill-rule="evenodd" clip-rule="evenodd" d="M396.572,229.769c4.231,0.068,2.366,2.286,1,4c2.022,4.525,8.537,9.171,5,16
		c-9.869,0.536-11.526-7.141-11-17C393.814,232.345,394.76,230.623,396.572,229.769z"/>
	<path fill-rule="evenodd" clip-rule="evenodd" d="M392.572,277.769c-10.759-7.908-21.909-15.424-28-28
		C378.509,250.549,392.043,260.262,392.572,277.769z"/>
	<path fill-rule="evenodd" clip-rule="evenodd" d="M331.572,256.769c18.24,9.093,39.063,15.604,42,40
		c-7.57-2.904-18.646-16.778-29-22C336.734,270.816,324.287,270.271,331.572,256.769z"/>
	<path fill-rule="evenodd" clip-rule="evenodd" d="M147.572,268.769c3.179,1.524-2.938,10.143-6,12
		C142.013,275.21,145.667,272.864,147.572,268.769z"/>
	<path fill-rule="evenodd" clip-rule="evenodd" d="M153.572,332.769c-4.567-0.1-2.558-6.775-5-9c-15.57-14.097-47.016-12.318-69-20
		c1.949-9.351,15.072-7.559,23-7c16.99,1.198,41.417,10.367,49,18C155.187,318.407,162.198,329.266,153.572,332.769z"/>
	<path fill-rule="evenodd" clip-rule="evenodd" d="M122.572,366.769c-7.945,1.83-15.821,8.698-24,7c0.046-3.954,2.202-5.799,3-9
		c-10.875-6.576-28.586-11.959-43-18c3.763-5.733,14.359-4.578,20-4C96.242,344.579,116.521,354.906,122.572,366.769z"/>
	<path fill-rule="evenodd" clip-rule="evenodd" d="M79.572,384.769c-0.016,3.651-2.843,4.491-4,7
		C73.266,389.719,76.689,384.943,79.572,384.769z"/>
	<path fill-rule="evenodd" clip-rule="evenodd" d="M73.572,412.769c-1.441,6.118-8.086,9.307-15,7
		c-10.98,11.803-26.263,32.626-40,49c-3.58,4.267-8.81,16-13,16c-10.257,0-3.267-13.233-3-18c21.884-11.783,35.07-32.263,51-50
		c-7.242-7.758-26.329-3.672-31-14C37.079,393.687,66.366,399.569,73.572,412.769z"/>
	<path fill-rule="evenodd" clip-rule="evenodd" d="M444.572,219.769c-3.006-3.994-5.861-8.139-6-15c2.229-4.438,10.943-2.39,13-7
		c7.439,4.691,5.755,18.403,1,21C451.89,219.682,448.591,219.728,444.572,219.769z"/>
	<path fill-rule="evenodd" clip-rule="evenodd" d="M311.572,231.769c13.991,14.339,2.89,40.579-4,56
		c26.724,0.61,40.139,14.528,52,30c-6.242-2.654-10.688-6.98-20-4c-16.206-21.573-51.193-12.449-58,14c-6.379-0.712-6.813,4.52-9,8
		c4.406-0.594,6.462-3.538,8-7c21.14-11.215,44.282-3.108,69-4c16.951-0.611,32.933-7.846,46,1c5.302,1.302,5.104-2.897,10-2
		c-5.502,3.832-11.607,7.06-13,15c-11.859-4.517-26.151-4.527-37-4c-31.867,1.547-57.441-0.408-79,12
		c-25.087,14.439-27.613,44.284-33,83c5.112,3.916,9.465-0.896,15-2c1.289,5.045,2.484,10.183,2,17c-5.67,0.732-10.365,1.299-16,4
		c2.101,17.233-0.003,38.67,17,41c6.15-2.183,1.618-15.049,12-13c3.297,5.092-2.29,8.708-4,12c-4.243,11.437,2.505,20.778,3,29
		c-3.596,3.676-6.202-3.878-9-1c5.009,11.991,7.882,26.118,16,35c8.218-6.115,8.646-20.021,20-23c0.874,15.207-7.207,21.46-6,37
		c-11.79,3.633-5.662,13.584-5,27c0.547,11.082-2.906,20.213-4,29c3.127,5.375,8.733,9.57,15,9c-0.535,4.131-1.465,7.869-2,12
		c-6.587,5.705-19.826,2.456-25-2c-12.747,10.253-20.803,25.197-35,34c-2.082-3.595,0.183-10.112,1-14c0.77-0.666,3.255,0.737,6,0
		c3.948-1.061,20.855-18.129,24-24c0.628-1.173-0.23-3.665,0-5c0.716-4.145,4.196-3.835,4-5c-1.096-6.517-10.626-4.526-14-10
		c4.063-7.234,13.632,1.093,19,2c9.983-6.799,6.539-27.728,3-39c-19.849-4.484-26.569-22.098-39-34c3.154-8.023,19.272-2.76,25-1
		c-2.737-9.935-9.772-24.224-15-35c-11.454-4.879-31.737-0.93-34-15c8.5-0.402,17.391-3.978,26-7c-1.58-12.087-3.73-23.604-7-34
		c-8.303,3.697-15.073,8.927-23,13c-5.958-2.043-9.958-6.043-12-12c8.099-10.901,23.491-14.509,35-22
		c2.178-20.352,6.878-42.729,12-63c-16.615,12.385-32.655,25.345-44,43c0.039,3.26,1.101,10.224-4,13c-7.233-1.764-5.118-13.04-4-17
		c4.704-16.663,28.778-27.126,35-42c2.043-0.957,3.957-2.043,6-3c2.905-5.762,8.515-8.818,9-17c13.181-7.703,13.087-22.631,26-30
		c-2.064-3.715,1.434-2.614,1-7c16.303-20.535,35.638-42.795,37-75C310.29,233.154,311.518,233.047,311.572,231.769z
		 M255.572,498.769c-0.224,1.891,1.127,2.206,1,4c3.131,0.464,4.464-0.869,4-4C259.259,497.486,256.886,497.486,255.572,498.769z"/>
</g>
</svg>
