<?xml version="1.0" encoding="utf-8"?>
<!DOCTYPE svg PUBLIC "-//W3C//DTD SVG 1.1//EN" "http://www.w3.org/Graphics/SVG/1.1/DTD/svg11.dtd">
<svg version="1.1" id="Layer_1" xmlns="http://www.w3.org/2000/svg" xmlns:xlink="http://www.w3.org/1999/xlink" x="0px" y="0px"
	 width="584.881px" height="734.632px" viewBox="0 0 584.881 734.632" enable-background="new 0 0 584.881 734.632"
	 xml:space="preserve">
<path d="M284.817,283c-1.116,0.164-1.938,0.682-2.047,1.305c-0.109,0.62-0.223,1.239-0.337,1.867
	c-0.121,0.622,0.464,1.333,0.762,1.694c0.522-0.878,1.047-1.762,1.853-2.285c1.114-0.161,1.633-1.044,2.155-1.926
	c0.931-1.141,0.75-2.126,0.161-2.845C286.846,281.698,286.032,282.214,284.817,283z M325.259,287.76
	c-0.402,0.259-0.402,0.259-0.402,0.259c-0.292-0.356-0.292-0.356-0.7-0.103c-0.11,0.625-0.64,1.507-0.164,2.848l2.039-1.311
	L325.259,287.76z M293.4,291.706l2.051,0.156c0.173-0.624,0.464-1.377,1.058-2.112c0.928-1.141,1.448-2.034,1.563-2.642
	c0.109-0.622,0.931-1.147,1.621-1.048c0.705,0.099,1.523-0.424,1.633-1.049c0.413-0.259,0.816-0.518,0.52-0.879
	c-0.292-0.358-0.292-0.358-0.174-0.982c-1.699-0.56-3.219-0.133-4.552,1.27c-0.517,0.885-1.039,1.767-1.555,2.653
	c-0.121,0.617-0.64,1.499-1.157,2.38c0.29,0.354,0.178,0.984-0.23,1.241C294.108,291.089,293.752,291.432,293.4,291.706z
	 M332.788,287.866c-0.928,1.144-1.744,1.667-2.969,2.447c-1.1,0.165-1.624,1.049-2.144,1.928c-0.628,0.773-0.751,1.468-0.802,2.028
	l2.937,0.226c0.179-0.593,0.567-1.32,0.667-1.861l2.036-1.301c-0.182-0.987-0.07-1.606,0.454-2.485
	c0.115-0.621,0.93-1.142,2.039-1.308c1.097-0.162,1.913-0.689,2.438-1.566l0.046-2.227c0.104,0.016,0.229,0.01,0.348,0.013
	l0.238-3.124l-0.416,0.268c0.47,1.343-0.756,2.125-2.562,2.188c-0.404,0.26-0.814,0.521-0.928,1.145
	c-0.122,0.619-0.934,1.143-0.339,1.862C333.012,286.622,332.897,287.245,332.788,287.866z M311.557,276.256
	c-0.107,0.623-0.107,0.623-0.107,0.623l1.393,0.198l0.634-1.499C312.776,275.477,312.371,275.738,311.557,276.256z M308.071,279.592
	l-1.091,3.987c-1.513,0.424-3.146,1.471-3.78,2.98c-0.636,1.499-1.268,3.003-2.197,4.145c-0.282,0.483-0.797,0.945-1.518,1.468
	l2.174,0.168c0.418-0.508,0.881-0.978,1.442-1.342c1.224-0.774,2.559-2.188,3.491-3.327c1.34-1.401,1.558-2.647,0.677-3.724
	c1.527-0.428,2.625-0.589,3.558-1.732c0.112-0.623,0.521-0.885,0.336-1.866c0.408-0.264,0.229-1.245,0.341-1.871
	C310.222,277.667,309.003,278.453,308.071,279.592z M348.655,287.557c0,0-0.106,0.625-0.337,1.862l1.622-1.042l0.235-1.242
	C349.872,286.775,349.469,287.034,348.655,287.557z M343.739,533.429l-4.598-57.566l-16.133,30.129l20.075,27.486L343.739,533.429z
	 M316.773,528.927l-0.905,10.398l6.618,9.732l14.859-11.594l4.294,5.449l1.171-0.094l-0.282-3.545l-24.34-26.689l-0.879,10.131
	l0.137-0.016l1.036-4.168l1.752,3.922l4.281-0.309l-3.191,2.881l1.613,3.973l-3.717-2.137L316.773,528.927z M402.963,297.14
	l0.334-1.862l-0.176-0.984c-1.636,1.045-2.85,1.832-3.379,2.714c-0.687,0.844-1.209,1.886-1.937,2.693l2.56,0.197
	c0.109-0.073,0.21-0.132,0.323-0.207C401.622,298.545,402.555,297.405,402.963,297.14z M352.26,283.604
	c-0.708-0.099-1.107,0.163-1.229,0.783l-0.116,0.618l2.51,0.041l-0.354-1.965C352.671,283.342,352.671,283.342,352.26,283.604z
	 M318.238,282.941c0.935-1.141,2.372-3.171,3.242-5.91l-1.288-0.826c-0.93,1.145-2.269,2.55-3.603,3.955
	c-1.332,1.402-2.672,2.807-4.003,4.212c-1.329,1.405-1.976,2.91-2.092,3.533l1.288,0.819l-0.293-0.359
	C313.822,287.412,315.978,285.489,318.238,282.941z M322.726,293.771l0.333-1.867c-0.7-0.088-1.392-0.198-2.216,0.326
	c-0.092,0.522-0.183,1.038-0.279,1.554l1.32,0.103c0.046-0.07,0.082-0.133,0.135-0.208L322.726,293.771z M421.626,505.779
	l-0.414-5.18l-10.176,0.814l-1.3-16.25l20.084-1.605l1.948-22.385l-45.183-3.904l-2.165,25.051c4.988,3.766,4.046,9,3.576,14.27
	l-2.033,23.549l1.362,1.914l-12.5,26.355l-16.873-9.402l-1.238,2.707l4.618-0.367l0.76,9.508l-4.894,0.389l1.283,4.08l10.635,12.014
	l-6.68,0.535l5.974,18.963c0.009-0.059,0.021-0.113,0.03-0.168l3.616,11.693l42.684,3.691l3.784-43.705l-2.927,0.232l-1.302-16.348
	l5.663-0.457l0.982-11.359c-0.741,0.129-1.472,0.127-2.143-0.121l0.001,0.074l-6.777,0.543l0.814,10.182l-16.248,1.297
	l-3.081-38.547l16.356-1.305l0.811,10.18l5.528-0.443c1.764-1.199,5.086-1.16,5.086-1.16S419.42,507.519,421.626,505.779z
	 M415.166,514.896l-6.835,0.547l-0.816-10.268l-11.24,0.896l2.684,33.604l11.243-0.896l-0.827-10.346l6.944-0.553
	c-1.275-3.121,1.726-7.021,1.726-7.021S415.533,517.486,415.166,514.896z M287.802,288.203c-0.517,0.878-0.631,1.504,0.662,2.32
	c0.695,0.1,1.509-0.418,1.509-0.418c0.525-0.886,0.928-1.147,1.336-1.405c0.23-1.244,0.754-2.127,0.859-2.749l-0.292-0.362
	c-0.993-0.456-2.097-0.294-2.911,0.225C289.138,286.797,289.025,287.418,287.802,288.203z M418.753,555.748l0.984-11.396
	l-2.801,0.229l0.9,11.242L418.753,555.748z M304.314,488.845c0.448-5.271,0.42-10.59,5.974-13.436l2.176-25.049l-53.579-4.633
	l-2.171,25.051c4.987,3.752,4.021,8.992,3.569,14.266l-5.279,61.145c0.576-0.086,1.108-0.221,1.594-0.5l10.045-8.502
	c-0.649,1.613-1.867,2.854-4.129,3.822c-0.372,0.568-0.646,1.613-0.825,3.119c-0.174,1.521,0.595,2.836,1.267,3.684
	c1.61,0.646,3.023,0.354,3.969,0.156c1.218-1.242,2.164-1.438,3.479-2.209c0.571,0.375,1.045,0.273,1.518,0.184
	c0,0,0.471-0.105,1.04,0.27c-0.273,1.047-0.646,1.613-1.12,1.713c-0.943,0.197-1.788,0.865-2.162,1.434l-7.1,10.848l-2.472,9.383
	c0.766,1.312,1.712,1.115,3.129,0.82c1.217-1.238,2.163-1.432,3.677-1.256c0.099,0.469,0.099,0.469-0.373,0.561
	c0,0,0.099,0.477,0.196,0.949l-6.884,2.424c-0.469,0.102-0.469,0.102-0.372,0.57c0.099,0.475,0.099,0.475-0.375,0.57
	c0,0,0,0,0.101,0.473c0,0,0.098,0.471,0.293,1.418l11.43-1.896c0.567,0.379,0.567,0.379,0.668,0.848
	c0.099,0.473-0.274,1.049-0.847,0.67l-12.551,3.604l-2.612,3.992c0.77,1.316,1.812,1.596,3.129,0.828
	c1.415-0.301,2.832-0.594,3.502,0.25l0.195,0.951l-7.746,2.34l45.561,3.941l2.179-25.051c-5.007-3.768-4.041-8.992-3.589-14.264
	L304.314,488.845z M277.067,572.939l0.372-0.568l11.034-3.781L277.067,572.939z M361.665,565.408l2.252-0.182l-3.645-4.232
	L361.665,565.408z M338.27,567.951l6.223-10.342l-0.326-4.154l-8.728,14.725L338.27,567.951z M472.969,358.364l-2.115,16.672
	c1.812,2.807,3.748,5.598,5.795,8.371c1.385-5.351,3.489-10.664,6.347-15.713c7.808-13.369,19.41-22.926,34.542-27.246
	c2.446-0.703,4.898-1.244,7.341-1.72l1.644-12.993l-53.416-6.76l-3.159,24.982C474.784,347.907,473.627,353.105,472.969,358.364z
	 M485.681,366.396c-3.706,6.184-6.246,12.607-7.254,19.33c9.275,11.486,19.772,22.09,31.642,31.797l6.779-53.595
	c0.668-5.262,0.84-10.577,6.52-13.206l1.229-9.678c-2.403,0.477-4.801,1.051-7.232,1.796
	C503.574,346.522,493.18,354.5,485.681,366.396z M216.146,506.798l31.156,2.695l5.518-63.797l-121.84-10.543l-5.516,63.803
	l31.166,2.691l2.051-23.736c0.546-6.436,2.344-9.768,8.61-9.387l-3.39,39.156c4.731,1.221,9.424,2.955,14.074,5.225
	c5.148,2.672,9.717,5.572,14.176,9.883c4.455,4.309,8.33,8.854,11.623,13.635c0.635,1.059,1.196,2.113,1.72,3.168l5.823-67.268
	c6.248,0.715,7.43,4.312,6.87,10.738L216.146,506.798z M140.303,382.777c8.221-2.771,16.012-6.531,23.327-9.854
	c0.343-0.158,0.68-0.336,1.02-0.5l-22.67-2.877L140.303,382.777z M138.561,396.531c1.69-1.051,3.359-1.549,5.033-2.037
	c1.539,0.062,3.815,0.914,5.295,2.51c1.479,1.594,3.762,2.453,6.036,3.304l-0.064,1.526l1.085,12.355
	c-1.325,1.632-2.639,3.012-3.974,4.155c10.544,5.698,22.617,8.778,34.458,10.278c41.913,5.309,56.449-13.215,59.88-40.342
	l0.085-0.646c0.828-6.581,0.703-13.444-0.824-19.82c-1.222-6.17-4.489-10.759-9.143-14.851c-7.747-6.71-20.487-12.073-30.465-16.135
	c-6.233,11.349-14.18,21.581-23.423,30.567c11.695,4.45,20.467,6.806,18.646,21.181c-0.647,5.1-4.005,10.521-9.914,9.762
	c-3.303-0.41-6.182-2.604-7.318-5.596c-1.095-3.137-0.146-9.377,0.919-17.752l-9.372-1.189c-0.126,0.109-0.25,0.221-0.375,0.328
	c-10.772,9.084-22.956,16.645-36.515,21.983L138.561,396.531z M297.557,442.699c17.808,1.752,36.688-1.018,49.222-8.963l5.85-46.172
	c-0.283-0.117-0.568-0.189-0.792-0.186l-7.836,0.123l-5.533,1.944c-0.396,0.827,0.026,1.235,0.648,1.843
	c1.034,0.19,1.453,0.598,1.878,1.414c-0.2,0.209-0.2,0.209-0.408,0.008c0,0-0.204,0.209-0.409,0.418l-3.543-2.621
	c-0.209-0.209-0.209-0.209-0.412,0.004c-0.202,0.214-0.202,0.214-0.414,0.008c0,0,0,0-0.202,0.209c0,0-0.201,0.21-0.606,0.626
	l4.822,5.077c0.003,0.415,0.003,0.415-0.198,0.625c-0.203,0.207-0.613,0.215-0.618-0.198l-6.064-5.056l-2.879,0.047
	c-0.398,0.829-0.19,1.445,0.647,1.845c0.625,0.603,1.257,1.216,1.055,1.837l-0.405,0.42L315.9,383.414
	c-0.409,0.006-0.61,0.217-1.223,0.846l-0.414,0.004c-0.409,0.013-0.409,0.013-0.613,0.221l-2.899-0.777
	c-0.403,0.42-0.396,0.832-0.389,1.246c0.621,0.197,1.039,0.6,1.462,1.418l-1.462-1.418c-0.124-0.119-0.251-0.231-0.447-0.348
	l-0.693,5.484l0.197,0.441c-0.106,0.002-0.188,0.002-0.253-0.005l-0.855,6.778c-0.732,5.746-0.834,15.756-10.029,14.589
	c-9.215-1.17-6.798-10.874-6.081-16.627l6.892-54.406c0.722-5.757,0.819-15.764,10.03-14.605c9.203,1.17,6.812,10.895,6.075,16.641
	l-1.068,8.39l42.409,5.357l4.955-39.11c-6.947-5.984-15.082-10.903-23.701-14.621c-0.341-0.048-0.668-0.094-0.899-0.125
	c0.083-0.055,0.155-0.107,0.234-0.164c-0.428-0.181-0.855-0.357-1.284-0.532c-0.129,0.156-0.252,0.317-0.36,0.498
	c-0.705-0.099-0.705-0.099-0.705-0.099c-0.288-0.357-0.288-0.357-0.987-0.458c-0.716-0.103-1.15-0.709-1.632-1.352
	c-5.504-1.992-11.14-3.498-16.736-4.471c-0.454,0.062-2.669-0.363-4.724-0.704c-1.16-0.146-2.312-0.268-3.463-0.37
	c-0.119,0.02-0.207,0.049-0.215,0.104c-1.256-0.149-2.431-0.264-3.573-0.363c-1.043-0.049-2.079-0.08-3.106-0.09
	c-0.088,0.291-0.192,0.582-0.249,0.884c-0.695-0.095-1.392-0.198-1.69-0.549l-0.264-0.325c-10.243,0.17-19.544,2.297-26.455,6.682
	c-11.44,7.241-14.647,19.354-16.248,32.019l-6.202,48.979c-1.954,15.443-4.326,30.174,6.402,43.053
	C263.3,434.849,279.897,440.966,297.557,442.699z M342.949,399.062l5.638,4.24l-6.049-4.232L342.949,399.062z M313.704,387.777
	l8.163,7.504l-7.737-6.685c0,0-0.204,0.211-0.61,0.218l1.063,2.251l-1.048-1.015l-0.017-1.236L313.704,387.777z M226.141,227.369
	c-3.395,9.126-8.104,17.695-14.193,25.331c2.212,5.468,4.045,11.098,5.532,16.832c3.249,16.279,2.618,33.18-3.36,49.118
	c-1.547,4.394-3.343,8.648-5.351,12.774l39.605,5.014l4.199-33.197c-9.048-8.112-18.844-13.463-29.54-16.933l3.862,0.293
	l4.281-55.889l0.227-2.863h-0.007l0.007-0.076L226.141,227.369z M199.519,225.312v0.019l-0.146-0.011l-0.317,4.132
	c4.69,6.292,8.481,13.064,11.585,20.142c5.176-6.688,9.265-14.221,12.295-22.471l-16.985-1.299L199.519,225.312z M164.242,286.606
	c-11.763,7.056-15.093,14.312-17.596,28.934l-0.401,3.11c-3.56,28.15,8.293,37.357,30.526,46.458
	c4.378-3.261,8.479-7.037,12.185-11.241c5.387-5.669,9.978-11.848,13.85-18.364c-3.496-1.543-8.127-3.917-9.949-6.429
	c-2.006-2.597-1.982-5.434-1.633-8.226c0.682-5.256,4.153-8.99,9.739-8.293c7.084,0.906,7.649,7.057,7.188,12.69
	c2.216-4.906,4.087-9.941,5.517-15.086c4.435-15.989,3.532-32.947-1.986-50.077c-0.572-1.604-1.216-3.179-1.851-4.755
	c-2.696,3.114-5.633,6.051-8.835,8.778c-8.41,7.468-17.68,13.575-27.53,18.405l0.499,0.039c-0.46,0.12-0.91,0.26-1.363,0.394
	C169.857,284.263,167.07,285.483,164.242,286.606z M194.524,532.015c-4.805-3.486-10.776-6.508-18.091-8.643
	c-4.687-1.578-9.162-2.006-13.713-2.014l-1.69,19.541c-0.452,5.27-0.41,10.596-5.964,13.434l-2.188,25.072l53.593,4.621
	l1.079-12.492c-0.026-2.516,0.364-8.176,0.221-13.287c-3.633-3.33-3.266-7.672-2.846-12.135
	C202.318,540.519,198.789,535.781,194.524,532.015z M395.77,295.176c0,0,0.414-0.268,0.814-0.528
	c0.415-0.26,0.524-0.886,0.634-1.503l-0.4,0.26C396.699,294.03,396.184,294.909,395.77,295.176z M62.616,543.05
	c0.761-0.273,1.522-0.529,2.277-0.826c0.055,0.129,0.108,0.256,0.165,0.379c1.468-0.266,2.941-0.516,4.423-0.752
	c-0.101-0.418-0.136-0.805-0.108-1.172l0.572-0.242c0.189,0.076,0.472,0.189,0.774,0.266c-5.863-10.879-10.511-22.199-13.79-33.754
	l25.313,1.654l-44.264-78.684l-37.688,61.67c0.002,0.258,0.213,0.305,0.486,0.283L0,493.142l3.349,0.938
	c0.159,3.461-0.408,7.605,1.206,9.475l16.88,1.094c0.544-1.338,1.045-2.789,1.49-4.416l7.542-8.336L23.63,512.8
	c2.353,12.344,5.581,24.422,9.613,36.119c2.535-0.109,5.087-0.334,7.646-0.646C47.974,546.21,55.219,544.46,62.616,543.05z
	 M70.214,559.519l0.929-1.055c-1.355-2.506-3.05-4.197-4.108-5.123c-1.854-1.502-3.583-2.674-5.252-3.379
	c-0.792,0.123-1.577,0.256-2.364,0.391c0.359,0.668,1.158,1.764,2.415,2.715c1.463,1.102,2.927,2.211,4.394,3.314
	C67.691,557.486,69.155,558.587,70.214,559.519z M62.738,561.185c0.82,0.35,1.229,0.52,1.81,0.285l-0.882-1.342l-1.162,0.473
	C62.504,560.601,62.504,560.601,62.738,561.185z M57.163,554.953l1.824,3.672c1.059,0.934,2.286,1.453,3.218,0.404
	c-0.237-0.584-0.302-1.584-0.709-1.756c-0.06-0.99-0.473-1.166-0.705-1.754c-1.058-0.932-2.049-0.863-3.456-0.973
	c0.521-1.234,0.054-2.4-1.411-3.504c-0.021-0.021-0.05-0.043-0.072-0.062c-1.128,0.215-2.253,0.445-3.376,0.68
	c0.257,0.375,0.512,0.754,0.765,1.141C54.121,554.144,55.762,554.839,57.163,554.953z M51.961,554.679
	c-0.233-0.582-1.055-0.932-1.638-0.695c-0.582,0.234-1.405-0.117-1.64-0.691c-0.083-0.209-0.237-0.445-0.425-0.697
	c-0.721,0.168-1.441,0.334-2.158,0.514c0.179,0.252,0.334,0.496,0.422,0.713c0.649,0.758,1.291,1.516,1.937,2.273
	c1.462,1.105,2.871,1.215,4.209,0.334c-0.234-0.586-0.234-0.586-0.062-0.99C52.783,555.029,52.372,554.851,51.961,554.679z
	 M132.723,173.438c2.1-0.516,3.416,0.266,3.943,2.357c8.144,4.484,15.744,9.077,22.778,14.089l0.029-0.347
	c1.03-13.011,1.47-18.546,16.596-17.346l5.7,0.455l-16.247,21.771c0.043,0.034,0.088,0.064,0.129,0.098
	c10.64,8.429,20.504,18.918,29.662,30.144l33.247-44.908c-0.94-11.283-3.378-22.746-7.429-34.458l-89.727-6.876l-2.541,33.19
	c1.458,0.764,2.854,1.534,4.281,2.298C133.264,173.503,133.154,173.333,132.723,173.438z M188.195,144.083
	c1.308,0.782,1.308,0.782,2.371,0.518c1.051-0.259,1.312,0.797,2.63,1.596l0.518,2.108c-0.795,1.318-2.643,2.899-5.81,3.679
	c-1.056,0.259-2.37-0.541-3.154-3.703C185.286,145.905,187.136,144.341,188.195,144.083z M158.914,196.536l0.273-3.44
	c-7.599-5.442-15.579-10.328-23.951-14.896l-0.156,0.258c-1.315-0.794-1.315-0.794-2.368-0.535c0,0,0,0-1.319-0.793
	c0.159-0.264,0.304-0.503,0.443-0.74c-1.071-0.565-2.12-1.15-3.205-1.706l-1.489,19.461l6.081,0.344L158.914,196.536z
	 M204.724,256.469c1.337-1.366,2.607-2.783,3.835-4.236c-2.766-6.399-6.017-12.581-9.831-18.533l-0.311,4.031
	c-0.423,5.552-1.33,9.336-3.388,11.789c-2.436,2.782-6.462,3.733-13.413,3.182l-6.668-0.533l18.917-25.551
	c-7.438-10.087-16.569-19.498-27.593-28.226c-0.781-0.614-1.587-1.191-2.375-1.792l-16.883,22.622
	c0.004-0.006,0.008-0.008,0.014-0.013c0.796-0.739,1.536,0.058,3.074,0.114l1.48,1.594c-0.057,1.54-0.91,3.817-3.298,6.037
	c-0.797,0.739-2.335,0.677-4.553-1.711c-0.131-0.449-0.193-0.892-0.224-1.324l-11.05,14.806l-0.203,0.903
	c0,0-0.776,1.26-2.558,2.799l-7.675,10.282l-0.15,1.913c-0.124,0.08-0.257,0.157-0.376,0.236l-1.8,23.538l44.735,3.426
	C180,276.481,193.675,267.683,204.724,256.469z M533.937,326.672l-1.407,10.986c10.153-0.885,20.295,0.293,30.341,4.091
	c7.378,2.37,14.063,6.688,19.433,11.646l2.578-20.261L533.937,326.672z M446.075,518.619c0,0,2.82,3.838,2.379,6.84l6.729-0.535
	l0.819,10.264l11.245-0.9l-2.688-33.602l-11.244,0.896l0.828,10.35l-6.266,0.498C447.97,515.136,446.075,518.619,446.075,518.619z
	 M516.148,439.32c-8.048-1.02-7.79-8.336-7.432-11.127l0.88-6.949c-12.044-8.9-22.469-19.18-31.604-30.306
	c-0.062,2.249,0.003,4.522,0.302,6.838c1.027,11.746,4.743,22.209,10.612,30.966c5.641,6.889,13.159,13.533,22.956,19.4
	c7.264,4.783,14.693,7.156,22.534,8.992c7.184,1.16,14.263,1.582,21.515,0.979c1.661-1.777,3.05-3.645,4.238-5.598
	c-11.584-5.846-23.098-12.676-34.404-20.107C524.922,435.646,522.644,440.138,516.148,439.32z M556.206,341.663
	c-7.931-1.938-15.888-2.588-23.948-1.82l-1.504,11.822c5.183,3.995,4.018,9.19,3.517,14.474l-8.042,63.452
	c10.802,7.369,22.574,14.119,35.411,20.23c3.121-6.287,4.467-13.438,5.68-21.549l7.226-57.038
	c0.668-5.259,0.837-10.585,7.176-13.119l0.16-1.331c-0.356-0.39-0.683-0.766-1.057-1.158
	C573.719,348.458,565.521,343.794,556.206,341.663z M43.668,555.996l0.174-0.41c-0.171-0.428-0.563-0.953-0.945-1.658
	c-0.874,0.232-1.741,0.473-2.61,0.719c0.609,0.436,0.766,0.951,0.815,1.709C41.92,556.703,42.91,556.64,43.668,555.996z
	 M230.794,176.737l4.139-5.587l1.93-24.242l-0.25-0.018l0.033-0.407l-13.008-0.996c2.94,9.476,5.177,19.461,6.919,29.581
	C230.654,175.624,230.708,176.182,230.794,176.737z M37.773,557.361c-0.669-0.283-1.226-0.846-1.76-1.459
	c-0.191,0.061-0.381,0.123-0.57,0.18c-0.128,0.396-0.218,0.854-0.068,1.229c0.237,0.586,0.475,1.168,0.709,1.752
	c0.233,0.586,1.053,0.928,2.045,0.867c1.231,0.521,2.048,0.869,2.694,1.627c0.35-0.818,0.289-1.812-0.768-2.746
	C39.411,558.056,38.766,557.298,37.773,557.361z M486.172,627.824c-1.028-0.822-3.815-0.551-6.599-0.283l-1.107-1.771
	c-1.678,2.049-3.524,2.227-5.479,1.488l-1.02-0.854c-1.197-2.689-3.145-3.436-5.827-2.238c-2.695,1.201-4.648,0.463-5.839-2.23
	c-2.69,1.193-5.57,0.547-9.466-0.936l-11.403-1.723c-1.021-0.826-1.947-0.744-1.947-0.744l-1.426,1.744h-0.03
	c-19.201,14.656-33.652,21.252-58.159,28.15c0.126,6.732,0.459,13.402,0.904,20.061c-1.372-1.457-2.712-2.965-4.091-4.385
	c-0.362-4.848-0.647-9.703-0.869-14.557c-3.806,0.98-7.66,1.838-11.546,2.598c-0.091-0.072-0.172-0.172-0.266-0.244
	c-2.686,0.49-5.404,0.924-8.145,1.285c-26.987,3.617-51.043-12.271-51.185-42.725l-53.299-4.949
	c-4.51,30.012-30.055,44.223-56.081,37.23c-6.958-1.875-13.731-4.148-20.32-6.742c-1.96,11.666-4.177,23.268-7.322,34.572
	c0.436-1.604-0.729-3.668-1.895-5.721l-0.44,1.613c2.328-10.551,4.241-21.209,5.771-32.064
	c-38.056-15.865-69.185-42.965-89.491-74.934c-0.688-0.465-1.357-0.979-1.915-1.457c-0.243-0.582-1.067-0.92-1.143-1.914
	c-0.82-0.336-1.315-1.492-1.557-2.074l-2.4-0.014c-0.086-0.209-0.156-0.473-0.233-0.758c-0.584,0.082-1.172,0.154-1.754,0.238
	c0.384,0.418,0.806,0.801,1.244,1.174c1.064,0.918,1.892,1.256,2.544,2.002c1.237,0.504,2.477,1.006,3.546,1.926l1.386,2.484
	l2.38,2.412c-5.054,1.783-10.349,2.99-15.891,3.617c-5.709,1.035-11.078,1.248-16.289,1.049l-0.316-1.576l-1.909,1.146
	c-0.993,0.08-1.985,0.154-2.977,0.23c-1.236-0.506-2.062-0.842-3.055-0.768c0.339-0.824,0.092-1.398-0.731-1.74l-0.659-0.748
	c-0.549-0.035-0.986-0.121-1.383-0.242c3.374,8.879,7.231,17.549,11.511,25.961c0.308-0.246,0.58-0.479,0.951-0.689l2.519-2.764
	c0,0-0.458,1.609-2.519,2.764l-0.473,1.619c17.502,33.939,42.162,63.711,72.124,87.201c-1.146-1.955-2.708-2.463-3.841-4.465
	l-2.783-2.514c0,0,1.621,0.455,2.783,2.514l1.598,0.457c1.027,1.793,2.056,3.609,2.271,4.037c4.474,3.488,9.037,6.889,13.713,10.088
	l9.17,1.605c0,0,2.063-1.146,4.127-2.301c0.462-1.619-0.257-5.287-1.417-7.373c2.052,3.662,4.42,6.16,7.009,7.9
	c1.163-3.711,2.254-7.449,3.314-11.217l3.47,6.195c-0.688,2.449-1.394,4.879-2.131,7.301c0.331,0.119,0.667,0.24,1.037,0.346
	c1.616,0.447,3.224,0.883,3.664-0.705c0.458-1.617,2.077-1.172,3.687-0.721c1.617,0.457,4.395,2.973,6.714,7.105l10.116,1.104
	c-1.357,4.836-0.203,6.896,4.182,9.867c4.847,1.359,7.624,3.889,8.765,5.959c-2.05,1.133-2.512,2.742,0.271,5.264
	c0,0,0.689,0.646,1.53,1.531c21.522,7.328,44.356,11.982,68.143,13.535c50.482,3.297,98.565-7.865,140.247-29.912
	c-0.063-0.086,6.936-4.172,10.425-6.277c0.276-0.389,1.399-1.814,0.028-0.033c31.441-19,52.75-39.271,73.909-69.41
	c-0.887,0.1-1.793,0.145-2.693,0.219C488.126,628.167,486.852,627.763,486.172,627.824z M230.166,640.861c0,0,0.472-0.1,1.039,0.273
	L230.166,640.861z M231.46,637.64l-0.945,0.193c-0.096-0.471-0.096-0.471,0.277-1.045c-0.1-0.473-0.199-0.941-0.298-1.41
	c0.474-0.102,1.044,0.266,1.145,0.742c0.096,0.475,0.096,0.475-0.275,1.043C231.363,637.164,231.363,637.164,231.46,637.64z
	 M230.179,631.5l1.316-0.768l0.199,0.943L230.179,631.5z M515.302,470.193c-3.292-2.271-6.521-4.738-9.666-7.459
	c-6.443-5.836-11.966-11.777-16.796-19.713c-4.812-7.955-8.695-16.008-11.646-24.191c-2.55-8.699-3.104-16.711-2.312-25.373
	c0.165-1.785,0.431-3.58,0.755-5.375c-1.897-2.395-3.729-4.828-5.516-7.291l-4.389,34.605c-1.572,15.004-1.899,26.973,8.757,39.025
	c3.351,3.754,7.354,6.57,11.688,8.727c-0.894-0.102-1.787-0.238-2.674-0.316c-13.028-1.137-27.231-0.031-38.218,7.814
	c-4.864,3.42-8.064,7.697-10.222,12.492l13.211-1.051l1.306,16.35l-10.175,0.812l0.385,4.84c2.396,1.281,0.841,5.227,0.841,5.227
	s3.385-1.352,5.97,0.529l4.888-0.395l-0.812-10.18l16.251-1.303l3.08,38.545l-16.356,1.311l-0.812-10.174l-6.43,0.508
	c-1.478,0.736-3.145,0.568-4.69,0.023l0.348,4.416c0.702,0.211,1.199,0.262,1.199,0.262l0.354,4.426l-1.163,0.09l0.21,2.695
	l10.178-0.814l1.298,16.24l-28.183,2.252c-1.252,15.027-1.418,27.631,10.367,39.516c9.329,9.275,23.753,11.527,36.444,12.621
	c17.972,1.559,39.149,0.564,54.085-10.77l5.843-67.428l-49.967-4.314l-2.372,27.533l7.571,0.652l-0.535,6.264
	c-0.556,6.43-0.28,18.582-10.002,17.744c-8.248-0.715-8.238-8.52-8.105-10.018l5.442-62.805c0.511-6.09,1.846-13.785,10.085-13.076
	c9.73,0.836,7.372,12.762,6.83,19.031l-0.271,3.129l42.38,3.674l1.995-24.09l0.083,0.033l0.993-11.561
	c-6.549-5.975-14.167-10.443-22.297-13.781C514.786,470.126,515.042,470.169,515.302,470.193z M352.451,571.414
	c-3.925-2.955-4.16-6.832-3.864-10.92l-1.996,0.158l-2.247,16.049l6.933,8.354L352.451,571.414z M357.2,535.871l16.508,9.098
	l10.616-22.678l-11.152-15.562l-20.25,30.926l1.185,3.771L357.2,535.871z M371.76,518.359l1.03-4.166l1.749,3.924l4.288-0.311
	l-3.193,2.883l1.619,3.977l-3.725-2.146l-3.286,2.77l0.896-4.203l-3.649-2.273L371.76,518.359z M423.714,498.304
	c0.381-4.805,0.79-9.479,5.874-12.068l0.006-0.072l-17.146,1.371l0.897,11.24l10.338-0.828L423.714,498.304z M450.537,541.892
	l-10.341,0.826l-0.412-5.127l-12.171,0.971l-0.436,5.002l0.016,0.191l-0.03,0.002l-0.984,11.398l25.257-2.021L450.537,541.892z
	 M436.24,524.777c0,0,0.487,2.979,2.192,5.363c0.249,0.35,0.529,0.654,0.832,0.92l-0.341-4.27
	C437.335,525.8,436.24,524.777,436.24,524.777z M350.981,588.505l-9.404-10.744l1.793-13.236l-3.565,5.818l-9.179,0.732
	l11.033-18.594l-6.347,0.51l-0.759-9.514l4.194-0.332l-1.648-2.475l-15.168,11.957l-6.408-9.322l-0.944,10.875
	c-0.442,5.271-0.41,10.586-5.976,13.432l-2.167,25.064l43.854,3.795L350.981,588.505z M345.249,475.373l4.6,57.568l0.652-0.055
	l15.454-30.33L345.249,475.373z M446.044,484.845l-12.046,0.965c-1.923,5.326-2.781,11.174-3.302,17.125l-0.022,0.217
	c0.002,0,0.003,0,0.006-0.004l-0.258,2.975c0.562-0.355,3.692-2.252,6.798-2.432l-0.54-6.779l10.262-0.822L446.044,484.845z
	 M347.341,533.138l-5.291-66.236l26.747,35.432l-14.77,29.145l19.007-29.48l11.532,16.18l-18.105-62.652l-47.8-4.133l-2.166,25.049
	c4.997,3.768,4.036,8.992,3.595,14.275l-1.58,18.227l19.062,21.227l-17.396-23.953l20.771-39.232l5.293,66.248L347.341,533.138z
	 M333.259,153.888c-0.264,0.381-0.547,0.736-0.814,1.127c-1.539,2.272-3.079,4.54-4.062,6.975
	c-2.281,5.981-2.021,11.469,0.28,17.227c2.291,5.755,5.813,10.361,10.564,13.798c1.711,1.277,3.475,2.402,5.306,3.415l3.183-41.431
	L333.259,153.888z M287.412,97.814l-2.335,34.033l62.095,4.673l2.128-32.646c18.793-8.893,32.585-27.18,34.588-49.397
	c1.305-14.416-2.551-28.113-10.049-39.282l-3.137-0.583C361.3,5.599,348.857-0.251,330.434,0.165l-4.865,2.564l-2.405,1.259
	c-0.551,1.852-0.551,1.852-3.004,3.144c-0.557,1.843-1.128,3.722-1.691,5.58c-1.878-0.575-3.737-1.144-5.001-3.575
	c-1.294-2.439-3.14-2.996-4.434-5.432c-8.897-2.75-15.798-3.562-21.339-3.706c-8.142,5.943-14.743,13.872-19.136,23.136
	c2.042,1.016,4.384,1.971,7.207,2.843l9.413,8.988l-18.743-6.673c-1.091,2.981-2.018,6.023-2.614,9.233
	c2.333,1.738,7.03,3.208,12.927,5.012c-2.428,1.292-6.711,1.981-8.014-0.441c-0.84-1.606-2.78-2.632-5.079-3.496
	c-0.27,1.627-0.535,3.244-0.679,4.908C260.996,65.414,270.954,85.599,287.412,97.814z M300.428,46.914
	c1.152-12.701,12.409-22.034,25.093-20.882c12.713,1.152,22.077,12.35,20.905,25.052c-1.15,12.689-12.368,22.069-25.078,20.915
	C308.664,70.845,299.291,59.609,300.428,46.914z M308.746,211.729c1.893,1.407,3.862,2.637,5.89,3.714l0.604-7.87l-11.905-0.914
	C304.919,208.554,306.715,210.252,308.746,211.729z M350.614,180.196c4.989,3.667,4.103,8.868,3.692,14.095l-4.817,62.92
	c-0.399,5.215-0.302,10.487-5.791,13.357l-0.498,6.472c0.17,0.189,0.238,0.162,0.566-0.05c0.694,0.093,0.694,0.093,0.99,0.455
	c2.688,1.016,5.49,1.41,7.89,2.07c2.392,0.656,5.197,1.051,7.891,2.07l-0.411,0.266l1.689,0.554l0.113-0.62l5.084,1.67l-0.811,0.526
	l-0.52,0.88l-1.86,2.289l2.808,0.393c0.105-0.616,0.637-1.496,1.035-1.762c0.115-0.619,0.931-1.14,1.045-1.767
	c0.699,0.104,1.4,0.2,1.691,0.566c0.703,0.098,1.409,0.187,2.106,0.286l0.175,0.987c0.415-0.258,0.415-0.258,0.415-0.258
	c0.69,0.095,0.69,0.095,1.103-0.164c1.286,0.818,2.686,1.011,4.086,1.208c-1.966,2.907-3.705,4.578-5.224,5
	c0.183,0.986-0.754,2.134-1.684,3.272c-0.771,0.949-1.271,1.725-1.948,2.618l1.872,0.143c0.863-0.909,1.724-1.815,2.592-2.727
	c0.926-1.145,1.957-2.908,2.894-4.047c0.937-1.143,1.858-2.292,3.201-3.698c1.692,0.564,3.387,1.119,5.486,1.417
	c1.402,0.196,3.089,0.758,4.79,1.313c-1.633,1.042-2.965,2.45-4.002,4.213c-1.566,1.499-2.241,2.865-2.607,4.474l3.198,0.245
	c1.057-0.563,1.839-1.562,2.681-2.98l4.009-4.215c0.114-0.619,0.52-0.885,0.52-0.885l4.203,0.6
	c-0.113,0.619-0.631,1.502-1.049,1.762c0.418-0.26,0.822-0.521,0.822-0.521c0.112-0.623,0.513-0.882,0.929-1.145
	c3.794,0.857,7.588,1.709,11.206,1.583c6.306,0.893,12.424,0.803,18.668,0.093c5.072-0.918,13.141-3.063,19.141-6.438l2.603-33.925
	l-40.202-3.084l-0.351,4.574c-1.029,11.431-1.253,16.339-14.316,15.338l-2.625-0.204l2.167-28.265l27.62,2.115l2.089-27.284
	l-27.618-2.126l1.925-25.004l2.612,0.206c11.762,0.902,12.77,4.93,12.045,14.396l-0.334,4.254l40.213,3.075l3.622-47.385
	l-104.907-8.042L350.614,180.196z M239.76,248.795c-0.402,5.222-0.315,10.497-5.789,13.361l-1.91,24.85l32.167,2.465
	c0.571-0.238,1.081-0.549,1.586-0.872l0.583,0.72l0.277,0.339l0.048,0.002c0.792-0.506,1.188-0.761,1.188-0.761
	c0.404-0.262,0.521-0.881,0.745-2.125l9.443-4.401l-0.748,2.125l-2.153,1.92l0.878,1.085c1.515-0.425,2.034-1.309,2.556-2.19
	c0.522-0.882,1.342-1.402,2.854-1.825l0.521-0.884c0.812-0.527,0.929-1.145,0.34-1.862c1.107-0.164,1.928-0.688,3.148-1.472
	c1.105-0.164,2.213-0.322,3.322-0.488l2.393,0.657l-0.062-1.601c5.653-1.432,11.593-2.504,18.129-2.859
	c6.242-0.708,12.361-0.801,18.376-0.266l-1.965,2.906l-0.867,2.747c-0.923,1.147-2.147,1.927-3.37,2.709
	c-0.521,0.88-1.342,1.403-2.263,2.544c-0.931,1.146-1.858,2.294-1.793,3.896c1.811-0.07,2.625-0.589,2.329-0.945
	c0.518-0.885,0.343-1.86,0.451-2.479l2.634-0.596c0.106-0.615,0.338-1.859,1.154-2.381c-0.18-0.982,0.625-1.507,0.741-2.128
	c0.932-1.147,2.265-2.546,3.484-3.329c1.224-0.788,2.444-1.571,3.373-2.711c0.702,0.095,1.689,0.555,2.392,0.66
	c-1.739,1.665-2.777,3.422-4.527,5.094c-1.33,1.402-2.082,3.526-2.418,5.393l2.095,0.295c0.234-1.244,1.161-2.382,2.495-3.79
	c0.923-1.141,2.268-2.552,3.186-3.695c0.411-0.26,0.821-0.518,1.229-0.783c0.7,0.099,1.105-0.157,1.224-0.78
	c0.405-0.265,0.518-0.889,0.641-1.502c0.166,0.021,0.355,0.068,0.562,0.125l2.425-31.587l-40.196-3.079l-0.352,4.572
	c-1.045,11.426-1.265,16.337-14.334,15.347l-2.607-0.214l2.166-28.251l27.624,2.105l1.365-17.958
	c-3.398-1.782-6.592-4.022-9.524-6.814c-1.259-1.087-2.407-2.29-3.452-3.556l-13.926-1.072l1.917-24.998l2.616,0.199
	c0.596,0.042,1.132,0.099,1.677,0.164c0.516-2.384,1.187-4.861,1.885-7.347c1.109-3.905,3.914-6.424,7.336-7.874
	c0.907-0.031,1.82-0.082,2.736-0.125c1.114,0.314,1.517,1.022,1.007,1.781c-1.541,2.285-3.284,4.197-4.828,6.467
	c-1.536,2.279-3.085,4.548-4.068,6.981c-0.098,0.271-0.164,0.526-0.26,0.785c6.589,1.749,7.156,5.836,6.561,13.576l-0.318,4.23
	l40.195,3.093l0.353-4.5c-3.193-1.732-6.195-3.879-8.953-6.532c-3.634-3.119-6.392-7.203-8.241-11.334
	c-2.218-3.946-3.543-8.822-3.615-13.951c0.389-3.498,1.483-7.412,2.587-11.308c0.128-0.487,0.295-0.94,0.464-1.385l-83.873-6.431
	l-1.901,24.85c4.979,3.664,4.093,8.854,3.686,14.081L239.76,248.795z M451.514,321.687c1.133,15.201,6.12,30.387,14.446,45.253
	l0.935-7.331c2.626-20.812-3.538-33.262-15.543-40.757C451.399,319.796,451.446,320.742,451.514,321.687z M369.14,287.585
	c-0.527,0.876-1.043,1.766-1.565,2.644c-0.114,0.623-0.344,1.864-0.464,2.483c1.521-0.418,2.738-1.208,3.672-2.345
	c0.114-0.62,0.933-1.142,1.04-1.769c0.119-0.622,0.932-1.143,1.046-1.763l-0.185-0.981
	C371.284,285.656,370.062,286.434,369.14,287.585z M459.383,418.925l5.743-45.371c-10.758-18.052-17.465-37.499-18.148-57.091
	c-7.45-3.583-16.615-5.741-26.996-7.056c-31.062-3.929-53.535,2.062-57.947,36.919l-7.521,59.332
	c-4.408,34.842,15.854,46.273,46.93,50.191C432.501,459.789,454.971,453.791,459.383,418.925z M423.301,351.749l-8.075,63.765
	c-0.125,0.991-0.899,11.073-9.944,9.927c-9.037-1.145-7.27-11.093-7.146-12.088l8.077-63.779c0.126-0.984,0.878-10.898,9.926-9.752
	C425.171,340.958,423.433,350.755,423.301,351.749z M391.885,298.757l1.687,0.562c0.107-0.617,0.64-1.501,1.458-2.02
	c0.109-0.621,0.634-1.51,0.74-2.124l-2.438,1.559L391.885,298.757z"/>
</svg>
